<svg width="74" height="41" viewBox="0 0 74 41" fill="none" xmlns="http://www.w3.org/2000/svg">
<path fill-rule="evenodd" clip-rule="evenodd" d="M53.4221 28.729V25.7612H59.1674V28.7305H53.4221V28.729ZM45.772 28.729V25.7612H51.5173V28.7305H45.772V28.729ZM36.5516 19.3379V13.7866H28.4352V19.3379H36.5516ZM37.6586 13.7851V19.3364H45.7749V13.7851H37.6586ZM46.882 13.7851V19.3364H54.9983V13.7851H46.882ZM56.1038 13.7851V19.3364H64.2187V13.7851H56.1038ZM51.4936 12.7757H59.61V7.22437H51.4936V12.7757ZM50.3866 12.7742V7.2229H42.2703V12.7742H50.3866ZM41.1632 12.7742V7.2229H33.0484V12.7742H41.1632ZM62.0268 35.643C55.0501 32.9959 51.4626 31.6347 41.7878 35.0622C34.777 37.5466 32.2033 37.5466 25.1911 35.0622C15.5119 31.6362 11.9303 32.9945 4.95208 35.6415C3.85688 36.0568 2.66696 36.5091 1.24912 37.0101L2.60184 40.8396C3.93088 40.3711 5.2096 39.8833 6.38324 39.4385C12.4453 37.1387 15.5563 35.9593 23.8398 38.8916C31.6927 41.6746 35.1308 41.7308 43.1405 38.8916C51.4196 35.9593 54.535 37.1417 60.5971 39.4399C61.7722 39.8848 63.0495 40.3711 64.3785 40.8411L65.7312 37.0116C64.3104 36.5091 63.122 36.0583 62.0268 35.643ZM74 20.1966H21.1906V15.8883H16.7092V0H12.6362V15.8883H8.15332V20.1966H0L4.36748 33.7305C5.75572 33.2058 7.01668 32.7521 8.19476 32.3722C14.3086 30.405 18.1833 30.4642 25.8586 33.1851C32.4268 35.5129 34.5521 35.5129 41.1203 33.1851C49.9974 30.04 53.875 30.4553 62.2814 33.6078L74 20.1966Z" fill="#DD1367"/>
</svg>
