<svg width="2104" height="682" viewBox="0 0 2104 682" fill="none" xmlns="http://www.w3.org/2000/svg">
<path d="M212.985 206.078C206.804 212.003 201.566 214.234 192.8 216.452C182.961 218.942 176.057 213.008 166.594 216.452C150.184 222.425 155.883 239.163 146.472 252.459C137.128 265.66 126.224 269.847 118.862 283.993C113.032 295.195 115.687 303.325 109.971 314.572C94.9645 344.102 52.0569 332.424 37.4369 367.13L0 456H1206.4H1335C1335 456 1325.75 442.102 1323.44 429.021C1321.12 415.941 1316.96 405.722 1315.11 401.225C1313.26 396.729 1304.01 368.524 1302.62 364.436C1301.23 360.349 1291.06 333.37 1288.74 329.691C1286.43 326.012 1268.39 303.53 1264.23 299.034C1260.06 294.537 1237.86 279.822 1237.86 279.822C1237.86 279.822 1211.49 261.427 1206.4 258.892C1201.31 256.357 1174.49 260.61 1170.94 258.892C1167.4 257.174 1165.23 249.982 1163.31 248.518C1161.38 247.054 1150.09 247.463 1147.49 248.518C1144.88 249.573 1133.32 257.748 1130.57 258.892C1127.83 260.035 1111.48 258.892 1111.48 258.892H1092.93H1078.2H1062.93C1062.93 258.892 1054.81 259.939 1049.84 258.892C1042.01 257.246 1040.67 250.432 1032.92 248.518C1026.56 246.946 1022.32 250.246 1016.01 248.518C1010.18 246.921 1010.27 240.973 1002.92 240.973C995.568 240.973 991.792 246.925 983.825 248.518C974.89 250.304 960.367 248.518 960.367 248.518L941.274 231.542L923.816 216.452L907.45 206.078L893.267 198.534H873.627H853.442H833.258L814.164 190.989L787.433 198.534C787.433 198.534 777.211 191.067 769.43 190.989C761.457 190.908 758.71 197.192 750.882 198.534C744.607 199.609 740.583 196.757 734.516 198.534C724.597 201.438 727.172 218.776 717.059 216.452C711.001 215.061 711.138 209.417 706.148 206.078C699.637 201.721 695.059 199.971 687.054 198.534C679.747 197.221 675.229 200.006 667.961 198.534C660.564 197.035 658.064 190.406 650.504 190.989C644.063 191.485 641.57 195.199 636.32 198.534C632.061 201.238 625.955 206.078 625.955 206.078C625.955 206.078 620.547 206.758 617.226 206.078C611.622 204.931 610.971 198.739 605.224 198.534C599.125 198.315 598.227 205.795 592.131 206.078C585.492 206.387 582.65 202.141 577.402 198.534C569.982 193.433 568.675 187.952 561.581 182.501C551.408 174.683 544.877 169.363 531.577 167.411C525.272 166.486 515.211 167.411 515.211 167.411C515.211 167.411 507.301 173.575 501.027 174.956C495.859 176.093 487.389 174.956 487.389 174.956C487.389 174.956 480.159 173.66 475.932 174.956C471.132 176.428 466.113 182.501 466.113 182.501C466.113 182.501 454.876 192.325 446.474 190.989C440.232 189.996 439.717 182.266 433.381 182.501C427.383 182.724 427.18 189.624 421.379 190.989C417.673 191.861 415.342 190.43 411.559 190.989C404.449 192.039 401.745 195.876 395.193 198.534C386.696 201.98 382.07 204.839 372.826 206.078C357.307 208.16 347.84 192.796 333.548 198.534C328.468 200.573 327.665 206.318 322.092 206.078C316.854 205.853 316.952 198.139 311.727 198.534C306.976 198.893 307.453 204.577 302.998 206.078C299.017 207.42 296.343 205.887 292.087 206.078C274.461 206.87 264.966 221.939 248.444 216.452C241.082 214.007 238.582 209.987 232.078 206.078C227.031 203.045 224.654 196.531 218.986 198.534C215.201 199.87 215.747 203.43 212.985 206.078Z" fill="#F2F2F2"/>
<path d="M239.002 255.227C239.002 255.227 353.539 217.225 379.847 214.01C406.255 210.795 445.768 208.734 445.768 208.734L507.388 193.154C507.388 193.154 599.617 192.577 612.722 194.968C625.826 198.43 630.327 191.67 687.445 189.774C687.445 189.774 696.248 188.703 705.051 184.169C709.453 178.481 727.158 167.27 731.56 166.116C740.362 163.89 806.384 147.238 810.785 146.084C815.186 145.013 837.093 147.403 841.495 146.249C845.896 146.249 863.502 137.264 867.903 137.346C872.305 137.346 889.81 137.511 889.81 137.511C889.81 137.511 898.613 132.977 911.817 134.214C925.022 135.45 942.527 135.533 951.33 138.995C964.434 142.457 986.341 153.998 990.743 155.152C999.545 157.46 1012.65 158.697 1017.05 159.851C1021.45 161.005 1060.77 177.162 1065.17 180.624C1073.87 185.241 1086.97 200.079 1095.68 202.469C1104.48 204.777 1170 238.163 1170 238.163C1169.8 264.295 1168.6 392.893 1164 419.024C874.205 416.139 527.194 425.372 233 422.404C242.103 397.509 238.702 280.287 239.002 255.227Z" fill="#F2F2F2"/>
<path fill-rule="evenodd" clip-rule="evenodd" d="M2058.96 648.748C2057.33 651.157 2056.19 652.911 2055.63 653.911C2053.26 652.477 2050.68 650.901 2047.89 649.191L2058.96 648.748ZM1656.92 400.993C1552.05 333.829 1468.64 280.2 1468.64 280.2L1494.62 252.88L1349.14 162.357C1348.84 162.729 1348.54 163.1 1348.24 163.471L1349.09 162.321L1349.14 162.357C1367.75 139.3 1387.08 115.222 1404.2 91.2688C1404.2 91.2688 1438.47 85.8056 1451.44 88.9636C1464.46 92.045 1481.02 99.0454 1481.02 99.0454L1518.27 95.4702C1518.27 95.4702 1555.07 116.746 1558.66 123.959C1559.92 126.266 1562.22 126.495 1566.52 126.921C1571.78 127.443 1580.02 128.261 1592.97 133.552C1592.97 133.552 1596.79 134.29 1603.89 130.365C1610.33 124.346 1626.21 114.196 1628.55 113.99C1629.29 113.924 1631.08 113.642 1633.54 113.253C1636.22 112.828 1639.7 112.277 1643.52 111.74L1656.92 400.993Z" fill="#F2F2F2"/>
<path d="M1095.51 303.088C1103.48 274.792 1111.74 245.226 1117.95 216.58C1117.95 216.58 1147.45 199.477 1160.74 197.843C1174.05 196.119 1192.22 196.781 1192.22 196.781L1225.26 180.378C1225.26 180.378 1267.98 187.141 1274.24 192.555C1278.91 196.326 1284.22 188.747 1309.9 189.381C1309.9 189.381 1313.74 188.72 1318.71 182.592C1322.23 174.754 1332.8 159.777 1334.88 158.766C1336.96 157.755 1347.55 151.226 1357.82 146.148C1357.82 146.148 1381.37 113.732 1396.76 110.997C1406.54 108.573 1419.74 115.363 1429.53 121.477L1431.91 110.568L1436.06 108.546L1437.82 108.895L1441.35 109.595L1443.12 109.945L1446.65 110.645L1446.02 113.366L1443.02 126.997L1442.39 129.719C1444.16 130.068 1445.92 130.418 1447.69 130.768L1450.38 118.498L1454.53 116.476L1456.3 116.826L1463.38 118.134L1466.28 121.555L1463.59 133.826C1465.35 134.175 1465.35 134.175 1467.12 134.525L1469.81 122.255L1473.96 120.233L1475.73 120.583L1481.02 121.632L1483.93 125.054L1481.23 137.324C1483 137.674 1484.76 138.023 1486.53 138.373L1484.72 121.039L1490.02 122.088L1489.72 131.987L1495.31 123.138L1498.84 123.837L1498.54 133.736L1502.37 124.537L1507.66 125.586L1501.13 138.518C1502.89 138.868 1502.89 138.868 1504.66 139.217C1506.42 139.567 1510.27 138.906 1512.05 139.165L1513.49 132.338L1510.25 121.831L1515.54 122.88L1516.17 128.696L1520.83 123.929L1526.13 124.979L1518.77 133.478L1517.01 141.666C1518.78 142.016 1518.78 142.016 1520.54 142.366L1520.85 141.005L1527.93 142.313L1531.13 127.298L1534.66 127.998L1531.15 144.374L1532.91 144.724L1533.54 142.002L1540.62 143.311L1543.62 129.68L1548.91 130.729L1545.4 147.105C1547.17 147.455 1548.93 147.805 1549.24 146.444L1552.25 132.813L1556.4 130.791L1558.17 131.141L1563.46 132.19L1566.37 135.611L1563.36 149.242C1565.13 149.592 1566.89 149.942 1566.89 149.942L1570.71 132.205L1576.01 133.255L1574.56 140.082L1578.09 140.782L1579.54 133.955L1584.83 135.004L1582.45 145.913C1590.64 141.846 1599.28 136.351 1601.04 136.701C1604.89 136.04 1612.56 126.18 1616.73 124.067C1619.12 121.695 1637.4 113.844 1639.48 112.833C1641.56 111.822 1646.87 112.78 1650.71 112.119C1654.56 111.458 1663.39 104.579 1669.31 102.907C1675.23 101.235 1682.31 102.543 1685.83 103.243C1687.6 103.593 1694.05 107.623 1694.05 107.623C1694.05 107.623 1701.13 108.931 1702.9 109.281C1704.66 109.631 1710.61 116.406 1712.06 118.116C1713.83 118.466 1722.67 120.125 1724.43 120.474C1726.2 120.824 1750.04 138.069 1751.61 139.803C1753.06 141.514 1758.38 151.01 1761.29 154.432C1763.88 159.214 1767.43 159.822 1767.43 159.822C1789.79 166.91 1788.97 171.016 1796.36 170.964C1802.28 169.291 1839.08 177.726 1839.08 177.726L1861.45 193.352C1861.45 193.352 1874.96 198.781 1887.14 202.523C1939.35 217.237 2004.17 257.971 2004.17 257.971C2002.13 275.967 1939.02 445.151 1937.27 461.876C1820.19 440.942 1254.46 368.837 1254.46 368.837L1267.4 334.413L1095.83 301.728L1095.51 303.088ZM1572.29 151.582C1574.37 150.571 1574.68 149.211 1576.45 149.561L1577.58 144.094L1574.05 143.395L1572.29 151.582ZM1556.9 145.78L1560.43 146.48L1562.81 135.57L1559.28 134.87L1556.9 145.78ZM1494.1 138.072L1493.78 130.895L1490.57 137.373C1492.33 137.722 1494.1 138.072 1494.1 138.072ZM1442.3 114.051L1438.77 113.351L1436.39 124.26L1439.92 124.96L1442.3 114.051ZM1460.81 121.799L1457.28 121.1L1454.9 132.009L1458.43 132.709L1460.81 121.799ZM1478.5 125.116L1474.97 124.416L1472.59 135.326L1476.12 136.026L1478.5 125.116Z" fill="#F2F2F2"/>
<path d="M981.985 177.136C975.804 183.676 970.566 186.138 961.8 188.587C951.961 191.335 945.057 184.785 935.594 188.587C919.184 195.179 924.883 213.655 915.472 228.331C906.128 242.902 895.224 247.524 887.862 263.139C882.032 275.504 884.687 284.477 878.971 296.892C863.965 329.487 821.057 316.597 806.437 354.906L769 453.001H1975.4H2104C2104 453.001 2094.75 437.66 2092.44 423.222C2090.12 408.784 2085.96 397.504 2084.11 392.54C2082.26 387.577 2073.01 356.445 2071.62 351.933C2070.23 347.421 2060.06 317.641 2057.74 313.581C2055.43 309.52 2037.39 284.704 2033.23 279.741C2029.06 274.778 2006.86 258.534 2006.86 258.534C2006.86 258.534 1980.49 238.231 1975.4 235.432C1970.31 232.633 1943.49 237.328 1939.94 235.432C1936.4 233.536 1934.23 225.597 1932.31 223.981C1930.38 222.365 1919.09 222.816 1916.49 223.981C1913.88 225.146 1902.32 234.17 1899.57 235.432C1896.83 236.694 1880.48 235.432 1880.48 235.432H1861.93H1847.2H1831.93C1831.93 235.432 1823.81 236.588 1818.84 235.432C1811.01 233.615 1809.67 226.093 1801.92 223.981C1795.56 222.246 1791.32 225.888 1785.01 223.981C1779.18 222.218 1779.27 215.653 1771.92 215.653C1764.57 215.653 1760.79 222.223 1752.83 223.981C1743.89 225.952 1729.37 223.981 1729.37 223.981L1710.27 205.243L1692.82 188.587L1676.45 177.136L1662.27 168.808H1642.63H1622.44H1602.26L1583.16 160.48L1556.43 168.808C1556.43 168.808 1546.21 160.567 1538.43 160.48C1530.46 160.391 1527.71 167.327 1519.88 168.808C1513.61 169.995 1509.58 166.847 1503.52 168.808C1493.6 172.013 1496.17 191.151 1486.06 188.587C1480 187.051 1480.14 180.822 1475.15 177.136C1468.64 172.326 1464.06 170.395 1456.05 168.808C1448.75 167.359 1444.23 170.433 1436.96 168.808C1429.56 167.153 1427.06 159.837 1419.5 160.48C1413.06 161.028 1410.57 165.128 1405.32 168.808C1401.06 171.793 1394.95 177.136 1394.95 177.136C1394.95 177.136 1389.55 177.886 1386.23 177.136C1380.62 175.87 1379.97 169.035 1374.22 168.808C1368.12 168.567 1367.23 176.823 1361.13 177.136C1354.49 177.476 1351.65 172.79 1346.4 168.808C1338.98 163.178 1337.67 157.128 1330.58 151.111C1320.41 142.481 1313.88 136.609 1300.58 134.455C1294.27 133.434 1284.21 134.455 1284.21 134.455C1284.21 134.455 1276.3 141.259 1270.03 142.783C1264.86 144.038 1256.39 142.783 1256.39 142.783C1256.39 142.783 1249.16 141.352 1244.93 142.783C1240.13 144.408 1235.11 151.111 1235.11 151.111C1235.11 151.111 1223.88 161.955 1215.47 160.48C1209.23 159.384 1208.72 150.851 1202.38 151.111C1196.38 151.357 1196.18 158.973 1190.38 160.48C1186.67 161.442 1184.34 159.863 1180.56 160.48C1173.45 161.639 1170.75 165.875 1164.19 168.808C1155.7 172.612 1151.07 175.768 1141.83 177.136C1126.31 179.433 1116.84 162.475 1102.55 168.808C1097.47 171.059 1096.66 177.4 1091.09 177.136C1085.85 176.888 1085.95 168.372 1080.73 168.808C1075.98 169.204 1076.45 175.479 1072 177.136C1068.02 178.617 1065.34 176.925 1061.09 177.136C1043.46 178.01 1033.97 194.643 1017.44 188.587C1010.08 185.888 1007.58 181.451 1001.08 177.136C996.031 173.787 993.654 166.598 987.986 168.808C984.201 170.284 984.747 174.213 981.985 177.136Z" fill="#E7E7E7"/>
<path d="M332.46 439.756L332.361 456.199C332.351 457.866 333.702 459.222 335.37 459.217L1768.61 454.901C1770.26 454.896 1771.59 453.565 1771.6 451.919L1771.72 432.465C1771.73 430.808 1770.39 429.457 1768.74 429.447L1760.51 429.398C1758.85 429.388 1757.51 428.036 1757.52 426.379L1757.56 419.962C1757.57 418.305 1756.24 416.954 1754.58 416.944L1750.75 416.92C1749.28 416.912 1748.1 415.713 1748.11 414.244C1748.12 412.774 1746.93 411.575 1745.46 411.567L1738.93 411.527C1737.46 411.518 1736.26 412.702 1736.25 414.172C1736.24 415.642 1735.04 416.826 1733.57 416.817L1729.75 416.794C1728.09 416.784 1726.74 418.119 1726.73 419.776L1726.69 426.194C1726.68 427.85 1725.33 429.185 1723.67 429.175L1710.7 429.097C1709.04 429.087 1707.7 427.736 1707.71 426.079L1708.28 331.554C1708.29 329.898 1706.96 328.546 1705.3 328.536L1664.69 328.291C1664.13 328.288 1663.58 328.442 1663.1 328.736L1650.96 336.198C1650.08 336.741 1649.54 337.7 1649.53 338.736L1649.08 413.308C1649.07 414.964 1647.72 416.299 1646.07 416.289L1644.95 416.283C1643.29 416.273 1641.96 414.922 1641.97 413.265L1642 408.621C1642.01 406.964 1640.67 405.613 1639.01 405.603L1618.92 405.482C1617.27 405.472 1615.91 406.807 1615.9 408.464L1615.88 413.107C1615.87 414.764 1614.52 416.099 1612.86 416.089L1604.63 416.04C1602.97 416.03 1601.62 417.365 1601.61 419.022L1601.52 434.309C1601.51 435.966 1600.16 437.301 1598.5 437.291L1589.08 437.234C1587.42 437.224 1586.09 435.873 1586.1 434.216L1586.26 408.285C1586.27 406.628 1584.93 405.277 1583.27 405.267L1569.71 405.185C1568.05 405.175 1566.71 403.824 1566.72 402.167L1567.02 353.174C1567.03 351.517 1565.69 350.166 1564.04 350.156L1523.78 349.913C1522.13 349.903 1520.78 351.238 1520.77 352.895L1520.74 357.539C1520.73 359.196 1519.38 360.531 1517.72 360.521L1505.3 360.446L1498.82 360.407C1497.16 360.397 1495.82 359.046 1495.83 357.389L1495.86 352.745C1495.87 351.088 1494.54 349.737 1492.88 349.727L1488.21 349.699C1486.55 349.689 1485.21 348.338 1485.22 346.681L1485.27 339.08C1485.28 337.423 1483.94 336.072 1482.29 336.062L1458.64 335.92C1456.98 335.91 1455.63 337.245 1455.62 338.901L1455.42 372.52C1455.41 374.177 1454.06 375.512 1452.4 375.502L1433.49 375.388C1431.84 375.378 1430.49 376.713 1430.48 378.37L1430.27 411.989C1430.26 413.645 1428.91 414.98 1427.26 414.97L1426.14 414.964C1424.48 414.954 1423.15 413.603 1423.16 411.946L1423.29 390.153C1423.3 388.497 1421.96 387.145 1420.31 387.135L1406.15 387.05C1404.49 387.04 1403.14 388.375 1403.13 390.032L1403.06 401.215C1403.05 402.853 1401.72 404.172 1400.08 404.162C1398.44 404.153 1397.11 405.472 1397.1 407.109L1396.94 433.076C1396.93 434.733 1395.58 436.068 1393.92 436.058L1385.69 436.008C1384.03 435.998 1382.7 434.647 1382.71 432.99L1382.86 407.059C1382.87 405.402 1381.54 404.051 1379.88 404.041L1378.77 404.034C1377.11 404.024 1375.77 402.673 1375.78 401.016L1375.8 398.146C1375.81 396.489 1374.48 395.138 1372.82 395.128L1363.4 395.071C1361.74 395.061 1360.41 393.71 1360.42 392.053L1360.43 389.775C1360.44 388.118 1359.11 386.767 1357.45 386.757L1343.88 386.675C1342.23 386.665 1340.89 385.314 1340.9 383.657L1341.05 359.456L1334.25 306.194L1328.8 258.696C1328.69 257.687 1328.07 256.805 1327.16 256.352L1290.78 238.223L1290.51 283.416C1290.5 285.073 1289.15 286.408 1287.49 286.398L1285.19 286.384C1283.53 286.374 1282.18 287.709 1282.17 289.366L1282.09 302.915C1282.08 304.552 1280.74 305.871 1279.11 305.862C1277.47 305.852 1276.13 307.171 1276.12 308.809L1276.04 322.949C1276.03 324.606 1274.68 325.941 1273.02 325.931L1263.01 325.87C1261.35 325.86 1260 327.195 1259.99 328.852L1259.56 400.315C1259.55 401.972 1258.2 403.307 1256.54 403.297L1248.31 403.248C1246.65 403.238 1245.32 401.886 1245.33 400.23L1245.35 397.36C1245.36 395.703 1244.02 394.352 1242.36 394.342L1213.97 394.17C1212.31 394.161 1210.98 392.809 1210.99 391.152L1211.5 306.558C1211.5 305.845 1211.25 305.155 1210.8 304.609L1195.91 286.902C1195.35 286.228 1194.51 285.837 1193.63 285.832L1128.64 285.44C1126.98 285.43 1125.63 286.765 1125.62 288.422L1125.13 370.529C1125.12 372.186 1123.77 373.521 1122.11 373.511L1117.44 373.483C1115.78 373.473 1114.43 374.808 1114.42 376.465L1114.38 382.291C1114.37 383.948 1113.02 385.283 1111.36 385.273L1101.95 385.216C1100.29 385.206 1098.94 386.541 1098.93 388.198L1098.92 390.477C1098.91 392.134 1097.55 393.469 1095.9 393.459L1084.11 393.388C1082.45 393.378 1081.12 392.026 1081.13 390.37L1081.88 265.687C1081.89 264.031 1080.55 262.679 1078.9 262.669L1074.22 262.641C1072.57 262.631 1071.23 261.28 1071.24 259.623L1071.25 258.527C1071.26 256.87 1069.92 255.519 1068.27 255.509L1048.77 255.392C1047.11 255.382 1045.76 256.717 1045.75 258.373L1045.17 354.707C1045.16 356.345 1043.82 357.664 1042.19 357.654C1040.55 357.645 1039.23 356.309 1039.24 354.672L1039.27 349.993C1039.28 348.336 1037.94 346.985 1036.28 346.975L1028.05 346.925C1026.4 346.915 1025.06 345.564 1025.07 343.907L1025.29 307.332C1025.3 305.675 1023.97 304.324 1022.31 304.314L986.801 304.1C985.144 304.09 983.809 302.738 983.819 301.082L984.171 242.627C984.181 240.971 982.846 239.619 981.189 239.609L960.505 239.485C958.848 239.475 957.513 238.123 957.523 236.467L957.637 217.631C957.647 215.974 956.312 214.623 954.655 214.613L953.539 214.606C951.882 214.596 950.547 213.245 950.557 211.588L950.682 190.979C950.692 189.322 949.357 187.971 947.7 187.961L925.237 187.825C923.58 187.815 922.229 189.15 922.219 190.807L922.094 211.417C922.084 213.073 920.733 214.408 919.076 214.398L917.96 214.392C916.304 214.382 914.952 215.717 914.942 217.374L914.829 236.209C914.819 237.866 913.468 239.201 911.811 239.191L907.137 239.163C905.48 239.153 904.129 240.488 904.119 242.145L903.546 337.261C903.536 338.918 902.184 340.253 900.528 340.243L899.368 340.236C897.736 340.226 896.404 341.542 896.394 343.175C896.384 344.808 895.052 346.123 893.42 346.113L888.702 346.085C887.046 346.075 885.711 344.724 885.721 343.067L886.13 275.152C886.14 273.495 884.805 272.144 883.148 272.134L840.489 271.876L807.91 271.68C806.253 271.67 804.902 273.005 804.892 274.662L804.739 300.002C804.729 301.659 803.378 302.994 801.721 302.984L787.559 302.899C785.903 302.889 784.568 301.537 784.578 299.881L785.023 226.052C785.033 224.395 783.698 223.044 782.041 223.034L750.683 222.845C749.026 222.835 747.675 224.17 747.665 225.827L746.863 358.788C746.853 360.444 745.502 361.779 743.845 361.769L739.172 361.741C737.515 361.731 736.18 360.38 736.19 358.723L736.763 263.607C736.773 261.95 735.438 260.599 733.781 260.589L725.55 260.539C723.893 260.529 722.558 259.178 722.568 257.521L722.667 241.051C722.677 239.394 721.342 238.043 719.685 238.033L680.791 237.799C679.587 237.791 678.495 238.505 678.018 239.61L672.431 252.561C672.271 252.931 672.188 253.329 672.185 253.732L671.498 367.795C671.488 369.452 670.137 370.787 668.48 370.777L653.132 370.684C651.476 370.674 650.124 372.009 650.114 373.666L649.859 416.066C649.843 418.736 646.607 420.056 644.728 418.159L643.615 417.036C643.056 416.472 642.296 416.152 641.502 416.148L603.004 415.915C601.371 415.906 600.056 414.574 600.065 412.941C600.075 411.308 598.76 409.976 597.127 409.967L555.61 409.716L550.308 409.684C548.651 409.674 547.3 411.009 547.29 412.666L547.248 419.675C547.238 421.332 545.886 422.667 544.23 422.657L517.023 422.493C515.366 422.483 514.031 421.132 514.041 419.475L514.047 418.379C514.057 416.722 512.722 415.371 511.066 415.361L498.119 415.283C497.686 415.281 497.258 415.372 496.863 415.55L483.752 421.489C482.685 421.973 481.997 423.033 481.99 424.204L481.927 434.657C481.917 436.313 480.566 437.648 478.909 437.638L470.085 437.585C468.428 437.575 467.093 436.224 467.103 434.567L467.109 433.471C467.119 431.814 465.784 430.463 464.127 430.453L455.896 430.404C454.239 430.394 452.888 431.729 452.878 433.386L452.871 434.481C452.861 436.138 451.51 437.473 449.853 437.463L438.621 437.396L430.948 437.349C429.291 437.339 427.94 438.674 427.93 440.331L427.909 443.793C427.899 445.449 426.548 446.784 424.891 446.774L420.217 446.746C418.56 446.736 417.225 445.385 417.235 443.728L417.256 440.267C417.266 438.61 415.931 437.259 414.274 437.249L335.478 436.774C333.821 436.764 332.47 438.099 332.46 439.756Z" fill="#C8C8C8"/>
<path d="M1291.07 190.03L1290.78 238.223M1290.78 238.223L1290.51 283.416C1290.5 285.073 1289.15 286.408 1287.49 286.398L1285.19 286.384C1283.53 286.374 1282.18 287.709 1282.17 289.366L1282.09 302.915C1282.08 304.552 1280.74 305.871 1279.11 305.862V305.862C1277.47 305.852 1276.13 307.171 1276.12 308.809L1276.04 322.949C1276.03 324.606 1274.68 325.941 1273.02 325.931L1263.01 325.87C1261.35 325.86 1260 327.195 1259.99 328.852L1259.56 400.315C1259.55 401.972 1258.2 403.307 1256.54 403.297L1248.31 403.248C1246.65 403.238 1245.32 401.886 1245.33 400.23L1245.35 397.36C1245.36 395.703 1244.02 394.352 1242.36 394.342L1213.97 394.17C1212.31 394.161 1210.98 392.809 1210.99 391.152L1211.5 306.558C1211.5 305.845 1211.25 305.155 1210.8 304.609L1195.91 286.902C1195.35 286.228 1194.51 285.837 1193.63 285.832L1128.64 285.44C1126.98 285.43 1125.63 286.765 1125.62 288.422L1125.13 370.529C1125.12 372.186 1123.77 373.521 1122.11 373.511L1117.44 373.483C1115.78 373.473 1114.43 374.808 1114.42 376.465L1114.38 382.291C1114.37 383.948 1113.02 385.283 1111.36 385.273L1101.95 385.216C1100.29 385.206 1098.94 386.541 1098.93 388.198L1098.92 390.477C1098.91 392.134 1097.55 393.469 1095.9 393.459L1084.11 393.388C1082.45 393.378 1081.12 392.026 1081.13 390.37L1081.88 265.687C1081.89 264.031 1080.55 262.679 1078.9 262.669L1074.22 262.641C1072.57 262.631 1071.23 261.28 1071.24 259.623L1071.25 258.527C1071.26 256.87 1069.92 255.519 1068.26 255.509L1048.77 255.392C1047.11 255.382 1045.76 256.717 1045.75 258.373L1045.17 354.707C1045.16 356.345 1043.82 357.664 1042.19 357.654V357.654C1040.55 357.645 1039.23 356.309 1039.24 354.672L1039.27 349.993C1039.28 348.336 1037.94 346.985 1036.28 346.975L1028.05 346.925C1026.4 346.915 1025.06 345.564 1025.07 343.907L1025.29 307.332C1025.3 305.675 1023.97 304.324 1022.31 304.314L986.801 304.1C985.144 304.09 983.809 302.738 983.819 301.082L984.171 242.627C984.181 240.971 982.846 239.619 981.19 239.609L960.505 239.485C958.848 239.475 957.513 238.123 957.523 236.467L957.637 217.631C957.647 215.974 956.312 214.623 954.655 214.613L953.539 214.606C951.882 214.596 950.547 213.245 950.557 211.588L950.682 190.979C950.692 189.322 949.357 187.971 947.7 187.961L925.237 187.825C923.58 187.815 922.229 189.15 922.219 190.807L922.094 211.417C922.084 213.073 920.733 214.408 919.076 214.398L917.96 214.392C916.304 214.382 914.952 215.717 914.942 217.374L914.829 236.209C914.819 237.866 913.468 239.201 911.811 239.191L907.137 239.163C905.48 239.153 904.129 240.488 904.119 242.145L903.546 337.261C903.536 338.918 902.184 340.253 900.528 340.243L899.368 340.236C897.736 340.226 896.404 341.542 896.394 343.175V343.175C896.384 344.808 895.052 346.123 893.42 346.113L888.702 346.085C887.046 346.075 885.711 344.724 885.721 343.067L886.13 275.152C886.14 273.495 884.805 272.144 883.148 272.134L840.489 271.876L807.91 271.68C806.253 271.67 804.902 273.005 804.892 274.662L804.739 300.002C804.729 301.659 803.378 302.994 801.721 302.984L787.559 302.899C785.903 302.889 784.568 301.537 784.578 299.881L785.023 226.052C785.033 224.395 783.698 223.044 782.041 223.034L750.683 222.845C749.026 222.835 747.675 224.17 747.665 225.827L746.863 358.788C746.853 360.444 745.502 361.779 743.845 361.769L739.172 361.741C737.515 361.731 736.18 360.38 736.19 358.723L736.763 263.607C736.773 261.95 735.438 260.599 733.781 260.589L725.55 260.539C723.893 260.529 722.558 259.178 722.568 257.521L722.667 241.051C722.677 239.394 721.342 238.043 719.685 238.033L680.791 237.799C679.587 237.791 678.495 238.505 678.018 239.61L672.431 252.561C672.271 252.931 672.188 253.329 672.185 253.732L671.498 367.795C671.488 369.452 670.137 370.787 668.48 370.777L653.132 370.684C651.476 370.674 650.124 372.009 650.114 373.666L649.859 416.066C649.843 418.736 646.607 420.056 644.728 418.159L643.615 417.036C643.056 416.472 642.296 416.152 641.502 416.148L603.004 415.915C601.371 415.906 600.056 414.574 600.065 412.941V412.941C600.075 411.308 598.76 409.976 597.127 409.967L555.61 409.716L550.308 409.684C548.651 409.674 547.3 411.009 547.29 412.666L547.248 419.675C547.238 421.332 545.886 422.667 544.23 422.657L517.023 422.493C515.366 422.483 514.031 421.132 514.041 419.475L514.047 418.379C514.057 416.722 512.722 415.371 511.066 415.361L498.119 415.283C497.686 415.281 497.258 415.372 496.863 415.55L483.752 421.489C482.685 421.973 481.997 423.033 481.99 424.204L481.927 434.657C481.917 436.313 480.566 437.648 478.909 437.638L470.085 437.585C468.428 437.575 467.093 436.224 467.103 434.567L467.109 433.471C467.119 431.814 465.784 430.463 464.127 430.453L455.896 430.404C454.239 430.394 452.888 431.729 452.878 433.386L452.871 434.481C452.861 436.138 451.51 437.473 449.853 437.463L438.622 437.396L430.948 437.349C429.291 437.339 427.94 438.674 427.93 440.331L427.909 443.793C427.899 445.449 426.548 446.784 424.891 446.774L420.217 446.746C418.56 446.736 417.225 445.385 417.235 443.728L417.256 440.267C417.266 438.61 415.931 437.259 414.274 437.249L335.478 436.774C333.821 436.764 332.47 438.099 332.46 439.756L332.361 456.199C332.351 457.866 333.702 459.222 335.37 459.217L1768.61 454.901C1770.26 454.896 1771.59 453.565 1771.6 451.919L1771.72 432.465C1771.73 430.808 1770.39 429.457 1768.74 429.447L1760.51 429.398C1758.85 429.388 1757.51 428.036 1757.52 426.379L1757.56 419.962C1757.57 418.305 1756.24 416.954 1754.58 416.944L1750.75 416.92C1749.28 416.912 1748.1 415.713 1748.11 414.244V414.244C1748.12 412.774 1746.93 411.575 1745.46 411.567L1738.93 411.527C1737.46 411.518 1736.26 412.702 1736.25 414.172V414.172C1736.24 415.642 1735.04 416.826 1733.57 416.817L1729.75 416.794C1728.09 416.784 1726.74 418.119 1726.73 419.776L1726.69 426.194C1726.68 427.85 1725.33 429.185 1723.67 429.175L1710.7 429.097C1709.04 429.087 1707.7 427.736 1707.71 426.079L1708.28 331.554C1708.29 329.898 1706.96 328.546 1705.3 328.536L1664.69 328.291C1664.13 328.288 1663.58 328.442 1663.1 328.736L1650.96 336.198C1650.08 336.741 1649.54 337.7 1649.53 338.736L1649.08 413.308C1649.07 414.964 1647.72 416.299 1646.07 416.289L1644.95 416.283C1643.29 416.273 1641.96 414.922 1641.97 413.265L1642 408.621C1642.01 406.964 1640.67 405.613 1639.01 405.603L1618.92 405.482C1617.27 405.472 1615.91 406.807 1615.9 408.464L1615.88 413.107C1615.87 414.764 1614.52 416.099 1612.86 416.089L1604.63 416.04C1602.97 416.03 1601.62 417.365 1601.61 419.022L1601.52 434.309C1601.51 435.966 1600.16 437.301 1598.5 437.291L1589.08 437.234C1587.42 437.224 1586.09 435.873 1586.1 434.216L1586.26 408.285C1586.27 406.628 1584.93 405.277 1583.27 405.267L1569.71 405.185C1568.05 405.175 1566.71 403.824 1566.72 402.167L1567.02 353.174C1567.03 351.517 1565.69 350.166 1564.04 350.156L1523.78 349.913C1522.13 349.903 1520.78 351.238 1520.77 352.895L1520.74 357.539C1520.73 359.196 1519.38 360.531 1517.72 360.521L1505.3 360.446L1498.82 360.407C1497.16 360.397 1495.82 359.046 1495.83 357.389L1495.86 352.745C1495.87 351.088 1494.54 349.737 1492.88 349.727L1488.21 349.699C1486.55 349.689 1485.21 348.338 1485.22 346.681L1485.27 339.08C1485.28 337.423 1483.94 336.072 1482.29 336.062L1458.64 335.92C1456.98 335.91 1455.63 337.245 1455.62 338.901L1455.42 372.52C1455.41 374.177 1454.06 375.512 1452.4 375.502L1433.49 375.388C1431.84 375.378 1430.49 376.713 1430.48 378.37L1430.27 411.989C1430.26 413.645 1428.91 414.98 1427.26 414.97L1426.14 414.964C1424.48 414.954 1423.15 413.603 1423.16 411.946L1423.29 390.153C1423.3 388.497 1421.96 387.145 1420.31 387.135L1406.15 387.05C1404.49 387.04 1403.14 388.375 1403.13 390.032L1403.06 401.215C1403.05 402.853 1401.72 404.172 1400.08 404.162V404.162C1398.44 404.153 1397.11 405.472 1397.1 407.109L1396.94 433.076C1396.93 434.733 1395.58 436.068 1393.92 436.058L1385.69 436.008C1384.03 435.998 1382.7 434.647 1382.71 432.99L1382.86 407.059C1382.87 405.402 1381.54 404.051 1379.88 404.041L1378.77 404.034C1377.11 404.024 1375.77 402.673 1375.78 401.016L1375.8 398.146C1375.81 396.489 1374.48 395.138 1372.82 395.128L1363.4 395.071C1361.75 395.061 1360.41 393.71 1360.42 392.053L1360.43 389.775C1360.44 388.118 1359.11 386.767 1357.45 386.757L1343.88 386.675C1342.23 386.665 1340.89 385.314 1340.9 383.657L1341.05 359.456L1334.25 306.194L1328.8 258.696C1328.69 257.687 1328.07 256.805 1327.16 256.352L1290.78 238.223Z" stroke="#C8C8C8" stroke-width="2" stroke-linejoin="round"/>
<path d="M1074.3 287.447H1029.46V415.702H1074.3V287.447Z" fill="#306ED5" stroke="#171717" stroke-width="2" stroke-miterlimit="10"/>
<path d="M1052.03 287.447H1074.23V415.703H1052.03" fill="#306ED5"/>
<path d="M1052.03 287.447H1074.23V415.703H1052.03" stroke="#171717" stroke-width="2" stroke-miterlimit="10"/>
<path d="M1074.23 429.617H1029.46V452.001H1074.23V429.617Z" fill="#306ED5" stroke="#171717" stroke-width="2" stroke-miterlimit="10"/>
<path d="M1052.03 429.617H1074.23V451.925H1052.03" fill="#306ED5"/>
<path d="M1052.03 429.617H1074.23V451.925H1052.03" stroke="#171717" stroke-width="2" stroke-miterlimit="10"/>
<path d="M1029.38 287.447H1016.58V415.627H1029.38V287.447Z" fill="#306ED5" stroke="#171717" stroke-width="2" stroke-miterlimit="10"/>
<path d="M1087.03 287.447H1074.23V415.627H1087.03V287.447Z" fill="#306ED5" stroke="#171717" stroke-width="2" stroke-miterlimit="10"/>
<path d="M1074.3 241.922H1029.46V287.447H1074.3V241.922Z" fill="#306ED5" stroke="#171717" stroke-width="2" stroke-miterlimit="10"/>
<path d="M1064.68 226.117H1039.08V241.922H1064.68V226.117Z" fill="#306ED5" stroke="#171717" stroke-width="2" stroke-miterlimit="10"/>
<path d="M1056.35 215.001H1047.26V226.117H1056.35V215.001Z" fill="#306ED5" stroke="#171717" stroke-width="2" stroke-miterlimit="10"/>
<path d="M1015.44 415.627V451.926H1029.46V429.617H1074.23V451.926H1088.16V415.627H1015.44Z" fill="#306ED5" stroke="#171717" stroke-width="2" stroke-miterlimit="10"/>
<path d="M1153.61 367.077H1087.1V415.702H1153.61V367.077Z" fill="#306ED5" stroke="#171717" stroke-width="2" stroke-miterlimit="10"/>
<path d="M1120.66 367.078H1153.61V415.703H1120.66" fill="#306ED5"/>
<path d="M1120.66 367.078H1153.61V415.703H1120.66" stroke="#171717" stroke-width="2" stroke-miterlimit="10"/>
<path d="M1157.17 367.077L1144.22 348.248H1087.1V367.077H1157.17Z" fill="#306ED5" stroke="#171717" stroke-width="2" stroke-miterlimit="10"/>
<path d="M1109.3 373.959H1100.66V383.714H1109.3V373.959Z" fill="#306ED5" stroke="#171717" stroke-width="2" stroke-miterlimit="10"/>
<path d="M1125.73 373.959H1117.1V383.714H1125.73V373.959Z" fill="#306ED5" stroke="#171717" stroke-width="2" stroke-miterlimit="10"/>
<path d="M1142.17 373.959H1133.54V383.714H1142.17V373.959Z" fill="#306ED5" stroke="#171717" stroke-width="2" stroke-miterlimit="10"/>
<path d="M1109.3 391.428H1100.66V401.183H1109.3V391.428Z" fill="#306ED5" stroke="#171717" stroke-width="2" stroke-miterlimit="10"/>
<path d="M1125.73 391.428H1117.1V401.183H1125.73V391.428Z" fill="#306ED5" stroke="#171717" stroke-width="2" stroke-miterlimit="10"/>
<path d="M1142.17 391.428H1133.54V401.183H1142.17V391.428Z" fill="#306ED5" stroke="#171717" stroke-width="2" stroke-miterlimit="10"/>
<path d="M950.07 415.745H1016.58V367.119H950.07V415.745Z" fill="#306ED5" stroke="#171717" stroke-width="2" stroke-miterlimit="10"/>
<path d="M982.948 367.078H950.073V415.703H982.948" fill="#306ED5"/>
<path d="M982.948 367.078H950.073V415.703H982.948" stroke="#171717" stroke-width="2" stroke-miterlimit="10"/>
<path d="M946.513 367.078L959.466 348.248H1016.58V367.078H946.513Z" fill="#306ED5" stroke="#171717" stroke-width="2" stroke-miterlimit="10"/>
<path d="M994.379 383.678H1003.01V373.923H994.379V383.678Z" fill="#306ED5" stroke="#171717" stroke-width="2" stroke-miterlimit="10"/>
<path d="M977.928 383.678H986.563V373.923H977.928V383.678Z" fill="#306ED5" stroke="#171717" stroke-width="2" stroke-miterlimit="10"/>
<path d="M961.479 383.678H970.114V373.923H961.479V383.678Z" fill="#306ED5" stroke="#171717" stroke-width="2" stroke-miterlimit="10"/>
<path d="M994.38 401.168H1003.02V391.413H994.38V401.168Z" fill="#306ED5" stroke="#171717" stroke-width="2" stroke-miterlimit="10"/>
<path d="M977.929 401.168H986.564V391.413H977.929V401.168Z" fill="#306ED5" stroke="#171717" stroke-width="2" stroke-miterlimit="10"/>
<path d="M961.48 401.168H970.115V391.413H961.48V401.168Z" fill="#306ED5" stroke="#171717" stroke-width="2" stroke-miterlimit="10"/>
<path d="M1178.61 415.627H1088.16V451.926H1178.61V415.627Z" fill="#306ED5" stroke="#171717" stroke-width="2" stroke-miterlimit="10"/>
<path d="M1133.91 415.627H1178.68V451.926H1133.91" fill="#306ED5"/>
<path d="M1133.91 415.627H1178.68V451.926H1133.91" stroke="#171717" stroke-width="2" stroke-miterlimit="10"/>
<path d="M1178.61 415.627H1088.16V429.541H1178.61V415.627Z" fill="#306ED5" stroke="#171717" stroke-width="2" stroke-miterlimit="10"/>
<path d="M1108.92 434.987H1100.28V444.742H1108.92V434.987Z" fill="#306ED5" stroke="#171717" stroke-width="2" stroke-miterlimit="10"/>
<path d="M1127.1 434.986H1118.46V444.742H1127.1V434.986Z" fill="#306ED5" stroke="#171717" stroke-width="2" stroke-miterlimit="10"/>
<path d="M1145.28 434.986H1136.64V444.742H1145.28V434.986Z" fill="#306ED5" stroke="#171717" stroke-width="2" stroke-miterlimit="10"/>
<path d="M1163.46 434.986H1154.82V444.742H1163.46V434.986Z" fill="#306ED5" stroke="#171717" stroke-width="2" stroke-miterlimit="10"/>
<path d="M1096.8 415.628V429.618" stroke="#171717" stroke-width="2" stroke-miterlimit="10"/>
<path d="M1111.42 415.627V429.618" stroke="#171717" stroke-width="2" stroke-miterlimit="10"/>
<path d="M1126.04 415.627V429.618" stroke="#171717" stroke-width="2" stroke-miterlimit="10"/>
<path d="M1140.66 415.627V429.618" stroke="#171717" stroke-width="2" stroke-miterlimit="10"/>
<path d="M1155.28 415.627V429.618" stroke="#171717" stroke-width="2" stroke-miterlimit="10"/>
<path d="M1169.97 415.627V429.618" stroke="#171717" stroke-width="2" stroke-miterlimit="10"/>
<path d="M925.021 451.986H1015.47V415.687H925.021V451.986Z" fill="#306ED5" stroke="#171717" stroke-width="2" stroke-miterlimit="10"/>
<path d="M969.768 415.627H925V451.926H969.768" fill="#306ED5"/>
<path d="M969.768 415.627H925V451.926H969.768" stroke="#171717" stroke-width="2" stroke-miterlimit="10"/>
<path d="M925.021 429.627H1015.47V415.713H925.021V429.627Z" fill="#306ED5" stroke="#171717" stroke-width="2" stroke-miterlimit="10"/>
<path d="M994.719 444.813H1003.35V435.058H994.719V444.813Z" fill="#306ED5" stroke="#171717" stroke-width="2" stroke-miterlimit="10"/>
<path d="M976.535 444.813H985.17V435.058H976.535V444.813Z" fill="#306ED5" stroke="#171717" stroke-width="2" stroke-miterlimit="10"/>
<path d="M958.35 444.813H966.985V435.058H958.35V444.813Z" fill="#306ED5" stroke="#171717" stroke-width="2" stroke-miterlimit="10"/>
<path d="M940.167 444.813H948.803V435.058H940.167V444.813Z" fill="#306ED5" stroke="#171717" stroke-width="2" stroke-miterlimit="10"/>
<path d="M1006.89 415.627V429.618" stroke="#171717" stroke-width="2" stroke-miterlimit="10"/>
<path d="M992.265 415.627V429.618" stroke="#171717" stroke-width="2" stroke-miterlimit="10"/>
<path d="M977.646 415.627V429.618" stroke="#171717" stroke-width="2" stroke-miterlimit="10"/>
<path d="M963.026 415.627V429.618" stroke="#171717" stroke-width="2" stroke-miterlimit="10"/>
<path d="M948.331 415.627V429.618" stroke="#171717" stroke-width="2" stroke-miterlimit="10"/>
<path d="M933.711 415.628V429.618" stroke="#171717" stroke-width="2" stroke-miterlimit="10"/>
<path d="M1041.65 434.986V446.707" stroke="#171717" stroke-width="2" stroke-miterlimit="10"/>
<path d="M1051.81 434.986V446.707" stroke="#171717" stroke-width="2" stroke-miterlimit="10"/>
<path d="M1062.03 434.986V446.707" stroke="#171717" stroke-width="2" stroke-miterlimit="10"/>
<path d="M1039.08 252.056V280.415" stroke="#171717" stroke-width="2" stroke-miterlimit="10"/>
<path d="M1051.8 252.056V280.414" stroke="#171717" stroke-width="2" stroke-miterlimit="10"/>
<path d="M1064.61 252.056V280.414" stroke="#171717" stroke-width="2" stroke-miterlimit="10"/>
<path d="M873.522 461.888C873.551 462.004 873.58 462.116 873.61 462.223L861.166 462.31C861.154 462.205 861.139 462.111 861.128 462.038C861.126 462.024 861.124 462.01 861.122 461.998C861.098 461.841 861.083 461.731 861.083 461.612V461.532L861.071 461.452C858.143 443.389 859.206 422.423 861.549 404.958C862.72 396.232 864.208 388.4 865.669 382.264C866.114 380.392 866.555 378.687 866.982 377.169L868.554 376.145C868.298 394.021 869.026 413.013 870.035 428.59C870.599 437.282 871.25 444.918 871.867 450.711C872.176 453.607 872.477 456.048 872.755 457.933C873.024 459.761 873.282 461.137 873.522 461.888ZM861.184 462.624C861.184 462.626 861.184 462.627 861.184 462.627C861.184 462.628 861.184 462.627 861.184 462.624ZM868.595 373.733L867.87 374.205C868.134 373.382 868.389 372.648 868.632 372.007C868.618 372.581 868.606 373.156 868.595 373.733ZM887.361 388.231L870.779 373.879C870.782 373.833 870.783 373.789 870.783 373.747L871.068 369.288C872.373 368.636 876.469 366.619 881.748 366.666C885.189 366.72 889.14 367.646 893.172 370.367C893.635 370.685 894.098 371.027 894.561 371.395L894.563 371.397C900.953 376.451 907.595 386.35 912.356 405.224L896.259 391.874L895.173 384.369L895.172 384.359L895.17 384.348C895.084 383.833 894.801 383.29 894.266 383.005C893.652 382.677 892.96 382.828 892.484 383.297L887.361 388.231ZM895.348 367.859L894.84 369.09C894.678 368.975 894.516 368.862 894.354 368.752C889.784 365.593 885.27 364.627 881.382 364.663C880.047 364.665 878.786 364.785 877.622 364.976C876.006 365.241 874.576 365.643 873.391 366.059C873.786 365.602 874.229 365.113 874.717 364.607C877.136 362.098 880.633 359.2 885.004 357.521C889.35 355.852 894.588 355.375 900.572 357.73C906.553 360.085 913.361 365.303 920.776 375.17L901.453 373.343L898.153 367.519L898.147 367.509L898.141 367.498C897.857 367.025 897.291 366.571 896.55 366.719C895.89 366.851 895.515 367.386 895.348 367.859ZM866.171 364.022C866.571 364.575 866.93 365.106 867.25 365.601C862.898 363.346 854.856 360.714 845.592 365.588L845.277 364.453C845.257 364.214 845.19 363.954 845.031 363.716C844.824 363.404 844.517 363.217 844.193 363.147C843.617 363.024 843.096 363.278 842.783 363.512L842.676 363.593L842.594 363.699L838.547 368.902L819.174 368.135C827.892 359.414 835.35 355.191 841.589 353.68C847.844 352.164 852.954 353.353 857.012 355.6C861.094 357.86 864.138 361.207 866.171 364.022ZM867.798 368.947C867.058 370.312 866.184 372.713 865.263 375.901L850.347 385.608L845.976 380.003C845.797 379.767 845.544 379.564 845.221 379.465C844.89 379.365 844.559 379.395 844.275 379.509C843.728 379.727 843.394 380.218 843.235 380.696L843.228 380.716L843.222 380.736L841.176 387.851L841.16 387.86L823.274 398.838C830.655 380.784 838.537 371.973 845.586 367.877C845.593 367.873 845.601 367.868 845.608 367.864C845.773 367.832 845.936 367.77 846.092 367.674C852.545 364.147 858.37 364.582 862.6 365.893C864.726 366.551 866.449 367.432 867.638 368.148C867.827 368.261 868.002 368.37 868.162 368.473C868.006 368.611 867.886 368.776 867.798 368.947ZM868.674 369.939C868.674 369.939 868.676 369.942 868.677 369.949C868.674 369.943 868.673 369.939 868.674 369.939ZM819.007 368.338C819.007 368.338 819.006 368.337 819.005 368.334C819.006 368.336 819.007 368.338 819.007 368.338ZM920.849 375.362C920.849 375.362 920.849 375.362 920.85 375.36C920.85 375.362 920.849 375.362 920.849 375.362ZM901.589 373.586C901.589 373.585 901.587 373.583 901.585 373.579C901.588 373.583 901.589 373.586 901.589 373.586Z" fill="#DD1367" stroke="black" stroke-width="2"/>
<path d="M1231.66 461.652L1231.65 461.732V461.812C1231.65 461.869 1231.64 461.933 1231.61 462.123C1231.59 462.227 1231.57 462.358 1231.56 462.51L1219.08 462.422C1219.11 462.346 1219.14 462.266 1219.18 462.184L1219.19 462.159L1219.19 462.134C1219.45 461.375 1219.72 459.971 1220.01 458.104C1220.3 456.209 1220.6 453.759 1220.92 450.856C1221.55 445.05 1222.21 437.407 1222.77 428.715C1223.78 413.145 1224.49 394.184 1224.19 376.355L1225.76 377.377C1226.18 378.881 1226.62 380.569 1227.06 382.422C1228.52 388.553 1230.01 396.388 1231.18 405.12C1233.52 422.598 1234.59 443.589 1231.66 461.652ZM1221.58 369.398L1221.66 369.438L1221.94 373.898L1205.27 388.331L1200.14 383.392L1200.1 383.349L1200.05 383.312C1199.62 382.988 1199.01 382.837 1198.43 383.131C1197.92 383.385 1197.64 383.871 1197.5 384.296L1197.47 384.381L1197.46 384.469L1196.38 391.938C1196.37 391.955 1196.36 391.97 1196.36 391.984L1180.28 405.324C1185.04 386.45 1191.68 376.551 1198.07 371.497L1198.07 371.495C1208.76 363 1219.53 368.323 1221.58 369.398ZM1218.01 364.607C1218.5 365.113 1218.94 365.602 1219.34 366.059C1218.15 365.643 1216.73 365.241 1215.11 364.976C1210.43 364.209 1204.2 364.598 1197.89 369.09L1197.38 367.859C1197.22 367.386 1196.84 366.851 1196.18 366.719C1195.44 366.571 1194.87 367.025 1194.59 367.498L1194.58 367.509L1194.58 367.519L1191.28 373.343L1171.95 375.17C1179.37 365.303 1186.18 360.085 1192.16 357.73C1198.14 355.375 1203.38 355.852 1207.73 357.521C1212.1 359.2 1215.6 362.098 1218.01 364.607ZM1224.87 374.412L1224.15 373.939C1224.13 373.358 1224.12 372.78 1224.1 372.202C1224.35 372.845 1224.61 373.584 1224.87 374.412ZM1224.06 370.139C1224.06 370.139 1224.06 370.143 1224.05 370.149C1224.06 370.142 1224.06 370.139 1224.06 370.139ZM1224.93 369.144C1224.83 368.958 1224.7 368.777 1224.52 368.632C1227.77 366.508 1236.67 361.993 1247.14 368.077C1254.19 372.173 1262.08 380.984 1269.46 399.038L1251.57 388.06L1251.56 388.051L1249.51 380.936L1249.5 380.916L1249.5 380.896C1249.34 380.418 1249 379.927 1248.46 379.709C1248.17 379.595 1247.84 379.565 1247.51 379.665C1247.19 379.764 1246.93 379.967 1246.75 380.203L1242.38 385.808L1227.48 376.109C1226.55 372.908 1225.68 370.501 1224.93 369.144ZM1247.35 364.453L1247.02 365.663C1240.18 362.102 1233.97 362.58 1229.44 363.982C1227.86 364.473 1226.48 365.075 1225.35 365.657C1225.68 365.146 1226.06 364.596 1226.47 364.023C1228.51 361.208 1231.57 357.86 1235.66 355.6C1239.72 353.353 1244.83 352.164 1251.08 353.68C1257.32 355.191 1264.76 359.414 1273.46 368.135L1254.08 368.902L1250.04 363.699L1249.95 363.593L1249.85 363.512C1249.53 363.278 1249.01 363.024 1248.44 363.147C1248.11 363.217 1247.81 363.404 1247.6 363.716C1247.44 363.954 1247.37 364.214 1247.35 364.453ZM1273.62 368.338C1273.62 368.338 1273.62 368.336 1273.63 368.334C1273.62 368.337 1273.62 368.338 1273.62 368.338ZM1269.78 399.835C1269.78 399.835 1269.78 399.834 1269.78 399.832C1269.78 399.834 1269.78 399.835 1269.78 399.835ZM1171.88 375.362C1171.88 375.362 1171.88 375.362 1171.88 375.36C1171.88 375.362 1171.88 375.362 1171.88 375.362Z" fill="#DD1367" stroke="black" stroke-width="2"/>
<path d="M1638.97 169.258H1578.74C1577.94 149.788 1597.7 132.33 1612.39 134.128C1627.08 135.925 1636.6 147.614 1638.97 169.258Z" fill="#C4C4C4"/>
<path d="M1620.11 162.699H1600.03V158.394C1602.3 156.862 1604 156.284 1607.33 155.459V154.089H1613.42V155.459C1615.84 156.001 1617.31 156.671 1620.11 158.394V162.699Z" fill="#D8D8D8"/>
<path d="M1541 187.298V164.544H1562.32V167.414H1578H1593.67V162.904H1625.64V167.414H1639.58H1659.25V164.544H1681.59V187.298H1541Z" fill="#D8D8D8"/>
<path d="M1562.11 164.544H1541.21C1539.73 154.673 1546.33 145.89 1552.89 146.505C1559.45 147.12 1563.22 154.069 1562.11 164.544Z" fill="#C4C4C4"/>
<path d="M1681.39 164.339H1659.27C1657.71 154.485 1664.69 145.716 1671.63 146.33C1678.57 146.944 1682.56 153.882 1681.39 164.339Z" fill="#C4C4C4"/>
<rect y="451" width="2104" height="14" fill="white"/>
</svg>
