<svg width="201" height="200" viewBox="0 0 201 200" fill="none" xmlns="http://www.w3.org/2000/svg">
<path fill-rule="evenodd" clip-rule="evenodd" d="M100.024 15C100.016 15 100.008 15 100 15C53.0558 15 15 53.0558 15 100C15 139.653 42.1524 172.964 78.8789 182.355L75.1551 196.858C21.6618 183.124 -10.569 128.624 3.1658 75.131C14.5185 30.915 54.3739 0 100.024 0V15Z" fill="#EBEBEB"/>
<path fill-rule="evenodd" clip-rule="evenodd" d="M100.024 15C146.957 15.0128 185 53.0637 185 100C185 146.944 146.944 185 100 185C92.7087 185 85.6318 184.082 78.8786 182.355L75.1548 196.858C83.2799 198.944 91.6352 200 100.024 200C155.252 200 200.024 155.228 200.024 100C200.024 44.7715 155.252 0 100.024 0V15Z" fill="#C73462"/>
</svg>
