<svg width="201" height="200" viewBox="0 0 201 200" fill="none" xmlns="http://www.w3.org/2000/svg">
<path fill-rule="evenodd" clip-rule="evenodd" d="M100.003 15C100.002 15 100.001 15 100 15C53.0558 15 15 53.0558 15 100C15 126.353 26.9931 149.906 45.8191 165.497L36.2603 177.051C-6.29397 141.847 -12.2526 78.8119 22.9514 36.2576C41.9489 13.2936 70.1992 0 100.003 0V15Z" fill="#EBEBEB"/>
<path fill-rule="evenodd" clip-rule="evenodd" d="M100.003 15C146.946 15.0017 185 53.0568 185 100C185 146.944 146.944 185 100 185C79.4093 185 60.5287 177.679 45.8194 165.497L36.2607 177.051C54.1909 191.884 76.7327 200 100.003 200C155.232 200 200.003 155.228 200.003 100C200.003 44.7715 155.232 0 100.003 0V15Z" fill="#4D83BE"/>
</svg>
