<svg width="201" height="200" viewBox="0 0 201 200" fill="none" xmlns="http://www.w3.org/2000/svg">
<path fill-rule="evenodd" clip-rule="evenodd" d="M100.013 15C100.008 15 100.004 15 100 15C53.0558 15 15 53.0558 15 100C15 130.189 30.7384 156.703 54.458 171.783L46.4301 184.433C-0.20089 154.84 -14.013 93.0483 15.5799 46.4173C33.9235 17.5124 65.7785 0 100.013 0V15Z" fill="#EBEBEB"/>
<path fill-rule="evenodd" clip-rule="evenodd" d="M100.013 15C146.951 15.0069 185 53.0601 185 100C185 146.944 146.944 185 100 185C83.2451 185 67.6224 180.152 54.4581 171.783L46.4302 184.433C62.4523 194.601 81.0367 200 100.013 200C155.241 200 200.013 155.228 200.013 100C200.013 44.7715 155.241 0 100.013 0V15Z" fill="#DDA343"/>
</svg>
