<svg width="201" height="102" viewBox="0 0 201 102" fill="none" xmlns="http://www.w3.org/2000/svg">
<rect y="62" width="201" height="19" fill="url(#paint0_linear)"/>
<path d="M11.4966 90.848C11.8926 91.46 12.2106 92.162 12.4506 92.954C12.6906 93.734 12.8106 94.532 12.8106 95.348C12.8106 96.32 12.6426 97.244 12.3066 98.12C11.9826 98.996 11.4906 99.71 10.8306 100.262C10.1826 100.814 9.39061 101.09 8.45461 101.09C7.57861 101.09 6.77461 100.868 6.04261 100.424C5.31061 99.968 4.75861 99.44 4.38661 98.84C4.11061 98.396 3.90061 97.898 3.75661 97.346C3.61261 96.782 3.54061 96.218 3.54061 95.654C3.54061 94.67 3.74461 93.71 4.15261 92.774C4.57261 91.838 5.14861 91.088 5.88061 90.524C6.57661 90.008 7.37461 89.75 8.27461 89.75C9.27061 89.75 10.3446 90.116 11.4966 90.848ZM6.67261 92.09C6.56461 92.27 6.45661 92.432 6.34861 92.576C6.08461 92.972 5.89261 93.308 5.77261 93.584C5.65261 93.848 5.54461 94.256 5.44861 94.808C5.40061 95.06 5.37661 95.354 5.37661 95.69C5.37661 96.542 5.54461 97.28 5.88061 97.904C6.22861 98.516 6.70261 98.93 7.30261 99.146C7.59061 99.254 7.91461 99.308 8.27461 99.308C9.17461 99.308 9.85261 98.912 10.3086 98.12C10.7766 97.316 11.0106 96.326 11.0106 95.15C11.0106 94.058 10.8066 93.164 10.3986 92.468C9.99061 91.76 9.36061 91.406 8.50861 91.406C8.16061 91.406 7.86061 91.46 7.60861 91.568C7.36861 91.676 7.05661 91.85 6.67261 92.09ZM25.0364 89.444C25.2044 89.444 25.3304 89.51 25.4144 89.642C25.4984 89.774 25.5404 89.924 25.5404 90.092C25.5404 90.32 25.4444 90.548 25.2524 90.776L24.5504 91.676C23.1824 93.464 22.0844 94.946 21.2564 96.122C20.4284 97.298 19.6304 98.588 18.8624 99.992C18.4904 100.712 18.0644 101.072 17.5844 101.072C17.3684 101.072 17.1764 101.018 17.0084 100.91C16.8404 100.79 16.7564 100.592 16.7564 100.316C16.7564 100.136 16.8104 99.986 16.9184 99.866C17.3144 99.302 18.0224 98.252 19.0424 96.716C20.0024 95.288 20.7944 94.124 21.4184 93.224C22.0544 92.312 22.6724 91.484 23.2724 90.74C23.3204 90.68 23.4344 90.53 23.6144 90.29C23.8064 90.05 24.0224 89.852 24.2624 89.696C24.5024 89.528 24.7604 89.444 25.0364 89.444ZM17.9084 89.642C18.2684 89.642 18.6344 89.726 19.0064 89.894C19.3904 90.062 19.7084 90.302 19.9604 90.614C20.2124 90.914 20.3384 91.25 20.3384 91.622C20.3384 92.15 20.2244 92.63 19.9964 93.062C19.7684 93.494 19.4564 93.836 19.0604 94.088C18.6644 94.328 18.2264 94.448 17.7464 94.448C16.9904 94.448 16.3844 94.226 15.9284 93.782C15.4724 93.326 15.2444 92.732 15.2444 92C15.2444 91.232 15.4784 90.65 15.9464 90.254C16.4264 89.846 17.0804 89.642 17.9084 89.642ZM17.5124 93.08C18.3764 93.08 18.8084 92.618 18.8084 91.694C18.8084 91.466 18.7244 91.298 18.5564 91.19C18.4004 91.082 18.1484 91.028 17.8004 91.028C17.4164 91.028 17.1224 91.13 16.9184 91.334C16.7264 91.526 16.6304 91.748 16.6304 92C16.6304 92.276 16.7144 92.528 16.8824 92.756C17.0504 92.972 17.2604 93.08 17.5124 93.08ZM26.6564 98.48C26.6564 98.948 26.5244 99.368 26.2604 99.74C26.0084 100.1 25.6664 100.382 25.2344 100.586C24.8144 100.79 24.3704 100.892 23.9024 100.892C23.5064 100.892 23.1344 100.796 22.7864 100.604C22.4384 100.4 22.1564 100.124 21.9404 99.776C21.7364 99.428 21.6344 99.038 21.6344 98.606C21.6344 98.162 21.7424 97.742 21.9584 97.346C22.1864 96.95 22.5104 96.632 22.9304 96.392C23.3504 96.14 23.8424 96.014 24.4064 96.014C25.1384 96.014 25.6964 96.23 26.0804 96.662C26.4644 97.082 26.6564 97.688 26.6564 98.48ZM24.2624 97.382C23.9144 97.382 23.6324 97.472 23.4164 97.652C23.2124 97.832 23.1104 98.114 23.1104 98.498C23.1104 98.834 23.1944 99.092 23.3624 99.272C23.5304 99.452 23.7104 99.542 23.9024 99.542C24.8264 99.542 25.2884 99.128 25.2884 98.3C25.2884 98.024 25.1984 97.802 25.0184 97.634C24.8384 97.466 24.5864 97.382 24.2624 97.382Z" fill="black"/>
<path d="M176.798 90.488C176.642 91.22 176.444 91.946 176.204 92.666C175.976 93.386 175.682 94.214 175.322 95.15C174.71 96.794 174.278 98.12 174.026 99.128C173.822 99.812 173.63 100.304 173.45 100.604C173.27 100.904 173.06 101.054 172.82 101.054C172.628 101.054 172.37 100.94 172.046 100.712C171.962 100.604 171.92 100.454 171.92 100.262C171.92 100.106 171.962 99.878 172.046 99.578C172.13 99.266 172.232 98.924 172.352 98.552L172.568 97.904C172.724 97.388 172.988 96.692 173.36 95.816C173.636 95.144 173.882 94.496 174.098 93.872C174.326 93.248 174.548 92.504 174.764 91.64C174.14 91.832 173.522 91.928 172.91 91.928C172.61 91.928 172.154 91.886 171.542 91.802C171.038 91.73 170.678 91.694 170.462 91.694C170.474 91.874 170.564 92.216 170.732 92.72C170.936 93.236 171.038 93.626 171.038 93.89C171.038 94.046 170.984 94.178 170.876 94.286C170.768 94.394 170.594 94.448 170.354 94.448C170.042 94.448 169.802 94.352 169.634 94.16C169.478 93.956 169.346 93.728 169.238 93.476C169.142 93.212 169.07 93.032 169.022 92.936C168.854 92.552 168.722 92.156 168.626 91.748C168.53 91.328 168.482 90.956 168.482 90.632C168.482 90.44 168.53 90.272 168.626 90.128C168.734 89.984 168.854 89.912 168.986 89.912C169.166 89.936 169.436 89.984 169.796 90.056C170.372 90.152 170.852 90.23 171.236 90.29C171.632 90.338 172.052 90.362 172.496 90.362C173.588 90.362 174.428 90.17 175.016 89.786C175.1 89.738 175.226 89.714 175.394 89.714C175.706 89.714 176.018 89.792 176.33 89.948C176.642 90.092 176.798 90.272 176.798 90.488ZM181.444 91.568C181.36 91.904 181.306 92.348 181.282 92.9C181.258 93.38 181.222 93.74 181.174 93.98C181.522 93.836 181.852 93.746 182.164 93.71C182.476 93.662 182.872 93.638 183.352 93.638C184.096 93.638 184.744 93.812 185.296 94.16C185.848 94.496 186.268 94.952 186.556 95.528C186.844 96.092 186.988 96.698 186.988 97.346C186.988 97.598 186.904 97.94 186.736 98.372C186.568 98.792 186.394 99.116 186.214 99.344C185.794 99.896 185.308 100.322 184.756 100.622C184.204 100.91 183.604 101.054 182.956 101.054C182.464 101.054 182.014 100.988 181.606 100.856C181.21 100.712 180.784 100.52 180.328 100.28C179.86 100.028 179.518 99.77 179.302 99.506C179.098 99.23 178.996 98.888 178.996 98.48C178.996 98.264 179.086 98.09 179.266 97.958C179.458 97.814 179.638 97.742 179.806 97.742C179.914 97.742 180.01 97.772 180.094 97.832C180.178 97.892 180.316 98.012 180.508 98.192L180.958 98.624C181.246 98.864 181.528 99.044 181.804 99.164C182.092 99.284 182.44 99.344 182.848 99.344C183.22 99.344 183.52 99.296 183.748 99.2C184.204 99.02 184.558 98.786 184.81 98.498C185.074 98.21 185.206 97.748 185.206 97.112C185.206 96.5 185.002 96.026 184.594 95.69C184.186 95.342 183.496 95.168 182.524 95.168C182.392 95.168 182.2 95.204 181.948 95.276C181.696 95.348 181.45 95.426 181.21 95.51C180.634 95.702 180.28 95.798 180.148 95.798C179.98 95.798 179.812 95.726 179.644 95.582C179.476 95.438 179.392 95.246 179.392 95.006C179.608 93.554 179.716 92.348 179.716 91.388L179.698 90.938C179.674 90.722 179.662 90.542 179.662 90.398C179.662 90.182 179.776 90.02 180.004 89.912C180.244 89.792 180.49 89.732 180.742 89.732C180.958 89.732 181.426 89.768 182.146 89.84L183.01 89.912C183.118 89.924 183.28 89.93 183.496 89.93L184.162 89.912C184.294 89.9 184.486 89.894 184.738 89.894C185.098 89.894 185.398 89.948 185.638 90.056C185.878 90.164 185.998 90.338 185.998 90.578C185.998 90.95 185.938 91.22 185.818 91.388C185.698 91.556 185.56 91.64 185.404 91.64C185.26 91.64 185.02 91.616 184.684 91.568C184.24 91.52 183.718 91.496 183.118 91.496C182.698 91.496 182.14 91.52 181.444 91.568ZM198.731 89.444C198.899 89.444 199.025 89.51 199.109 89.642C199.193 89.774 199.235 89.924 199.235 90.092C199.235 90.32 199.139 90.548 198.947 90.776L198.245 91.676C196.877 93.464 195.779 94.946 194.951 96.122C194.123 97.298 193.325 98.588 192.557 99.992C192.185 100.712 191.759 101.072 191.279 101.072C191.063 101.072 190.871 101.018 190.703 100.91C190.535 100.79 190.451 100.592 190.451 100.316C190.451 100.136 190.505 99.986 190.613 99.866C191.009 99.302 191.717 98.252 192.737 96.716C193.697 95.288 194.489 94.124 195.113 93.224C195.749 92.312 196.367 91.484 196.967 90.74C197.015 90.68 197.129 90.53 197.309 90.29C197.501 90.05 197.717 89.852 197.957 89.696C198.197 89.528 198.455 89.444 198.731 89.444ZM191.603 89.642C191.963 89.642 192.329 89.726 192.701 89.894C193.085 90.062 193.403 90.302 193.655 90.614C193.907 90.914 194.033 91.25 194.033 91.622C194.033 92.15 193.919 92.63 193.691 93.062C193.463 93.494 193.151 93.836 192.755 94.088C192.359 94.328 191.921 94.448 191.441 94.448C190.685 94.448 190.079 94.226 189.623 93.782C189.167 93.326 188.939 92.732 188.939 92C188.939 91.232 189.173 90.65 189.641 90.254C190.121 89.846 190.775 89.642 191.603 89.642ZM191.207 93.08C192.071 93.08 192.503 92.618 192.503 91.694C192.503 91.466 192.419 91.298 192.251 91.19C192.095 91.082 191.843 91.028 191.495 91.028C191.111 91.028 190.817 91.13 190.613 91.334C190.421 91.526 190.325 91.748 190.325 92C190.325 92.276 190.409 92.528 190.577 92.756C190.745 92.972 190.955 93.08 191.207 93.08ZM200.351 98.48C200.351 98.948 200.219 99.368 199.955 99.74C199.703 100.1 199.361 100.382 198.929 100.586C198.509 100.79 198.065 100.892 197.597 100.892C197.201 100.892 196.829 100.796 196.481 100.604C196.133 100.4 195.851 100.124 195.635 99.776C195.431 99.428 195.329 99.038 195.329 98.606C195.329 98.162 195.437 97.742 195.653 97.346C195.881 96.95 196.205 96.632 196.625 96.392C197.045 96.14 197.537 96.014 198.101 96.014C198.833 96.014 199.391 96.23 199.775 96.662C200.159 97.082 200.351 97.688 200.351 98.48ZM197.957 97.382C197.609 97.382 197.327 97.472 197.111 97.652C196.907 97.832 196.805 98.114 196.805 98.498C196.805 98.834 196.889 99.092 197.057 99.272C197.225 99.452 197.405 99.542 197.597 99.542C198.521 99.542 198.983 99.128 198.983 98.3C198.983 98.024 198.893 97.802 198.713 97.634C198.533 97.466 198.281 97.382 197.957 97.382Z" fill="black"/>
<path d="M5.214 11.404C5.382 11.608 5.564 11.752 5.76 11.836C5.96 11.92 6.176 11.962 6.408 11.962C6.632 11.962 6.834 11.92 7.014 11.836C7.194 11.752 7.346 11.624 7.47 11.452C7.598 11.28 7.696 11.064 7.764 10.804C7.832 10.54 7.866 10.23 7.866 9.874C7.866 9.514 7.836 9.21 7.776 8.962C7.72 8.71 7.638 8.506 7.53 8.35C7.422 8.194 7.29 8.08 7.134 8.008C6.982 7.936 6.808 7.9 6.612 7.9C6.304 7.9 6.042 7.966 5.826 8.098C5.61 8.226 5.406 8.408 5.214 8.644V11.404ZM5.136 7.684C5.388 7.4 5.674 7.17 5.994 6.994C6.314 6.818 6.69 6.73 7.122 6.73C7.458 6.73 7.764 6.8 8.04 6.94C8.32 7.08 8.56 7.284 8.76 7.552C8.964 7.816 9.12 8.144 9.228 8.536C9.34 8.924 9.396 9.37 9.396 9.874C9.396 10.334 9.334 10.76 9.21 11.152C9.086 11.544 8.908 11.884 8.676 12.172C8.448 12.46 8.17 12.686 7.842 12.85C7.518 13.01 7.154 13.09 6.75 13.09C6.406 13.09 6.112 13.038 5.868 12.934C5.624 12.826 5.406 12.678 5.214 12.49V15.01H3.732V6.844H4.638C4.83 6.844 4.956 6.934 5.016 7.114L5.136 7.684ZM14.8783 9.214C14.8783 9.022 14.8503 8.842 14.7943 8.674C14.7423 8.502 14.6623 8.352 14.5543 8.224C14.4463 8.096 14.3083 7.996 14.1403 7.924C13.9763 7.848 13.7843 7.81 13.5643 7.81C13.1363 7.81 12.7983 7.932 12.5503 8.176C12.3063 8.42 12.1503 8.766 12.0823 9.214H14.8783ZM12.0523 10.108C12.0763 10.424 12.1323 10.698 12.2203 10.93C12.3083 11.158 12.4243 11.348 12.5683 11.5C12.7123 11.648 12.8823 11.76 13.0783 11.836C13.2783 11.908 13.4983 11.944 13.7383 11.944C13.9783 11.944 14.1843 11.916 14.3563 11.86C14.5323 11.804 14.6843 11.742 14.8123 11.674C14.9443 11.606 15.0583 11.544 15.1543 11.488C15.2543 11.432 15.3503 11.404 15.4423 11.404C15.5663 11.404 15.6583 11.45 15.7183 11.542L16.1443 12.082C15.9803 12.274 15.7963 12.436 15.5923 12.568C15.3883 12.696 15.1743 12.8 14.9503 12.88C14.7303 12.956 14.5043 13.01 14.2723 13.042C14.0443 13.074 13.8223 13.09 13.6063 13.09C13.1783 13.09 12.7803 13.02 12.4123 12.88C12.0443 12.736 11.7243 12.526 11.4523 12.25C11.1803 11.97 10.9663 11.626 10.8103 11.218C10.6543 10.806 10.5763 10.33 10.5763 9.79C10.5763 9.37 10.6443 8.976 10.7803 8.608C10.9163 8.236 11.1103 7.914 11.3623 7.642C11.6183 7.366 11.9283 7.148 12.2923 6.988C12.6603 6.828 13.0743 6.748 13.5343 6.748C13.9223 6.748 14.2803 6.81 14.6083 6.934C14.9363 7.058 15.2183 7.24 15.4543 7.48C15.6903 7.716 15.8743 8.008 16.0063 8.356C16.1423 8.7 16.2103 9.094 16.2103 9.538C16.2103 9.762 16.1863 9.914 16.1383 9.994C16.0903 10.07 15.9983 10.108 15.8623 10.108H12.0523ZM19.0805 7.912C19.2725 7.544 19.5005 7.256 19.7645 7.048C20.0285 6.836 20.3405 6.73 20.7005 6.73C20.9845 6.73 21.2125 6.792 21.3845 6.916L21.2885 8.026C21.2685 8.098 21.2385 8.15 21.1985 8.182C21.1625 8.21 21.1125 8.224 21.0485 8.224C20.9885 8.224 20.8985 8.214 20.7785 8.194C20.6625 8.174 20.5485 8.164 20.4365 8.164C20.2725 8.164 20.1265 8.188 19.9985 8.236C19.8705 8.284 19.7545 8.354 19.6505 8.446C19.5505 8.534 19.4605 8.642 19.3805 8.77C19.3045 8.898 19.2325 9.044 19.1645 9.208V13H17.6825V6.844H18.5525C18.7045 6.844 18.8105 6.872 18.8705 6.928C18.9305 6.98 18.9705 7.076 18.9905 7.216L19.0805 7.912ZM26.7533 8.146C26.7093 8.202 26.6653 8.246 26.6213 8.278C26.5813 8.31 26.5213 8.326 26.4413 8.326C26.3653 8.326 26.2912 8.304 26.2192 8.26C26.1473 8.212 26.0613 8.16 25.9613 8.104C25.8613 8.044 25.7413 7.992 25.6013 7.948C25.4653 7.9 25.2953 7.876 25.0913 7.876C24.8313 7.876 24.6033 7.924 24.4073 8.02C24.2113 8.112 24.0473 8.246 23.9152 8.422C23.7873 8.598 23.6913 8.812 23.6273 9.064C23.5633 9.312 23.5313 9.594 23.5313 9.91C23.5313 10.238 23.5653 10.53 23.6332 10.786C23.7053 11.042 23.8073 11.258 23.9392 11.434C24.0713 11.606 24.2313 11.738 24.4193 11.83C24.6073 11.918 24.8193 11.962 25.0552 11.962C25.2912 11.962 25.4813 11.934 25.6253 11.878C25.7733 11.818 25.8973 11.754 25.9972 11.686C26.0973 11.614 26.1833 11.55 26.2553 11.494C26.3313 11.434 26.4153 11.404 26.5073 11.404C26.6273 11.404 26.7173 11.45 26.7773 11.542L27.2033 12.082C27.0393 12.274 26.8613 12.436 26.6693 12.568C26.4773 12.696 26.2773 12.8 26.0693 12.88C25.8653 12.956 25.6533 13.01 25.4333 13.042C25.2172 13.074 25.0013 13.09 24.7853 13.09C24.4053 13.09 24.0473 13.02 23.7113 12.88C23.3752 12.736 23.0812 12.528 22.8292 12.256C22.5772 11.984 22.3772 11.652 22.2292 11.26C22.0852 10.864 22.0132 10.414 22.0132 9.91C22.0132 9.458 22.0772 9.04 22.2052 8.656C22.3372 8.268 22.5292 7.934 22.7812 7.654C23.0333 7.37 23.3453 7.148 23.7172 6.988C24.0893 6.828 24.5173 6.748 25.0012 6.748C25.4612 6.748 25.8633 6.822 26.2073 6.97C26.5553 7.118 26.8673 7.33 27.1433 7.606L26.7533 8.146ZM32.3528 9.214C32.3528 9.022 32.3248 8.842 32.2688 8.674C32.2168 8.502 32.1368 8.352 32.0288 8.224C31.9208 8.096 31.7828 7.996 31.6148 7.924C31.4508 7.848 31.2588 7.81 31.0388 7.81C30.6108 7.81 30.2728 7.932 30.0248 8.176C29.7808 8.42 29.6248 8.766 29.5568 9.214H32.3528ZM29.5268 10.108C29.5508 10.424 29.6068 10.698 29.6948 10.93C29.7828 11.158 29.8988 11.348 30.0428 11.5C30.1868 11.648 30.3568 11.76 30.5528 11.836C30.7528 11.908 30.9728 11.944 31.2128 11.944C31.4528 11.944 31.6588 11.916 31.8308 11.86C32.0068 11.804 32.1588 11.742 32.2868 11.674C32.4188 11.606 32.5328 11.544 32.6288 11.488C32.7288 11.432 32.8248 11.404 32.9168 11.404C33.0408 11.404 33.1328 11.45 33.1928 11.542L33.6188 12.082C33.4548 12.274 33.2708 12.436 33.0668 12.568C32.8628 12.696 32.6488 12.8 32.4248 12.88C32.2048 12.956 31.9788 13.01 31.7468 13.042C31.5188 13.074 31.2968 13.09 31.0808 13.09C30.6528 13.09 30.2548 13.02 29.8868 12.88C29.5188 12.736 29.1988 12.526 28.9268 12.25C28.6548 11.97 28.4408 11.626 28.2848 11.218C28.1288 10.806 28.0508 10.33 28.0508 9.79C28.0508 9.37 28.1188 8.976 28.2548 8.608C28.3908 8.236 28.5848 7.914 28.8368 7.642C29.0928 7.366 29.4028 7.148 29.7668 6.988C30.1348 6.828 30.5488 6.748 31.0088 6.748C31.3968 6.748 31.7548 6.81 32.0828 6.934C32.4108 7.058 32.6928 7.24 32.9288 7.48C33.1648 7.716 33.3488 8.008 33.4808 8.356C33.6168 8.7 33.6848 9.094 33.6848 9.538C33.6848 9.762 33.6608 9.914 33.6128 9.994C33.5648 10.07 33.4728 10.108 33.3368 10.108H29.5268ZM36.543 7.6C36.667 7.476 36.797 7.362 36.933 7.258C37.073 7.15 37.219 7.06 37.371 6.988C37.527 6.912 37.693 6.854 37.869 6.814C38.045 6.77 38.237 6.748 38.445 6.748C38.781 6.748 39.079 6.806 39.339 6.922C39.599 7.034 39.815 7.194 39.987 7.402C40.163 7.606 40.295 7.852 40.383 8.14C40.475 8.424 40.521 8.738 40.521 9.082V13H39.039V9.082C39.039 8.706 38.953 8.416 38.781 8.212C38.609 8.004 38.347 7.9 37.995 7.9C37.739 7.9 37.499 7.958 37.275 8.074C37.051 8.19 36.839 8.348 36.639 8.548V13H35.157V6.844H36.063C36.255 6.844 36.381 6.934 36.441 7.114L36.543 7.6ZM44.2604 13.096C43.7244 13.096 43.3124 12.946 43.0244 12.646C42.7404 12.342 42.5984 11.924 42.5984 11.392V7.954H41.9684C41.8884 7.954 41.8204 7.928 41.7644 7.876C41.7084 7.824 41.6804 7.746 41.6804 7.642V7.054L42.6704 6.892L42.9824 5.212C43.0024 5.132 43.0404 5.07 43.0964 5.026C43.1524 4.982 43.2244 4.96 43.3124 4.96H44.0804V6.898H45.7244V7.954H44.0804V11.29C44.0804 11.482 44.1264 11.632 44.2184 11.74C44.3144 11.848 44.4444 11.902 44.6084 11.902C44.7004 11.902 44.7764 11.892 44.8364 11.872C44.9004 11.848 44.9544 11.824 44.9984 11.8C45.0464 11.776 45.0884 11.754 45.1244 11.734C45.1604 11.71 45.1964 11.698 45.2324 11.698C45.2764 11.698 45.3124 11.71 45.3404 11.734C45.3684 11.754 45.3984 11.786 45.4304 11.83L45.8744 12.55C45.6584 12.73 45.4104 12.866 45.1304 12.958C44.8504 13.05 44.5604 13.096 44.2604 13.096ZM53.0352 6.748C53.4912 6.748 53.9052 6.822 54.2772 6.97C54.6532 7.118 54.9732 7.328 55.2372 7.6C55.5052 7.872 55.7112 8.204 55.8552 8.596C55.9992 8.988 56.0712 9.426 56.0712 9.91C56.0712 10.398 55.9992 10.838 55.8552 11.23C55.7112 11.622 55.5052 11.956 55.2372 12.232C54.9732 12.508 54.6532 12.72 54.2772 12.868C53.9052 13.016 53.4912 13.09 53.0352 13.09C52.5752 13.09 52.1572 13.016 51.7812 12.868C51.4052 12.72 51.0832 12.508 50.8152 12.232C50.5512 11.956 50.3452 11.622 50.1972 11.23C50.0532 10.838 49.9812 10.398 49.9812 9.91C49.9812 9.426 50.0532 8.988 50.1972 8.596C50.3452 8.204 50.5512 7.872 50.8152 7.6C51.0832 7.328 51.4052 7.118 51.7812 6.97C52.1572 6.822 52.5752 6.748 53.0352 6.748ZM53.0352 11.95C53.5472 11.95 53.9252 11.778 54.1692 11.434C54.4172 11.09 54.5412 10.586 54.5412 9.922C54.5412 9.258 54.4172 8.752 54.1692 8.404C53.9252 8.056 53.5472 7.882 53.0352 7.882C52.5152 7.882 52.1292 8.058 51.8772 8.41C51.6292 8.758 51.5052 9.262 51.5052 9.922C51.5052 10.582 51.6292 11.086 51.8772 11.434C52.1292 11.778 52.5152 11.95 53.0352 11.95ZM57.8415 13V7.96L57.3075 7.876C57.1915 7.852 57.0975 7.812 57.0255 7.756C56.9575 7.696 56.9235 7.612 56.9235 7.504V6.898H57.8415V6.442C57.8415 6.09 57.8935 5.774 57.9975 5.494C58.1055 5.214 58.2575 4.976 58.4535 4.78C58.6535 4.584 58.8955 4.434 59.1795 4.33C59.4635 4.226 59.7835 4.174 60.1395 4.174C60.4235 4.174 60.6875 4.212 60.9315 4.288L60.9015 5.032C60.8975 5.088 60.8815 5.134 60.8535 5.17C60.8255 5.202 60.7875 5.228 60.7395 5.248C60.6955 5.264 60.6435 5.276 60.5835 5.284C60.5235 5.288 60.4595 5.29 60.3915 5.29C60.2155 5.29 60.0575 5.31 59.9175 5.35C59.7815 5.386 59.6655 5.452 59.5695 5.548C59.4735 5.64 59.3995 5.764 59.3475 5.92C59.2995 6.072 59.2755 6.262 59.2755 6.49V6.898H60.8775V7.954H59.3235V13H57.8415ZM67.1776 13.096C66.6416 13.096 66.2296 12.946 65.9416 12.646C65.6576 12.342 65.5156 11.924 65.5156 11.392V7.954H64.8856C64.8056 7.954 64.7376 7.928 64.6816 7.876C64.6256 7.824 64.5976 7.746 64.5976 7.642V7.054L65.5876 6.892L65.8996 5.212C65.9196 5.132 65.9576 5.07 66.0136 5.026C66.0696 4.982 66.1416 4.96 66.2296 4.96H66.9976V6.898H68.6416V7.954H66.9976V11.29C66.9976 11.482 67.0436 11.632 67.1356 11.74C67.2316 11.848 67.3616 11.902 67.5256 11.902C67.6176 11.902 67.6936 11.892 67.7536 11.872C67.8176 11.848 67.8716 11.824 67.9156 11.8C67.9636 11.776 68.0056 11.754 68.0416 11.734C68.0776 11.71 68.1136 11.698 68.1496 11.698C68.1936 11.698 68.2296 11.71 68.2576 11.734C68.2856 11.754 68.3156 11.786 68.3476 11.83L68.7916 12.55C68.5756 12.73 68.3276 12.866 68.0476 12.958C67.7676 13.05 67.4776 13.096 67.1776 13.096ZM71.4324 7.504C71.6724 7.28 71.9364 7.098 72.2244 6.958C72.5124 6.818 72.8504 6.748 73.2384 6.748C73.5744 6.748 73.8724 6.806 74.1324 6.922C74.3924 7.034 74.6084 7.194 74.7804 7.402C74.9564 7.606 75.0884 7.852 75.1764 8.14C75.2684 8.424 75.3144 8.738 75.3144 9.082V13H73.8324V9.082C73.8324 8.706 73.7464 8.416 73.5744 8.212C73.4024 8.004 73.1404 7.9 72.7884 7.9C72.5324 7.9 72.2924 7.958 72.0684 8.074C71.8444 8.19 71.6324 8.348 71.4324 8.548V13H69.9504V4.084H71.4324V7.504ZM81.0499 9.214C81.0499 9.022 81.0219 8.842 80.9659 8.674C80.9139 8.502 80.8339 8.352 80.7259 8.224C80.6179 8.096 80.4799 7.996 80.3119 7.924C80.1479 7.848 79.9559 7.81 79.7359 7.81C79.3079 7.81 78.9699 7.932 78.7219 8.176C78.4779 8.42 78.3219 8.766 78.2539 9.214H81.0499ZM78.2239 10.108C78.2479 10.424 78.3039 10.698 78.3919 10.93C78.4799 11.158 78.5959 11.348 78.7399 11.5C78.8839 11.648 79.0539 11.76 79.2499 11.836C79.4499 11.908 79.6699 11.944 79.9099 11.944C80.1499 11.944 80.3559 11.916 80.5279 11.86C80.7039 11.804 80.8559 11.742 80.9839 11.674C81.1159 11.606 81.2299 11.544 81.3259 11.488C81.4259 11.432 81.5219 11.404 81.6139 11.404C81.7379 11.404 81.8299 11.45 81.8899 11.542L82.3159 12.082C82.1519 12.274 81.9679 12.436 81.7639 12.568C81.5599 12.696 81.3459 12.8 81.1219 12.88C80.9019 12.956 80.6759 13.01 80.4439 13.042C80.2159 13.074 79.9939 13.09 79.7779 13.09C79.3499 13.09 78.9519 13.02 78.5839 12.88C78.2159 12.736 77.8959 12.526 77.6239 12.25C77.3519 11.97 77.1379 11.626 76.9819 11.218C76.8259 10.806 76.7479 10.33 76.7479 9.79C76.7479 9.37 76.8159 8.976 76.9519 8.608C77.0879 8.236 77.2819 7.914 77.5339 7.642C77.7899 7.366 78.0999 7.148 78.4639 6.988C78.8319 6.828 79.2459 6.748 79.7059 6.748C80.0939 6.748 80.4519 6.81 80.7799 6.934C81.1079 7.058 81.3899 7.24 81.6259 7.48C81.8619 7.716 82.0459 8.008 82.1779 8.356C82.3139 8.7 82.3819 9.094 82.3819 9.538C82.3819 9.762 82.3579 9.914 82.3099 9.994C82.2619 10.07 82.1699 10.108 82.0339 10.108H78.2239ZM88.614 11.404C88.782 11.608 88.964 11.752 89.16 11.836C89.36 11.92 89.576 11.962 89.808 11.962C90.032 11.962 90.234 11.92 90.414 11.836C90.594 11.752 90.746 11.624 90.87 11.452C90.998 11.28 91.096 11.064 91.164 10.804C91.232 10.54 91.266 10.23 91.266 9.874C91.266 9.514 91.236 9.21 91.176 8.962C91.12 8.71 91.038 8.506 90.93 8.35C90.822 8.194 90.69 8.08 90.534 8.008C90.382 7.936 90.208 7.9 90.012 7.9C89.704 7.9 89.442 7.966 89.226 8.098C89.01 8.226 88.806 8.408 88.614 8.644V11.404ZM88.536 7.684C88.788 7.4 89.074 7.17 89.394 6.994C89.714 6.818 90.09 6.73 90.522 6.73C90.858 6.73 91.164 6.8 91.44 6.94C91.72 7.08 91.96 7.284 92.16 7.552C92.364 7.816 92.52 8.144 92.628 8.536C92.74 8.924 92.796 9.37 92.796 9.874C92.796 10.334 92.734 10.76 92.61 11.152C92.486 11.544 92.308 11.884 92.076 12.172C91.848 12.46 91.57 12.686 91.242 12.85C90.918 13.01 90.554 13.09 90.15 13.09C89.806 13.09 89.512 13.038 89.268 12.934C89.024 12.826 88.806 12.678 88.614 12.49V15.01H87.132V6.844H88.038C88.23 6.844 88.356 6.934 88.416 7.114L88.536 7.684ZM97.0363 6.748C97.4923 6.748 97.9063 6.822 98.2783 6.97C98.6543 7.118 98.9743 7.328 99.2383 7.6C99.5063 7.872 99.7123 8.204 99.8563 8.596C100 8.988 100.072 9.426 100.072 9.91C100.072 10.398 100 10.838 99.8563 11.23C99.7123 11.622 99.5063 11.956 99.2383 12.232C98.9743 12.508 98.6543 12.72 98.2783 12.868C97.9063 13.016 97.4923 13.09 97.0363 13.09C96.5763 13.09 96.1583 13.016 95.7823 12.868C95.4063 12.72 95.0843 12.508 94.8163 12.232C94.5523 11.956 94.3463 11.622 94.1983 11.23C94.0543 10.838 93.9823 10.398 93.9823 9.91C93.9823 9.426 94.0543 8.988 94.1983 8.596C94.3463 8.204 94.5523 7.872 94.8163 7.6C95.0843 7.328 95.4063 7.118 95.7823 6.97C96.1583 6.822 96.5763 6.748 97.0363 6.748ZM97.0363 11.95C97.5483 11.95 97.9263 11.778 98.1703 11.434C98.4183 11.09 98.5423 10.586 98.5423 9.922C98.5423 9.258 98.4183 8.752 98.1703 8.404C97.9263 8.056 97.5483 7.882 97.0363 7.882C96.5163 7.882 96.1303 8.058 95.8783 8.41C95.6303 8.758 95.5063 9.262 95.5063 9.922C95.5063 10.582 95.6303 11.086 95.8783 11.434C96.1303 11.778 96.5163 11.95 97.0363 11.95ZM103.045 11.404C103.213 11.608 103.395 11.752 103.591 11.836C103.791 11.92 104.007 11.962 104.239 11.962C104.463 11.962 104.665 11.92 104.845 11.836C105.025 11.752 105.177 11.624 105.301 11.452C105.429 11.28 105.527 11.064 105.595 10.804C105.663 10.54 105.697 10.23 105.697 9.874C105.697 9.514 105.667 9.21 105.607 8.962C105.551 8.71 105.469 8.506 105.361 8.35C105.253 8.194 105.121 8.08 104.965 8.008C104.813 7.936 104.639 7.9 104.443 7.9C104.135 7.9 103.873 7.966 103.657 8.098C103.441 8.226 103.237 8.408 103.045 8.644V11.404ZM102.967 7.684C103.219 7.4 103.505 7.17 103.825 6.994C104.145 6.818 104.521 6.73 104.953 6.73C105.289 6.73 105.595 6.8 105.871 6.94C106.151 7.08 106.391 7.284 106.591 7.552C106.795 7.816 106.951 8.144 107.059 8.536C107.171 8.924 107.227 9.37 107.227 9.874C107.227 10.334 107.165 10.76 107.041 11.152C106.917 11.544 106.739 11.884 106.507 12.172C106.279 12.46 106.001 12.686 105.673 12.85C105.349 13.01 104.985 13.09 104.581 13.09C104.237 13.09 103.943 13.038 103.699 12.934C103.455 12.826 103.237 12.678 103.045 12.49V15.01H101.563V6.844H102.469C102.661 6.844 102.787 6.934 102.847 7.114L102.967 7.684ZM114.047 6.844V13H113.141C112.945 13 112.821 12.91 112.769 12.73L112.667 12.238C112.415 12.494 112.137 12.702 111.833 12.862C111.529 13.018 111.171 13.096 110.759 13.096C110.423 13.096 110.125 13.04 109.865 12.928C109.609 12.812 109.393 12.65 109.217 12.442C109.041 12.234 108.907 11.988 108.815 11.704C108.727 11.416 108.683 11.1 108.683 10.756V6.844H110.165V10.756C110.165 11.132 110.251 11.424 110.423 11.632C110.599 11.836 110.861 11.938 111.209 11.938C111.465 11.938 111.705 11.882 111.929 11.77C112.153 11.654 112.365 11.496 112.565 11.296V6.844H114.047ZM117.377 4.084V13H115.895V4.084H117.377ZM122.465 10.372C122.037 10.392 121.677 10.43 121.385 10.486C121.093 10.538 120.859 10.606 120.683 10.69C120.507 10.774 120.381 10.872 120.305 10.984C120.229 11.096 120.191 11.218 120.191 11.35C120.191 11.61 120.267 11.796 120.419 11.908C120.575 12.02 120.777 12.076 121.025 12.076C121.329 12.076 121.591 12.022 121.811 11.914C122.035 11.802 122.253 11.634 122.465 11.41V10.372ZM119.069 7.702C119.777 7.054 120.629 6.73 121.625 6.73C121.985 6.73 122.307 6.79 122.591 6.91C122.875 7.026 123.115 7.19 123.311 7.402C123.507 7.61 123.655 7.86 123.755 8.152C123.859 8.444 123.911 8.764 123.911 9.112V13H123.239C123.099 13 122.991 12.98 122.915 12.94C122.839 12.896 122.779 12.81 122.735 12.682L122.603 12.238C122.447 12.378 122.295 12.502 122.147 12.61C121.999 12.714 121.845 12.802 121.685 12.874C121.525 12.946 121.353 13 121.169 13.036C120.989 13.076 120.789 13.096 120.569 13.096C120.309 13.096 120.069 13.062 119.849 12.994C119.629 12.922 119.439 12.816 119.279 12.676C119.119 12.536 118.995 12.362 118.907 12.154C118.819 11.946 118.775 11.704 118.775 11.428C118.775 11.272 118.801 11.118 118.853 10.966C118.905 10.81 118.989 10.662 119.105 10.522C119.225 10.382 119.379 10.25 119.567 10.126C119.755 10.002 119.985 9.894 120.257 9.802C120.533 9.71 120.853 9.636 121.217 9.58C121.581 9.52 121.997 9.484 122.465 9.472V9.112C122.465 8.7 122.377 8.396 122.201 8.2C122.025 8 121.771 7.9 121.439 7.9C121.199 7.9 120.999 7.928 120.839 7.984C120.683 8.04 120.545 8.104 120.425 8.176C120.305 8.244 120.195 8.306 120.095 8.362C119.999 8.418 119.891 8.446 119.771 8.446C119.667 8.446 119.579 8.42 119.507 8.368C119.435 8.312 119.377 8.248 119.333 8.176L119.069 7.702ZM131.795 13H130.313V7.954H127.457V11.29C127.457 11.482 127.503 11.632 127.595 11.74C127.691 11.848 127.821 11.902 127.985 11.902C128.077 11.902 128.153 11.892 128.213 11.872C128.277 11.848 128.331 11.824 128.375 11.8C128.423 11.776 128.465 11.754 128.501 11.734C128.537 11.71 128.573 11.698 128.609 11.698C128.653 11.698 128.689 11.71 128.717 11.734C128.745 11.754 128.775 11.786 128.807 11.83L129.251 12.55C129.035 12.73 128.787 12.866 128.507 12.958C128.227 13.05 127.937 13.096 127.637 13.096C127.101 13.096 126.689 12.946 126.401 12.646C126.117 12.342 125.975 11.924 125.975 11.392V7.954H125.345C125.265 7.954 125.197 7.928 125.141 7.876C125.085 7.824 125.057 7.746 125.057 7.642V7.054L126.047 6.886L126.359 5.212C126.379 5.132 126.417 5.07 126.473 5.026C126.529 4.982 126.601 4.96 126.689 4.96H127.457V6.898H131.795V13ZM132.053 5.026C132.053 5.154 132.027 5.276 131.975 5.392C131.923 5.504 131.853 5.602 131.765 5.686C131.681 5.77 131.579 5.838 131.459 5.89C131.343 5.938 131.219 5.962 131.087 5.962C130.959 5.962 130.839 5.938 130.727 5.89C130.615 5.838 130.517 5.77 130.433 5.686C130.349 5.602 130.281 5.504 130.229 5.392C130.181 5.276 130.157 5.154 130.157 5.026C130.157 4.894 130.181 4.772 130.229 4.66C130.281 4.544 130.349 4.444 130.433 4.36C130.517 4.272 130.615 4.204 130.727 4.156C130.839 4.104 130.959 4.078 131.087 4.078C131.219 4.078 131.343 4.104 131.459 4.156C131.579 4.204 131.681 4.272 131.765 4.36C131.853 4.444 131.923 4.544 131.975 4.66C132.027 4.772 132.053 4.894 132.053 5.026ZM136.392 6.748C136.848 6.748 137.262 6.822 137.634 6.97C138.01 7.118 138.33 7.328 138.594 7.6C138.862 7.872 139.068 8.204 139.212 8.596C139.356 8.988 139.428 9.426 139.428 9.91C139.428 10.398 139.356 10.838 139.212 11.23C139.068 11.622 138.862 11.956 138.594 12.232C138.33 12.508 138.01 12.72 137.634 12.868C137.262 13.016 136.848 13.09 136.392 13.09C135.932 13.09 135.514 13.016 135.138 12.868C134.762 12.72 134.44 12.508 134.172 12.232C133.908 11.956 133.702 11.622 133.554 11.23C133.41 10.838 133.338 10.398 133.338 9.91C133.338 9.426 133.41 8.988 133.554 8.596C133.702 8.204 133.908 7.872 134.172 7.6C134.44 7.328 134.762 7.118 135.138 6.97C135.514 6.822 135.932 6.748 136.392 6.748ZM136.392 11.95C136.904 11.95 137.282 11.778 137.526 11.434C137.774 11.09 137.898 10.586 137.898 9.922C137.898 9.258 137.774 8.752 137.526 8.404C137.282 8.056 136.904 7.882 136.392 7.882C135.872 7.882 135.486 8.058 135.234 8.41C134.986 8.758 134.862 9.262 134.862 9.922C134.862 10.582 134.986 11.086 135.234 11.434C135.486 11.778 135.872 11.95 136.392 11.95ZM142.304 7.6C142.428 7.476 142.558 7.362 142.694 7.258C142.834 7.15 142.98 7.06 143.132 6.988C143.288 6.912 143.454 6.854 143.63 6.814C143.806 6.77 143.998 6.748 144.206 6.748C144.542 6.748 144.84 6.806 145.1 6.922C145.36 7.034 145.576 7.194 145.748 7.402C145.924 7.606 146.056 7.852 146.144 8.14C146.236 8.424 146.282 8.738 146.282 9.082V13H144.8V9.082C144.8 8.706 144.714 8.416 144.542 8.212C144.37 8.004 144.108 7.9 143.756 7.9C143.5 7.9 143.26 7.958 143.036 8.074C142.812 8.19 142.6 8.348 142.4 8.548V13H140.918V6.844H141.824C142.016 6.844 142.142 6.934 142.202 7.114L142.304 7.6ZM159.874 6.844L157.918 13H156.73C156.594 13 156.5 12.912 156.448 12.736L155.344 9.178C155.308 9.058 155.274 8.94 155.242 8.824C155.214 8.704 155.19 8.584 155.17 8.464C155.146 8.584 155.118 8.706 155.086 8.83C155.058 8.95 155.026 9.07 154.99 9.19L153.868 12.736C153.82 12.912 153.714 13 153.55 13H152.41L150.46 6.844H151.642C151.75 6.844 151.842 6.87 151.918 6.922C151.994 6.974 152.044 7.04 152.068 7.12L152.95 10.408C152.994 10.588 153.032 10.764 153.064 10.936C153.1 11.108 153.13 11.28 153.154 11.452C153.198 11.28 153.244 11.108 153.292 10.936C153.344 10.764 153.398 10.588 153.454 10.408L154.474 7.108C154.498 7.028 154.544 6.962 154.612 6.91C154.684 6.858 154.77 6.832 154.87 6.832H155.524C155.628 6.832 155.716 6.858 155.788 6.91C155.864 6.962 155.914 7.028 155.938 7.108L156.928 10.408C156.98 10.588 157.028 10.766 157.072 10.942C157.12 11.114 157.166 11.286 157.21 11.458C157.262 11.118 157.336 10.768 157.432 10.408L158.338 7.12C158.366 7.04 158.416 6.974 158.488 6.922C158.56 6.87 158.646 6.844 158.746 6.844H159.874ZM162.612 6.844V13H161.124V6.844H162.612ZM162.816 5.05C162.816 5.178 162.79 5.298 162.738 5.41C162.686 5.522 162.616 5.62 162.528 5.704C162.444 5.788 162.344 5.856 162.228 5.908C162.112 5.956 161.988 5.98 161.856 5.98C161.728 5.98 161.606 5.956 161.49 5.908C161.378 5.856 161.28 5.788 161.196 5.704C161.112 5.62 161.044 5.522 160.992 5.41C160.944 5.298 160.92 5.178 160.92 5.05C160.92 4.918 160.944 4.794 160.992 4.678C161.044 4.562 161.112 4.462 161.196 4.378C161.28 4.294 161.378 4.228 161.49 4.18C161.606 4.128 161.728 4.102 161.856 4.102C161.988 4.102 162.112 4.128 162.228 4.18C162.344 4.228 162.444 4.294 162.528 4.378C162.616 4.462 162.686 4.562 162.738 4.678C162.79 4.794 162.816 4.918 162.816 5.05ZM166.535 13.096C165.999 13.096 165.587 12.946 165.299 12.646C165.015 12.342 164.873 11.924 164.873 11.392V7.954H164.243C164.163 7.954 164.095 7.928 164.039 7.876C163.983 7.824 163.955 7.746 163.955 7.642V7.054L164.945 6.892L165.257 5.212C165.277 5.132 165.315 5.07 165.371 5.026C165.427 4.982 165.499 4.96 165.587 4.96H166.355V6.898H167.999V7.954H166.355V11.29C166.355 11.482 166.401 11.632 166.493 11.74C166.589 11.848 166.719 11.902 166.883 11.902C166.975 11.902 167.051 11.892 167.111 11.872C167.175 11.848 167.229 11.824 167.273 11.8C167.321 11.776 167.363 11.754 167.399 11.734C167.435 11.71 167.471 11.698 167.507 11.698C167.551 11.698 167.587 11.71 167.615 11.734C167.643 11.754 167.673 11.786 167.705 11.83L168.149 12.55C167.933 12.73 167.685 12.866 167.405 12.958C167.125 13.05 166.835 13.096 166.535 13.096ZM170.79 7.504C171.03 7.28 171.294 7.098 171.582 6.958C171.87 6.818 172.208 6.748 172.596 6.748C172.932 6.748 173.23 6.806 173.49 6.922C173.75 7.034 173.966 7.194 174.138 7.402C174.314 7.606 174.446 7.852 174.534 8.14C174.626 8.424 174.672 8.738 174.672 9.082V13H173.19V9.082C173.19 8.706 173.104 8.416 172.932 8.212C172.76 8.004 172.498 7.9 172.146 7.9C171.89 7.9 171.65 7.958 171.426 8.074C171.202 8.19 170.99 8.348 170.79 8.548V13H169.308V4.084H170.79V7.504ZM5.268 23.844V30H3.78V23.844H5.268ZM5.472 22.05C5.472 22.178 5.446 22.298 5.394 22.41C5.342 22.522 5.272 22.62 5.184 22.704C5.1 22.788 5 22.856 4.884 22.908C4.768 22.956 4.644 22.98 4.512 22.98C4.384 22.98 4.262 22.956 4.146 22.908C4.034 22.856 3.936 22.788 3.852 22.704C3.768 22.62 3.7 22.522 3.648 22.41C3.6 22.298 3.576 22.178 3.576 22.05C3.576 21.918 3.6 21.794 3.648 21.678C3.7 21.562 3.768 21.462 3.852 21.378C3.936 21.294 4.034 21.228 4.146 21.18C4.262 21.128 4.384 21.102 4.512 21.102C4.644 21.102 4.768 21.128 4.884 21.18C5 21.228 5.1 21.294 5.184 21.378C5.272 21.462 5.342 21.562 5.394 21.678C5.446 21.794 5.472 21.918 5.472 22.05ZM8.52488 24.6C8.64888 24.476 8.77888 24.362 8.91488 24.258C9.05488 24.15 9.20088 24.06 9.35288 23.988C9.50888 23.912 9.67488 23.854 9.85088 23.814C10.0269 23.77 10.2189 23.748 10.4269 23.748C10.7629 23.748 11.0609 23.806 11.3209 23.922C11.5809 24.034 11.7969 24.194 11.9689 24.402C12.1449 24.606 12.2769 24.852 12.3649 25.14C12.4569 25.424 12.5029 25.738 12.5029 26.082V30H11.0209V26.082C11.0209 25.706 10.9349 25.416 10.7629 25.212C10.5909 25.004 10.3289 24.9 9.97688 24.9C9.72088 24.9 9.48088 24.958 9.25688 25.074C9.03288 25.19 8.82088 25.348 8.62088 25.548V30H7.13888V23.844H8.04488C8.23688 23.844 8.36288 23.934 8.42288 24.114L8.52488 24.6ZM18.6823 25.146C18.6383 25.202 18.5943 25.246 18.5503 25.278C18.5103 25.31 18.4503 25.326 18.3703 25.326C18.2943 25.326 18.2203 25.304 18.1483 25.26C18.0763 25.212 17.9903 25.16 17.8903 25.104C17.7903 25.044 17.6703 24.992 17.5303 24.948C17.3943 24.9 17.2243 24.876 17.0203 24.876C16.7603 24.876 16.5323 24.924 16.3363 25.02C16.1403 25.112 15.9763 25.246 15.8443 25.422C15.7163 25.598 15.6203 25.812 15.5563 26.064C15.4923 26.312 15.4603 26.594 15.4603 26.91C15.4603 27.238 15.4943 27.53 15.5623 27.786C15.6343 28.042 15.7363 28.258 15.8683 28.434C16.0003 28.606 16.1603 28.738 16.3483 28.83C16.5363 28.918 16.7483 28.962 16.9843 28.962C17.2203 28.962 17.4103 28.934 17.5543 28.878C17.7023 28.818 17.8263 28.754 17.9263 28.686C18.0263 28.614 18.1123 28.55 18.1843 28.494C18.2603 28.434 18.3443 28.404 18.4363 28.404C18.5563 28.404 18.6463 28.45 18.7063 28.542L19.1323 29.082C18.9683 29.274 18.7903 29.436 18.5983 29.568C18.4063 29.696 18.2063 29.8 17.9983 29.88C17.7943 29.956 17.5823 30.01 17.3623 30.042C17.1463 30.074 16.9303 30.09 16.7143 30.09C16.3343 30.09 15.9763 30.02 15.6403 29.88C15.3043 29.736 15.0103 29.528 14.7583 29.256C14.5063 28.984 14.3063 28.652 14.1583 28.26C14.0143 27.864 13.9423 27.414 13.9423 26.91C13.9423 26.458 14.0063 26.04 14.1343 25.656C14.2663 25.268 14.4583 24.934 14.7103 24.654C14.9623 24.37 15.2743 24.148 15.6463 23.988C16.0183 23.828 16.4463 23.748 16.9303 23.748C17.3903 23.748 17.7923 23.822 18.1363 23.97C18.4843 24.118 18.7963 24.33 19.0723 24.606L18.6823 25.146ZM23.0399 23.748C23.4959 23.748 23.9099 23.822 24.2819 23.97C24.6579 24.118 24.9779 24.328 25.2419 24.6C25.5099 24.872 25.7159 25.204 25.8599 25.596C26.0039 25.988 26.0759 26.426 26.0759 26.91C26.0759 27.398 26.0039 27.838 25.8599 28.23C25.7159 28.622 25.5099 28.956 25.2419 29.232C24.9779 29.508 24.6579 29.72 24.2819 29.868C23.9099 30.016 23.4959 30.09 23.0399 30.09C22.5799 30.09 22.1619 30.016 21.7859 29.868C21.4099 29.72 21.0879 29.508 20.8199 29.232C20.5559 28.956 20.3499 28.622 20.2019 28.23C20.0579 27.838 19.9859 27.398 19.9859 26.91C19.9859 26.426 20.0579 25.988 20.2019 25.596C20.3499 25.204 20.5559 24.872 20.8199 24.6C21.0879 24.328 21.4099 24.118 21.7859 23.97C22.1619 23.822 22.5799 23.748 23.0399 23.748ZM23.0399 28.95C23.5519 28.95 23.9299 28.778 24.1739 28.434C24.4219 28.09 24.5459 27.586 24.5459 26.922C24.5459 26.258 24.4219 25.752 24.1739 25.404C23.9299 25.056 23.5519 24.882 23.0399 24.882C22.5199 24.882 22.1339 25.058 21.8819 25.41C21.6339 25.758 21.5099 26.262 21.5099 26.922C21.5099 27.582 21.6339 28.086 21.8819 28.434C22.1339 28.778 22.5199 28.95 23.0399 28.95ZM27.5665 30V23.844H28.4725C28.6645 23.844 28.7905 23.934 28.8505 24.114L28.9465 24.57C29.0545 24.45 29.1665 24.34 29.2825 24.24C29.4025 24.14 29.5285 24.054 29.6605 23.982C29.7965 23.91 29.9405 23.854 30.0925 23.814C30.2485 23.77 30.4185 23.748 30.6025 23.748C30.9905 23.748 31.3085 23.854 31.5565 24.066C31.8085 24.274 31.9965 24.552 32.1205 24.9C32.2165 24.696 32.3365 24.522 32.4805 24.378C32.6245 24.23 32.7825 24.11 32.9545 24.018C33.1265 23.926 33.3085 23.858 33.5005 23.814C33.6965 23.77 33.8925 23.748 34.0885 23.748C34.4285 23.748 34.7305 23.8 34.9945 23.904C35.2585 24.008 35.4805 24.16 35.6605 24.36C35.8405 24.56 35.9765 24.804 36.0685 25.092C36.1645 25.38 36.2125 25.71 36.2125 26.082V30H34.7305V26.082C34.7305 25.69 34.6445 25.396 34.4725 25.2C34.3005 25 34.0485 24.9 33.7165 24.9C33.5645 24.9 33.4225 24.926 33.2905 24.978C33.1625 25.03 33.0485 25.106 32.9485 25.206C32.8525 25.302 32.7765 25.424 32.7205 25.572C32.6645 25.72 32.6365 25.89 32.6365 26.082V30H31.1485V26.082C31.1485 25.67 31.0645 25.37 30.8965 25.182C30.7325 24.994 30.4905 24.9 30.1705 24.9C29.9545 24.9 29.7525 24.954 29.5645 25.062C29.3805 25.166 29.2085 25.31 29.0485 25.494V30H27.5665ZM41.9472 26.214C41.9472 26.022 41.9192 25.842 41.8632 25.674C41.8112 25.502 41.7312 25.352 41.6232 25.224C41.5152 25.096 41.3772 24.996 41.2092 24.924C41.0452 24.848 40.8532 24.81 40.6332 24.81C40.2052 24.81 39.8672 24.932 39.6192 25.176C39.3752 25.42 39.2192 25.766 39.1512 26.214H41.9472ZM39.1212 27.108C39.1452 27.424 39.2012 27.698 39.2892 27.93C39.3772 28.158 39.4932 28.348 39.6372 28.5C39.7812 28.648 39.9512 28.76 40.1472 28.836C40.3472 28.908 40.5672 28.944 40.8072 28.944C41.0472 28.944 41.2532 28.916 41.4252 28.86C41.6012 28.804 41.7532 28.742 41.8812 28.674C42.0132 28.606 42.1272 28.544 42.2232 28.488C42.3232 28.432 42.4192 28.404 42.5112 28.404C42.6352 28.404 42.7272 28.45 42.7872 28.542L43.2132 29.082C43.0492 29.274 42.8652 29.436 42.6612 29.568C42.4572 29.696 42.2432 29.8 42.0192 29.88C41.7992 29.956 41.5732 30.01 41.3412 30.042C41.1132 30.074 40.8912 30.09 40.6752 30.09C40.2472 30.09 39.8492 30.02 39.4812 29.88C39.1132 29.736 38.7932 29.526 38.5212 29.25C38.2492 28.97 38.0352 28.626 37.8792 28.218C37.7232 27.806 37.6452 27.33 37.6452 26.79C37.6452 26.37 37.7132 25.976 37.8492 25.608C37.9852 25.236 38.1792 24.914 38.4312 24.642C38.6872 24.366 38.9972 24.148 39.3612 23.988C39.7292 23.828 40.1432 23.748 40.6032 23.748C40.9912 23.748 41.3492 23.81 41.6772 23.934C42.0052 24.058 42.2872 24.24 42.5232 24.48C42.7592 24.716 42.9432 25.008 43.0752 25.356C43.2112 25.7 43.2792 26.094 43.2792 26.538C43.2792 26.762 43.2552 26.914 43.2072 26.994C43.1592 27.07 43.0672 27.108 42.9312 27.108H39.1212ZM48.5074 25.044C48.4674 25.108 48.4254 25.154 48.3814 25.182C48.3374 25.206 48.2814 25.218 48.2134 25.218C48.1414 25.218 48.0634 25.198 47.9794 25.158C47.8994 25.118 47.8054 25.074 47.6974 25.026C47.5894 24.974 47.4654 24.928 47.3254 24.888C47.1894 24.848 47.0274 24.828 46.8394 24.828C46.5474 24.828 46.3174 24.89 46.1494 25.014C45.9854 25.138 45.9034 25.3 45.9034 25.5C45.9034 25.632 45.9454 25.744 46.0294 25.836C46.1174 25.924 46.2314 26.002 46.3714 26.07C46.5154 26.138 46.6774 26.2 46.8574 26.256C47.0374 26.308 47.2194 26.366 47.4034 26.43C47.5914 26.494 47.7754 26.568 47.9554 26.652C48.1354 26.732 48.2954 26.836 48.4354 26.964C48.5794 27.088 48.6934 27.238 48.7774 27.414C48.8654 27.59 48.9094 27.802 48.9094 28.05C48.9094 28.346 48.8554 28.62 48.7474 28.872C48.6434 29.12 48.4874 29.336 48.2794 29.52C48.0714 29.7 47.8134 29.842 47.5054 29.946C47.2014 30.046 46.8494 30.096 46.4494 30.096C46.2374 30.096 46.0294 30.076 45.8254 30.036C45.6254 30 45.4314 29.948 45.2434 29.88C45.0594 29.812 44.8874 29.732 44.7274 29.64C44.5714 29.548 44.4334 29.448 44.3134 29.34L44.6554 28.776C44.6994 28.708 44.7514 28.656 44.8114 28.62C44.8714 28.584 44.9474 28.566 45.0394 28.566C45.1314 28.566 45.2174 28.592 45.2974 28.644C45.3814 28.696 45.4774 28.752 45.5854 28.812C45.6934 28.872 45.8194 28.928 45.9634 28.98C46.1114 29.032 46.2974 29.058 46.5214 29.058C46.6974 29.058 46.8474 29.038 46.9714 28.998C47.0994 28.954 47.2034 28.898 47.2834 28.83C47.3674 28.762 47.4274 28.684 47.4634 28.596C47.5034 28.504 47.5234 28.41 47.5234 28.314C47.5234 28.17 47.4794 28.052 47.3914 27.96C47.3074 27.868 47.1934 27.788 47.0494 27.72C46.9094 27.652 46.7474 27.592 46.5634 27.54C46.3834 27.484 46.1974 27.424 46.0054 27.36C45.8174 27.296 45.6314 27.222 45.4474 27.138C45.2674 27.05 45.1054 26.94 44.9614 26.808C44.8214 26.676 44.7074 26.514 44.6194 26.322C44.5354 26.13 44.4934 25.898 44.4934 25.626C44.4934 25.374 44.5434 25.134 44.6434 24.906C44.7434 24.678 44.8894 24.48 45.0814 24.312C45.2774 24.14 45.5194 24.004 45.8074 23.904C46.0994 23.8 46.4354 23.748 46.8154 23.748C47.2394 23.748 47.6254 23.818 47.9734 23.958C48.3214 24.098 48.6114 24.282 48.8434 24.51L48.5074 25.044ZM55.1628 21.084V30H53.6808V21.084H55.1628ZM60.9653 26.214C60.9653 26.022 60.9373 25.842 60.8813 25.674C60.8293 25.502 60.7493 25.352 60.6413 25.224C60.5333 25.096 60.3953 24.996 60.2273 24.924C60.0633 24.848 59.8713 24.81 59.6513 24.81C59.2233 24.81 58.8853 24.932 58.6373 25.176C58.3933 25.42 58.2373 25.766 58.1693 26.214H60.9653ZM58.1393 27.108C58.1633 27.424 58.2193 27.698 58.3073 27.93C58.3953 28.158 58.5113 28.348 58.6553 28.5C58.7993 28.648 58.9693 28.76 59.1653 28.836C59.3653 28.908 59.5853 28.944 59.8253 28.944C60.0653 28.944 60.2713 28.916 60.4433 28.86C60.6193 28.804 60.7713 28.742 60.8993 28.674C61.0313 28.606 61.1453 28.544 61.2413 28.488C61.3413 28.432 61.4373 28.404 61.5293 28.404C61.6533 28.404 61.7453 28.45 61.8053 28.542L62.2313 29.082C62.0673 29.274 61.8833 29.436 61.6793 29.568C61.4753 29.696 61.2613 29.8 61.0373 29.88C60.8173 29.956 60.5913 30.01 60.3593 30.042C60.1313 30.074 59.9093 30.09 59.6933 30.09C59.2653 30.09 58.8673 30.02 58.4993 29.88C58.1313 29.736 57.8113 29.526 57.5393 29.25C57.2673 28.97 57.0533 28.626 56.8973 28.218C56.7413 27.806 56.6633 27.33 56.6633 26.79C56.6633 26.37 56.7313 25.976 56.8673 25.608C57.0033 25.236 57.1973 24.914 57.4493 24.642C57.7053 24.366 58.0153 24.148 58.3793 23.988C58.7473 23.828 59.1613 23.748 59.6213 23.748C60.0093 23.748 60.3673 23.81 60.6953 23.934C61.0233 24.058 61.3053 24.24 61.5413 24.48C61.7773 24.716 61.9613 25.008 62.0933 25.356C62.2293 25.7 62.2973 26.094 62.2973 26.538C62.2973 26.762 62.2733 26.914 62.2253 26.994C62.1773 27.07 62.0853 27.108 61.9493 27.108H58.1393ZM67.5255 25.044C67.4855 25.108 67.4435 25.154 67.3995 25.182C67.3555 25.206 67.2995 25.218 67.2315 25.218C67.1595 25.218 67.0815 25.198 66.9975 25.158C66.9175 25.118 66.8235 25.074 66.7155 25.026C66.6075 24.974 66.4835 24.928 66.3435 24.888C66.2075 24.848 66.0455 24.828 65.8575 24.828C65.5655 24.828 65.3355 24.89 65.1675 25.014C65.0035 25.138 64.9215 25.3 64.9215 25.5C64.9215 25.632 64.9635 25.744 65.0475 25.836C65.1355 25.924 65.2495 26.002 65.3895 26.07C65.5335 26.138 65.6955 26.2 65.8755 26.256C66.0555 26.308 66.2375 26.366 66.4215 26.43C66.6095 26.494 66.7935 26.568 66.9735 26.652C67.1535 26.732 67.3135 26.836 67.4535 26.964C67.5975 27.088 67.7115 27.238 67.7955 27.414C67.8835 27.59 67.9275 27.802 67.9275 28.05C67.9275 28.346 67.8735 28.62 67.7655 28.872C67.6615 29.12 67.5055 29.336 67.2975 29.52C67.0895 29.7 66.8315 29.842 66.5235 29.946C66.2195 30.046 65.8675 30.096 65.4675 30.096C65.2555 30.096 65.0475 30.076 64.8435 30.036C64.6435 30 64.4495 29.948 64.2615 29.88C64.0775 29.812 63.9055 29.732 63.7455 29.64C63.5895 29.548 63.4515 29.448 63.3315 29.34L63.6735 28.776C63.7175 28.708 63.7695 28.656 63.8295 28.62C63.8895 28.584 63.9655 28.566 64.0575 28.566C64.1495 28.566 64.2355 28.592 64.3155 28.644C64.3995 28.696 64.4955 28.752 64.6035 28.812C64.7115 28.872 64.8375 28.928 64.9815 28.98C65.1295 29.032 65.3155 29.058 65.5395 29.058C65.7155 29.058 65.8655 29.038 65.9895 28.998C66.1175 28.954 66.2215 28.898 66.3015 28.83C66.3855 28.762 66.4455 28.684 66.4815 28.596C66.5215 28.504 66.5415 28.41 66.5415 28.314C66.5415 28.17 66.4975 28.052 66.4095 27.96C66.3255 27.868 66.2115 27.788 66.0675 27.72C65.9275 27.652 65.7655 27.592 65.5815 27.54C65.4015 27.484 65.2155 27.424 65.0235 27.36C64.8355 27.296 64.6495 27.222 64.4655 27.138C64.2855 27.05 64.1235 26.94 63.9795 26.808C63.8395 26.676 63.7255 26.514 63.6375 26.322C63.5535 26.13 63.5115 25.898 63.5115 25.626C63.5115 25.374 63.5615 25.134 63.6615 24.906C63.7615 24.678 63.9075 24.48 64.0995 24.312C64.2955 24.14 64.5375 24.004 64.8255 23.904C65.1175 23.8 65.4535 23.748 65.8335 23.748C66.2575 23.748 66.6435 23.818 66.9915 23.958C67.3395 24.098 67.6295 24.282 67.8615 24.51L67.5255 25.044ZM73.1589 25.044C73.1189 25.108 73.0769 25.154 73.0329 25.182C72.9889 25.206 72.9329 25.218 72.8649 25.218C72.7929 25.218 72.7149 25.198 72.6309 25.158C72.5509 25.118 72.4569 25.074 72.3489 25.026C72.2409 24.974 72.1169 24.928 71.9769 24.888C71.8409 24.848 71.6789 24.828 71.4909 24.828C71.1989 24.828 70.9689 24.89 70.8009 25.014C70.6369 25.138 70.5549 25.3 70.5549 25.5C70.5549 25.632 70.5969 25.744 70.6809 25.836C70.7689 25.924 70.8829 26.002 71.0229 26.07C71.1669 26.138 71.3289 26.2 71.5089 26.256C71.6889 26.308 71.8709 26.366 72.0549 26.43C72.2429 26.494 72.4269 26.568 72.6069 26.652C72.7869 26.732 72.9469 26.836 73.0869 26.964C73.2309 27.088 73.3449 27.238 73.4289 27.414C73.5169 27.59 73.5609 27.802 73.5609 28.05C73.5609 28.346 73.5069 28.62 73.3989 28.872C73.2949 29.12 73.1389 29.336 72.9309 29.52C72.7229 29.7 72.4649 29.842 72.1569 29.946C71.8529 30.046 71.5009 30.096 71.1009 30.096C70.8889 30.096 70.6809 30.076 70.4769 30.036C70.2769 30 70.0829 29.948 69.8949 29.88C69.7109 29.812 69.5389 29.732 69.3789 29.64C69.2229 29.548 69.0849 29.448 68.9649 29.34L69.3069 28.776C69.3509 28.708 69.4029 28.656 69.4629 28.62C69.5229 28.584 69.5989 28.566 69.6909 28.566C69.7829 28.566 69.8689 28.592 69.9489 28.644C70.0329 28.696 70.1289 28.752 70.2369 28.812C70.3449 28.872 70.4709 28.928 70.6149 28.98C70.7629 29.032 70.9489 29.058 71.1729 29.058C71.3489 29.058 71.4989 29.038 71.6229 28.998C71.7509 28.954 71.8549 28.898 71.9349 28.83C72.0189 28.762 72.0789 28.684 72.1149 28.596C72.1549 28.504 72.1749 28.41 72.1749 28.314C72.1749 28.17 72.1309 28.052 72.0429 27.96C71.9589 27.868 71.8449 27.788 71.7009 27.72C71.5609 27.652 71.3989 27.592 71.2149 27.54C71.0349 27.484 70.8489 27.424 70.6569 27.36C70.4689 27.296 70.2829 27.222 70.0989 27.138C69.9189 27.05 69.7569 26.94 69.6129 26.808C69.4729 26.676 69.3589 26.514 69.2709 26.322C69.1869 26.13 69.1449 25.898 69.1449 25.626C69.1449 25.374 69.1949 25.134 69.2949 24.906C69.3949 24.678 69.5409 24.48 69.7329 24.312C69.9289 24.14 70.1709 24.004 70.4589 23.904C70.7509 23.8 71.0869 23.748 71.4669 23.748C71.8909 23.748 72.2769 23.818 72.6249 23.958C72.9729 24.098 73.2629 24.282 73.4949 24.51L73.1589 25.044ZM80.3663 30.096C79.8303 30.096 79.4183 29.946 79.1303 29.646C78.8463 29.342 78.7043 28.924 78.7043 28.392V24.954H78.0743C77.9943 24.954 77.9263 24.928 77.8703 24.876C77.8143 24.824 77.7863 24.746 77.7863 24.642V24.054L78.7763 23.892L79.0883 22.212C79.1083 22.132 79.1463 22.07 79.2023 22.026C79.2583 21.982 79.3303 21.96 79.4183 21.96H80.1863V23.898H81.8303V24.954H80.1863V28.29C80.1863 28.482 80.2323 28.632 80.3243 28.74C80.4203 28.848 80.5503 28.902 80.7143 28.902C80.8063 28.902 80.8823 28.892 80.9423 28.872C81.0063 28.848 81.0603 28.824 81.1043 28.8C81.1523 28.776 81.1943 28.754 81.2303 28.734C81.2663 28.71 81.3023 28.698 81.3383 28.698C81.3823 28.698 81.4183 28.71 81.4463 28.734C81.4743 28.754 81.5043 28.786 81.5363 28.83L81.9803 29.55C81.7643 29.73 81.5163 29.866 81.2363 29.958C80.9563 30.05 80.6663 30.096 80.3663 30.096ZM84.6212 24.504C84.8612 24.28 85.1252 24.098 85.4132 23.958C85.7012 23.818 86.0392 23.748 86.4272 23.748C86.7632 23.748 87.0612 23.806 87.3212 23.922C87.5812 24.034 87.7972 24.194 87.9692 24.402C88.1452 24.606 88.2772 24.852 88.3652 25.14C88.4572 25.424 88.5032 25.738 88.5032 26.082V30H87.0212V26.082C87.0212 25.706 86.9352 25.416 86.7632 25.212C86.5912 25.004 86.3292 24.9 85.9772 24.9C85.7212 24.9 85.4812 24.958 85.2572 25.074C85.0332 25.19 84.8212 25.348 84.6212 25.548V30H83.1392V21.084H84.6212V24.504ZM93.5246 27.372C93.0966 27.392 92.7366 27.43 92.4446 27.486C92.1526 27.538 91.9186 27.606 91.7426 27.69C91.5666 27.774 91.4406 27.872 91.3646 27.984C91.2886 28.096 91.2506 28.218 91.2506 28.35C91.2506 28.61 91.3266 28.796 91.4786 28.908C91.6346 29.02 91.8366 29.076 92.0846 29.076C92.3886 29.076 92.6506 29.022 92.8706 28.914C93.0946 28.802 93.3126 28.634 93.5246 28.41V27.372ZM90.1286 24.702C90.8366 24.054 91.6886 23.73 92.6846 23.73C93.0446 23.73 93.3666 23.79 93.6506 23.91C93.9346 24.026 94.1746 24.19 94.3706 24.402C94.5666 24.61 94.7146 24.86 94.8146 25.152C94.9186 25.444 94.9706 25.764 94.9706 26.112V30H94.2986C94.1586 30 94.0506 29.98 93.9746 29.94C93.8986 29.896 93.8386 29.81 93.7946 29.682L93.6626 29.238C93.5066 29.378 93.3546 29.502 93.2066 29.61C93.0586 29.714 92.9046 29.802 92.7446 29.874C92.5846 29.946 92.4126 30 92.2286 30.036C92.0486 30.076 91.8486 30.096 91.6286 30.096C91.3686 30.096 91.1286 30.062 90.9086 29.994C90.6886 29.922 90.4986 29.816 90.3386 29.676C90.1786 29.536 90.0546 29.362 89.9666 29.154C89.8786 28.946 89.8346 28.704 89.8346 28.428C89.8346 28.272 89.8606 28.118 89.9126 27.966C89.9646 27.81 90.0486 27.662 90.1646 27.522C90.2846 27.382 90.4386 27.25 90.6266 27.126C90.8146 27.002 91.0446 26.894 91.3166 26.802C91.5926 26.71 91.9126 26.636 92.2766 26.58C92.6406 26.52 93.0566 26.484 93.5246 26.472V26.112C93.5246 25.7 93.4366 25.396 93.2606 25.2C93.0846 25 92.8306 24.9 92.4986 24.9C92.2586 24.9 92.0586 24.928 91.8986 24.984C91.7426 25.04 91.6046 25.104 91.4846 25.176C91.3646 25.244 91.2546 25.306 91.1546 25.362C91.0586 25.418 90.9506 25.446 90.8306 25.446C90.7266 25.446 90.6386 25.42 90.5666 25.368C90.4946 25.312 90.4366 25.248 90.3926 25.176L90.1286 24.702ZM98.1124 24.6C98.2364 24.476 98.3664 24.362 98.5024 24.258C98.6424 24.15 98.7884 24.06 98.9404 23.988C99.0964 23.912 99.2624 23.854 99.4384 23.814C99.6144 23.77 99.8064 23.748 100.014 23.748C100.35 23.748 100.648 23.806 100.908 23.922C101.168 24.034 101.384 24.194 101.556 24.402C101.732 24.606 101.864 24.852 101.952 25.14C102.044 25.424 102.09 25.738 102.09 26.082V30H100.608V26.082C100.608 25.706 100.522 25.416 100.35 25.212C100.178 25.004 99.9164 24.9 99.5644 24.9C99.3084 24.9 99.0684 24.958 98.8444 25.074C98.6204 25.19 98.4084 25.348 98.2084 25.548V30H96.7264V23.844H97.6324C97.8244 23.844 97.9504 23.934 98.0104 24.114L98.1124 24.6ZM109.19 30.096C108.654 30.096 108.242 29.946 107.954 29.646C107.67 29.342 107.528 28.924 107.528 28.392V24.954H106.898C106.818 24.954 106.75 24.928 106.694 24.876C106.638 24.824 106.61 24.746 106.61 24.642V24.054L107.6 23.892L107.912 22.212C107.932 22.132 107.97 22.07 108.026 22.026C108.082 21.982 108.154 21.96 108.242 21.96H109.01V23.898H110.654V24.954H109.01V28.29C109.01 28.482 109.056 28.632 109.148 28.74C109.244 28.848 109.374 28.902 109.538 28.902C109.63 28.902 109.706 28.892 109.766 28.872C109.83 28.848 109.884 28.824 109.928 28.8C109.976 28.776 110.018 28.754 110.054 28.734C110.09 28.71 110.126 28.698 110.162 28.698C110.206 28.698 110.242 28.71 110.27 28.734C110.298 28.754 110.328 28.786 110.36 28.83L110.804 29.55C110.588 29.73 110.34 29.866 110.06 29.958C109.78 30.05 109.49 30.096 109.19 30.096ZM120.753 23.844L118.797 30H117.609C117.473 30 117.379 29.912 117.327 29.736L116.223 26.178C116.187 26.058 116.153 25.94 116.121 25.824C116.093 25.704 116.069 25.584 116.049 25.464C116.025 25.584 115.997 25.706 115.965 25.83C115.937 25.95 115.905 26.07 115.869 26.19L114.747 29.736C114.699 29.912 114.593 30 114.429 30H113.289L111.339 23.844H112.521C112.629 23.844 112.721 23.87 112.797 23.922C112.873 23.974 112.923 24.04 112.947 24.12L113.829 27.408C113.873 27.588 113.911 27.764 113.943 27.936C113.979 28.108 114.009 28.28 114.033 28.452C114.077 28.28 114.123 28.108 114.171 27.936C114.223 27.764 114.277 27.588 114.333 27.408L115.353 24.108C115.377 24.028 115.423 23.962 115.491 23.91C115.563 23.858 115.649 23.832 115.749 23.832H116.403C116.507 23.832 116.595 23.858 116.667 23.91C116.743 23.962 116.793 24.028 116.817 24.108L117.807 27.408C117.859 27.588 117.907 27.766 117.951 27.942C117.999 28.114 118.045 28.286 118.089 28.458C118.141 28.118 118.215 27.768 118.311 27.408L119.217 24.12C119.245 24.04 119.295 23.974 119.367 23.922C119.439 23.87 119.525 23.844 119.625 23.844H120.753ZM124.574 23.748C125.03 23.748 125.444 23.822 125.816 23.97C126.192 24.118 126.512 24.328 126.776 24.6C127.044 24.872 127.25 25.204 127.394 25.596C127.538 25.988 127.61 26.426 127.61 26.91C127.61 27.398 127.538 27.838 127.394 28.23C127.25 28.622 127.044 28.956 126.776 29.232C126.512 29.508 126.192 29.72 125.816 29.868C125.444 30.016 125.03 30.09 124.574 30.09C124.114 30.09 123.696 30.016 123.32 29.868C122.944 29.72 122.622 29.508 122.354 29.232C122.09 28.956 121.884 28.622 121.736 28.23C121.592 27.838 121.52 27.398 121.52 26.91C121.52 26.426 121.592 25.988 121.736 25.596C121.884 25.204 122.09 24.872 122.354 24.6C122.622 24.328 122.944 24.118 123.32 23.97C123.696 23.822 124.114 23.748 124.574 23.748ZM124.574 28.95C125.086 28.95 125.464 28.778 125.708 28.434C125.956 28.09 126.08 27.586 126.08 26.922C126.08 26.258 125.956 25.752 125.708 25.404C125.464 25.056 125.086 24.882 124.574 24.882C124.054 24.882 123.668 25.058 123.416 25.41C123.168 25.758 123.044 26.262 123.044 26.922C123.044 27.582 123.168 28.086 123.416 28.434C123.668 28.778 124.054 28.95 124.574 28.95ZM138.589 30H137.107V24.954H134.251V28.29C134.251 28.482 134.297 28.632 134.389 28.74C134.485 28.848 134.615 28.902 134.779 28.902C134.871 28.902 134.947 28.892 135.007 28.872C135.071 28.848 135.125 28.824 135.169 28.8C135.217 28.776 135.259 28.754 135.295 28.734C135.331 28.71 135.367 28.698 135.403 28.698C135.447 28.698 135.483 28.71 135.511 28.734C135.539 28.754 135.569 28.786 135.601 28.83L136.045 29.55C135.829 29.73 135.581 29.866 135.301 29.958C135.021 30.05 134.731 30.096 134.431 30.096C133.895 30.096 133.483 29.946 133.195 29.646C132.911 29.342 132.769 28.924 132.769 28.392V24.954H132.139C132.059 24.954 131.991 24.928 131.935 24.876C131.879 24.824 131.851 24.746 131.851 24.642V24.054L132.841 23.886L133.153 22.212C133.173 22.132 133.211 22.07 133.267 22.026C133.323 21.982 133.395 21.96 133.483 21.96H134.251V23.898H138.589V30ZM138.847 22.026C138.847 22.154 138.821 22.276 138.769 22.392C138.717 22.504 138.647 22.602 138.559 22.686C138.475 22.77 138.373 22.838 138.253 22.89C138.137 22.938 138.013 22.962 137.881 22.962C137.753 22.962 137.633 22.938 137.521 22.89C137.409 22.838 137.311 22.77 137.227 22.686C137.143 22.602 137.075 22.504 137.023 22.392C136.975 22.276 136.951 22.154 136.951 22.026C136.951 21.894 136.975 21.772 137.023 21.66C137.075 21.544 137.143 21.444 137.227 21.36C137.311 21.272 137.409 21.204 137.521 21.156C137.633 21.104 137.753 21.078 137.881 21.078C138.013 21.078 138.137 21.104 138.253 21.156C138.373 21.204 138.475 21.272 138.559 21.36C138.647 21.444 138.717 21.544 138.769 21.66C138.821 21.772 138.847 21.894 138.847 22.026ZM140.461 30V23.844H141.367C141.559 23.844 141.685 23.934 141.745 24.114L141.841 24.57C141.949 24.45 142.061 24.34 142.177 24.24C142.297 24.14 142.423 24.054 142.555 23.982C142.691 23.91 142.835 23.854 142.987 23.814C143.143 23.77 143.313 23.748 143.497 23.748C143.885 23.748 144.203 23.854 144.451 24.066C144.703 24.274 144.891 24.552 145.015 24.9C145.111 24.696 145.231 24.522 145.375 24.378C145.519 24.23 145.677 24.11 145.849 24.018C146.021 23.926 146.203 23.858 146.395 23.814C146.591 23.77 146.787 23.748 146.983 23.748C147.323 23.748 147.625 23.8 147.889 23.904C148.153 24.008 148.375 24.16 148.555 24.36C148.735 24.56 148.871 24.804 148.963 25.092C149.059 25.38 149.107 25.71 149.107 26.082V30H147.625V26.082C147.625 25.69 147.539 25.396 147.367 25.2C147.195 25 146.943 24.9 146.611 24.9C146.459 24.9 146.317 24.926 146.185 24.978C146.057 25.03 145.943 25.106 145.843 25.206C145.747 25.302 145.671 25.424 145.615 25.572C145.559 25.72 145.531 25.89 145.531 26.082V30H144.043V26.082C144.043 25.67 143.959 25.37 143.791 25.182C143.627 24.994 143.385 24.9 143.065 24.9C142.849 24.9 142.647 24.954 142.459 25.062C142.275 25.166 142.103 25.31 141.943 25.494V30H140.461ZM154.842 26.214C154.842 26.022 154.814 25.842 154.758 25.674C154.706 25.502 154.626 25.352 154.518 25.224C154.41 25.096 154.272 24.996 154.104 24.924C153.94 24.848 153.748 24.81 153.528 24.81C153.1 24.81 152.762 24.932 152.514 25.176C152.27 25.42 152.114 25.766 152.046 26.214H154.842ZM152.016 27.108C152.04 27.424 152.096 27.698 152.184 27.93C152.272 28.158 152.388 28.348 152.532 28.5C152.676 28.648 152.846 28.76 153.042 28.836C153.242 28.908 153.462 28.944 153.702 28.944C153.942 28.944 154.148 28.916 154.32 28.86C154.496 28.804 154.648 28.742 154.776 28.674C154.908 28.606 155.022 28.544 155.118 28.488C155.218 28.432 155.314 28.404 155.406 28.404C155.53 28.404 155.622 28.45 155.682 28.542L156.108 29.082C155.944 29.274 155.76 29.436 155.556 29.568C155.352 29.696 155.138 29.8 154.914 29.88C154.694 29.956 154.468 30.01 154.236 30.042C154.008 30.074 153.786 30.09 153.57 30.09C153.142 30.09 152.744 30.02 152.376 29.88C152.008 29.736 151.688 29.526 151.416 29.25C151.144 28.97 150.93 28.626 150.774 28.218C150.618 27.806 150.54 27.33 150.54 26.79C150.54 26.37 150.608 25.976 150.744 25.608C150.88 25.236 151.074 24.914 151.326 24.642C151.582 24.366 151.892 24.148 152.256 23.988C152.624 23.828 153.038 23.748 153.498 23.748C153.886 23.748 154.244 23.81 154.572 23.934C154.9 24.058 155.182 24.24 155.418 24.48C155.654 24.716 155.838 25.008 155.97 25.356C156.106 25.7 156.174 26.094 156.174 26.538C156.174 26.762 156.15 26.914 156.102 26.994C156.054 27.07 155.962 27.108 155.826 27.108H152.016ZM161.402 25.044C161.362 25.108 161.32 25.154 161.276 25.182C161.232 25.206 161.176 25.218 161.108 25.218C161.036 25.218 160.958 25.198 160.874 25.158C160.794 25.118 160.7 25.074 160.592 25.026C160.484 24.974 160.36 24.928 160.22 24.888C160.084 24.848 159.922 24.828 159.734 24.828C159.442 24.828 159.212 24.89 159.044 25.014C158.88 25.138 158.798 25.3 158.798 25.5C158.798 25.632 158.84 25.744 158.924 25.836C159.012 25.924 159.126 26.002 159.266 26.07C159.41 26.138 159.572 26.2 159.752 26.256C159.932 26.308 160.114 26.366 160.298 26.43C160.486 26.494 160.67 26.568 160.85 26.652C161.03 26.732 161.19 26.836 161.33 26.964C161.474 27.088 161.588 27.238 161.672 27.414C161.76 27.59 161.804 27.802 161.804 28.05C161.804 28.346 161.75 28.62 161.642 28.872C161.538 29.12 161.382 29.336 161.174 29.52C160.966 29.7 160.708 29.842 160.4 29.946C160.096 30.046 159.744 30.096 159.344 30.096C159.132 30.096 158.924 30.076 158.72 30.036C158.52 30 158.326 29.948 158.138 29.88C157.954 29.812 157.782 29.732 157.622 29.64C157.466 29.548 157.328 29.448 157.208 29.34L157.55 28.776C157.594 28.708 157.646 28.656 157.706 28.62C157.766 28.584 157.842 28.566 157.934 28.566C158.026 28.566 158.112 28.592 158.192 28.644C158.276 28.696 158.372 28.752 158.48 28.812C158.588 28.872 158.714 28.928 158.858 28.98C159.006 29.032 159.192 29.058 159.416 29.058C159.592 29.058 159.742 29.038 159.866 28.998C159.994 28.954 160.098 28.898 160.178 28.83C160.262 28.762 160.322 28.684 160.358 28.596C160.398 28.504 160.418 28.41 160.418 28.314C160.418 28.17 160.374 28.052 160.286 27.96C160.202 27.868 160.088 27.788 159.944 27.72C159.804 27.652 159.642 27.592 159.458 27.54C159.278 27.484 159.092 27.424 158.9 27.36C158.712 27.296 158.526 27.222 158.342 27.138C158.162 27.05 158 26.94 157.856 26.808C157.716 26.676 157.602 26.514 157.514 26.322C157.43 26.13 157.388 25.898 157.388 25.626C157.388 25.374 157.438 25.134 157.538 24.906C157.638 24.678 157.784 24.48 157.976 24.312C158.172 24.14 158.414 24.004 158.702 23.904C158.994 23.8 159.33 23.748 159.71 23.748C160.134 23.748 160.52 23.818 160.868 23.958C161.216 24.098 161.506 24.282 161.738 24.51L161.402 25.044ZM168.609 30.096C168.073 30.096 167.661 29.946 167.373 29.646C167.089 29.342 166.947 28.924 166.947 28.392V24.954H166.317C166.237 24.954 166.169 24.928 166.113 24.876C166.057 24.824 166.029 24.746 166.029 24.642V24.054L167.019 23.892L167.331 22.212C167.351 22.132 167.389 22.07 167.445 22.026C167.501 21.982 167.573 21.96 167.661 21.96H168.429V23.898H170.073V24.954H168.429V28.29C168.429 28.482 168.475 28.632 168.567 28.74C168.663 28.848 168.793 28.902 168.957 28.902C169.049 28.902 169.125 28.892 169.185 28.872C169.249 28.848 169.303 28.824 169.347 28.8C169.395 28.776 169.437 28.754 169.473 28.734C169.509 28.71 169.545 28.698 169.581 28.698C169.625 28.698 169.661 28.71 169.689 28.734C169.717 28.754 169.747 28.786 169.779 28.83L170.223 29.55C170.007 29.73 169.759 29.866 169.479 29.958C169.199 30.05 168.909 30.096 168.609 30.096ZM172.864 24.504C173.104 24.28 173.368 24.098 173.656 23.958C173.944 23.818 174.282 23.748 174.67 23.748C175.006 23.748 175.304 23.806 175.564 23.922C175.824 24.034 176.04 24.194 176.212 24.402C176.388 24.606 176.52 24.852 176.608 25.14C176.7 25.424 176.746 25.738 176.746 26.082V30H175.264V26.082C175.264 25.706 175.178 25.416 175.006 25.212C174.834 25.004 174.572 24.9 174.22 24.9C173.964 24.9 173.724 24.958 173.5 25.074C173.276 25.19 173.064 25.348 172.864 25.548V30H171.382V21.084H172.864V24.504ZM182.482 26.214C182.482 26.022 182.454 25.842 182.398 25.674C182.346 25.502 182.266 25.352 182.158 25.224C182.05 25.096 181.912 24.996 181.744 24.924C181.58 24.848 181.388 24.81 181.168 24.81C180.74 24.81 180.402 24.932 180.154 25.176C179.91 25.42 179.754 25.766 179.686 26.214H182.482ZM179.656 27.108C179.68 27.424 179.736 27.698 179.824 27.93C179.912 28.158 180.028 28.348 180.172 28.5C180.316 28.648 180.486 28.76 180.682 28.836C180.882 28.908 181.102 28.944 181.342 28.944C181.582 28.944 181.788 28.916 181.96 28.86C182.136 28.804 182.288 28.742 182.416 28.674C182.548 28.606 182.662 28.544 182.758 28.488C182.858 28.432 182.954 28.404 183.046 28.404C183.17 28.404 183.262 28.45 183.322 28.542L183.748 29.082C183.584 29.274 183.4 29.436 183.196 29.568C182.992 29.696 182.778 29.8 182.554 29.88C182.334 29.956 182.108 30.01 181.876 30.042C181.648 30.074 181.426 30.09 181.21 30.09C180.782 30.09 180.384 30.02 180.016 29.88C179.648 29.736 179.328 29.526 179.056 29.25C178.784 28.97 178.57 28.626 178.414 28.218C178.258 27.806 178.18 27.33 178.18 26.79C178.18 26.37 178.248 25.976 178.384 25.608C178.52 25.236 178.714 24.914 178.966 24.642C179.222 24.366 179.532 24.148 179.896 23.988C180.264 23.828 180.678 23.748 181.138 23.748C181.526 23.748 181.884 23.81 182.212 23.934C182.54 24.058 182.822 24.24 183.058 24.48C183.294 24.716 183.478 25.008 183.61 25.356C183.746 25.7 183.814 26.094 183.814 26.538C183.814 26.762 183.79 26.914 183.742 26.994C183.694 27.07 183.602 27.108 183.466 27.108H179.656ZM4.164 47V41.96L3.63 41.876C3.514 41.852 3.42 41.812 3.348 41.756C3.28 41.696 3.246 41.612 3.246 41.504V40.898H4.164V40.442C4.164 40.09 4.216 39.774 4.32 39.494C4.428 39.214 4.58 38.976 4.776 38.78C4.976 38.584 5.218 38.434 5.502 38.33C5.786 38.226 6.106 38.174 6.462 38.174C6.746 38.174 7.01 38.212 7.254 38.288L7.224 39.032C7.22 39.088 7.204 39.134 7.176 39.17C7.148 39.202 7.11 39.228 7.062 39.248C7.018 39.264 6.966 39.276 6.906 39.284C6.846 39.288 6.782 39.29 6.714 39.29C6.538 39.29 6.38 39.31 6.24 39.35C6.104 39.386 5.988 39.452 5.892 39.548C5.796 39.64 5.722 39.764 5.67 39.92C5.622 40.072 5.598 40.262 5.598 40.49V40.898H7.2V41.954H5.646V47H4.164ZM12.1947 43.214C12.1947 43.022 12.1667 42.842 12.1107 42.674C12.0587 42.502 11.9787 42.352 11.8707 42.224C11.7627 42.096 11.6247 41.996 11.4567 41.924C11.2927 41.848 11.1007 41.81 10.8807 41.81C10.4527 41.81 10.1147 41.932 9.86672 42.176C9.62272 42.42 9.46672 42.766 9.39872 43.214H12.1947ZM9.36872 44.108C9.39272 44.424 9.44872 44.698 9.53672 44.93C9.62472 45.158 9.74072 45.348 9.88472 45.5C10.0287 45.648 10.1987 45.76 10.3947 45.836C10.5947 45.908 10.8147 45.944 11.0547 45.944C11.2947 45.944 11.5007 45.916 11.6727 45.86C11.8487 45.804 12.0007 45.742 12.1287 45.674C12.2607 45.606 12.3747 45.544 12.4707 45.488C12.5707 45.432 12.6667 45.404 12.7587 45.404C12.8827 45.404 12.9747 45.45 13.0347 45.542L13.4607 46.082C13.2967 46.274 13.1127 46.436 12.9087 46.568C12.7047 46.696 12.4907 46.8 12.2667 46.88C12.0467 46.956 11.8207 47.01 11.5887 47.042C11.3607 47.074 11.1387 47.09 10.9227 47.09C10.4947 47.09 10.0967 47.02 9.72872 46.88C9.36072 46.736 9.04072 46.526 8.76872 46.25C8.49672 45.97 8.28272 45.626 8.12672 45.218C7.97072 44.806 7.89272 44.33 7.89272 43.79C7.89272 43.37 7.96072 42.976 8.09672 42.608C8.23272 42.236 8.42672 41.914 8.67872 41.642C8.93472 41.366 9.24472 41.148 9.60872 40.988C9.97672 40.828 10.3907 40.748 10.8507 40.748C11.2387 40.748 11.5967 40.81 11.9247 40.934C12.2527 41.058 12.5347 41.24 12.7707 41.48C13.0067 41.716 13.1907 42.008 13.3227 42.356C13.4587 42.7 13.5267 43.094 13.5267 43.538C13.5267 43.762 13.5027 43.914 13.4547 43.994C13.4067 44.07 13.3147 44.108 13.1787 44.108H9.36872ZM18.8629 42.416C18.6949 42.212 18.5109 42.068 18.3109 41.984C18.1149 41.9 17.9029 41.858 17.6749 41.858C17.4509 41.858 17.2489 41.9 17.0689 41.984C16.8889 42.068 16.7349 42.196 16.6069 42.368C16.4789 42.536 16.3809 42.752 16.3129 43.016C16.2449 43.276 16.2109 43.584 16.2109 43.94C16.2109 44.3 16.2389 44.606 16.2949 44.858C16.3549 45.106 16.4389 45.31 16.5469 45.47C16.6549 45.626 16.7869 45.74 16.9429 45.812C17.0989 45.88 17.2729 45.914 17.4649 45.914C17.7729 45.914 18.0349 45.85 18.2509 45.722C18.4669 45.594 18.6709 45.412 18.8629 45.176V42.416ZM20.3449 38.084V47H19.4389C19.2429 47 19.1189 46.91 19.0669 46.73L18.9409 46.136C18.6929 46.42 18.4069 46.65 18.0829 46.826C17.7629 47.002 17.3889 47.09 16.9609 47.09C16.6249 47.09 16.3169 47.02 16.0369 46.88C15.7569 46.74 15.5149 46.538 15.3109 46.274C15.1109 46.006 14.9549 45.676 14.8429 45.284C14.7349 44.892 14.6809 44.444 14.6809 43.94C14.6809 43.484 14.7429 43.06 14.8669 42.668C14.9909 42.276 15.1689 41.936 15.4009 41.648C15.6329 41.36 15.9109 41.136 16.2349 40.976C16.5589 40.812 16.9229 40.73 17.3269 40.73C17.6709 40.73 17.9649 40.784 18.2089 40.892C18.4529 41 18.6709 41.146 18.8629 41.33V38.084H20.3449ZM26.1335 43.214C26.1335 43.022 26.1055 42.842 26.0495 42.674C25.9975 42.502 25.9175 42.352 25.8095 42.224C25.7015 42.096 25.5635 41.996 25.3955 41.924C25.2315 41.848 25.0395 41.81 24.8195 41.81C24.3915 41.81 24.0535 41.932 23.8055 42.176C23.5615 42.42 23.4055 42.766 23.3375 43.214H26.1335ZM23.3075 44.108C23.3315 44.424 23.3875 44.698 23.4755 44.93C23.5635 45.158 23.6795 45.348 23.8235 45.5C23.9675 45.648 24.1375 45.76 24.3335 45.836C24.5335 45.908 24.7535 45.944 24.9935 45.944C25.2335 45.944 25.4395 45.916 25.6115 45.86C25.7875 45.804 25.9395 45.742 26.0675 45.674C26.1995 45.606 26.3135 45.544 26.4095 45.488C26.5095 45.432 26.6055 45.404 26.6975 45.404C26.8215 45.404 26.9135 45.45 26.9735 45.542L27.3995 46.082C27.2355 46.274 27.0515 46.436 26.8475 46.568C26.6435 46.696 26.4295 46.8 26.2055 46.88C25.9855 46.956 25.7595 47.01 25.5275 47.042C25.2995 47.074 25.0775 47.09 24.8615 47.09C24.4335 47.09 24.0355 47.02 23.6675 46.88C23.2995 46.736 22.9795 46.526 22.7075 46.25C22.4355 45.97 22.2215 45.626 22.0655 45.218C21.9095 44.806 21.8315 44.33 21.8315 43.79C21.8315 43.37 21.8995 42.976 22.0355 42.608C22.1715 42.236 22.3655 41.914 22.6175 41.642C22.8735 41.366 23.1835 41.148 23.5475 40.988C23.9155 40.828 24.3295 40.748 24.7895 40.748C25.1775 40.748 25.5355 40.81 25.8635 40.934C26.1915 41.058 26.4735 41.24 26.7095 41.48C26.9455 41.716 27.1295 42.008 27.2615 42.356C27.3975 42.7 27.4655 43.094 27.4655 43.538C27.4655 43.762 27.4415 43.914 27.3935 43.994C27.3455 44.07 27.2535 44.108 27.1175 44.108H23.3075ZM30.3356 41.912C30.5276 41.544 30.7556 41.256 31.0196 41.048C31.2836 40.836 31.5956 40.73 31.9556 40.73C32.2396 40.73 32.4676 40.792 32.6396 40.916L32.5436 42.026C32.5236 42.098 32.4936 42.15 32.4536 42.182C32.4176 42.21 32.3676 42.224 32.3036 42.224C32.2436 42.224 32.1536 42.214 32.0336 42.194C31.9176 42.174 31.8036 42.164 31.6916 42.164C31.5276 42.164 31.3816 42.188 31.2536 42.236C31.1256 42.284 31.0096 42.354 30.9056 42.446C30.8056 42.534 30.7156 42.642 30.6356 42.77C30.5596 42.898 30.4876 43.044 30.4196 43.208V47H28.9376V40.844H29.8076C29.9596 40.844 30.0656 40.872 30.1256 40.928C30.1856 40.98 30.2256 41.076 30.2456 41.216L30.3356 41.912ZM36.9442 44.372C36.5162 44.392 36.1562 44.43 35.8642 44.486C35.5722 44.538 35.3382 44.606 35.1622 44.69C34.9862 44.774 34.8602 44.872 34.7842 44.984C34.7082 45.096 34.6702 45.218 34.6702 45.35C34.6702 45.61 34.7462 45.796 34.8982 45.908C35.0542 46.02 35.2562 46.076 35.5042 46.076C35.8082 46.076 36.0702 46.022 36.2902 45.914C36.5142 45.802 36.7322 45.634 36.9442 45.41V44.372ZM33.5482 41.702C34.2562 41.054 35.1082 40.73 36.1042 40.73C36.4642 40.73 36.7862 40.79 37.0702 40.91C37.3542 41.026 37.5942 41.19 37.7902 41.402C37.9862 41.61 38.1342 41.86 38.2342 42.152C38.3382 42.444 38.3902 42.764 38.3902 43.112V47H37.7182C37.5782 47 37.4702 46.98 37.3942 46.94C37.3182 46.896 37.2582 46.81 37.2142 46.682L37.0822 46.238C36.9262 46.378 36.7742 46.502 36.6262 46.61C36.4782 46.714 36.3242 46.802 36.1642 46.874C36.0042 46.946 35.8322 47 35.6482 47.036C35.4682 47.076 35.2682 47.096 35.0482 47.096C34.7882 47.096 34.5482 47.062 34.3282 46.994C34.1082 46.922 33.9182 46.816 33.7582 46.676C33.5982 46.536 33.4742 46.362 33.3862 46.154C33.2982 45.946 33.2542 45.704 33.2542 45.428C33.2542 45.272 33.2802 45.118 33.3322 44.966C33.3842 44.81 33.4682 44.662 33.5842 44.522C33.7042 44.382 33.8582 44.25 34.0462 44.126C34.2342 44.002 34.4642 43.894 34.7362 43.802C35.0122 43.71 35.3322 43.636 35.6962 43.58C36.0602 43.52 36.4762 43.484 36.9442 43.472V43.112C36.9442 42.7 36.8562 42.396 36.6802 42.2C36.5042 42 36.2502 41.9 35.9182 41.9C35.6782 41.9 35.4782 41.928 35.3182 41.984C35.1622 42.04 35.0242 42.104 34.9042 42.176C34.7842 42.244 34.6742 42.306 34.5742 42.362C34.4782 42.418 34.3702 42.446 34.2502 42.446C34.1462 42.446 34.0582 42.42 33.9862 42.368C33.9142 42.312 33.8562 42.248 33.8122 42.176L33.5482 41.702ZM41.6459 38.084V47H40.1639V38.084H41.6459ZM48.2424 45.404C48.4104 45.608 48.5924 45.752 48.7884 45.836C48.9884 45.92 49.2044 45.962 49.4364 45.962C49.6604 45.962 49.8624 45.92 50.0424 45.836C50.2224 45.752 50.3744 45.624 50.4984 45.452C50.6264 45.28 50.7244 45.064 50.7924 44.804C50.8604 44.54 50.8944 44.23 50.8944 43.874C50.8944 43.514 50.8644 43.21 50.8044 42.962C50.7484 42.71 50.6664 42.506 50.5584 42.35C50.4504 42.194 50.3184 42.08 50.1624 42.008C50.0104 41.936 49.8364 41.9 49.6404 41.9C49.3324 41.9 49.0704 41.966 48.8544 42.098C48.6384 42.226 48.4344 42.408 48.2424 42.644V45.404ZM48.1644 41.684C48.4164 41.4 48.7024 41.17 49.0224 40.994C49.3424 40.818 49.7184 40.73 50.1504 40.73C50.4864 40.73 50.7924 40.8 51.0684 40.94C51.3484 41.08 51.5884 41.284 51.7884 41.552C51.9924 41.816 52.1484 42.144 52.2564 42.536C52.3684 42.924 52.4244 43.37 52.4244 43.874C52.4244 44.334 52.3624 44.76 52.2384 45.152C52.1144 45.544 51.9364 45.884 51.7044 46.172C51.4764 46.46 51.1984 46.686 50.8704 46.85C50.5464 47.01 50.1824 47.09 49.7784 47.09C49.4344 47.09 49.1404 47.038 48.8964 46.934C48.6524 46.826 48.4344 46.678 48.2424 46.49V49.01H46.7604V40.844H47.6664C47.8584 40.844 47.9844 40.934 48.0444 41.114L48.1644 41.684ZM56.6648 40.748C57.1208 40.748 57.5348 40.822 57.9068 40.97C58.2828 41.118 58.6028 41.328 58.8668 41.6C59.1348 41.872 59.3408 42.204 59.4848 42.596C59.6288 42.988 59.7008 43.426 59.7008 43.91C59.7008 44.398 59.6288 44.838 59.4848 45.23C59.3408 45.622 59.1348 45.956 58.8668 46.232C58.6028 46.508 58.2828 46.72 57.9068 46.868C57.5348 47.016 57.1208 47.09 56.6648 47.09C56.2048 47.09 55.7868 47.016 55.4108 46.868C55.0348 46.72 54.7128 46.508 54.4448 46.232C54.1808 45.956 53.9748 45.622 53.8268 45.23C53.6828 44.838 53.6108 44.398 53.6108 43.91C53.6108 43.426 53.6828 42.988 53.8268 42.596C53.9748 42.204 54.1808 41.872 54.4448 41.6C54.7128 41.328 55.0348 41.118 55.4108 40.97C55.7868 40.822 56.2048 40.748 56.6648 40.748ZM56.6648 45.95C57.1768 45.95 57.5548 45.778 57.7988 45.434C58.0468 45.09 58.1708 44.586 58.1708 43.922C58.1708 43.258 58.0468 42.752 57.7988 42.404C57.5548 42.056 57.1768 41.882 56.6648 41.882C56.1448 41.882 55.7588 42.058 55.5068 42.41C55.2588 42.758 55.1348 43.262 55.1348 43.922C55.1348 44.582 55.2588 45.086 55.5068 45.434C55.7588 45.778 56.1448 45.95 56.6648 45.95ZM66.5539 40.844L64.1119 47H62.7679L60.3259 40.844H61.5499C61.6619 40.844 61.7539 40.87 61.8259 40.922C61.9019 40.974 61.9519 41.04 61.9759 41.12L63.1639 44.408C63.2279 44.6 63.2839 44.788 63.3319 44.972C63.3799 45.156 63.4219 45.34 63.4579 45.524C63.4979 45.34 63.5419 45.156 63.5899 44.972C63.6379 44.788 63.6959 44.6 63.7639 44.408L64.9759 41.12C65.0039 41.04 65.0539 40.974 65.1259 40.922C65.1979 40.87 65.2839 40.844 65.3839 40.844H66.5539ZM71.4822 43.214C71.4822 43.022 71.4542 42.842 71.3982 42.674C71.3462 42.502 71.2662 42.352 71.1582 42.224C71.0502 42.096 70.9122 41.996 70.7442 41.924C70.5802 41.848 70.3882 41.81 70.1682 41.81C69.7402 41.81 69.4022 41.932 69.1542 42.176C68.9102 42.42 68.7542 42.766 68.6862 43.214H71.4822ZM68.6562 44.108C68.6802 44.424 68.7362 44.698 68.8242 44.93C68.9122 45.158 69.0282 45.348 69.1722 45.5C69.3162 45.648 69.4862 45.76 69.6822 45.836C69.8822 45.908 70.1022 45.944 70.3422 45.944C70.5822 45.944 70.7882 45.916 70.9602 45.86C71.1362 45.804 71.2882 45.742 71.4162 45.674C71.5482 45.606 71.6622 45.544 71.7582 45.488C71.8582 45.432 71.9542 45.404 72.0462 45.404C72.1702 45.404 72.2622 45.45 72.3222 45.542L72.7482 46.082C72.5842 46.274 72.4002 46.436 72.1962 46.568C71.9922 46.696 71.7782 46.8 71.5542 46.88C71.3342 46.956 71.1082 47.01 70.8762 47.042C70.6482 47.074 70.4262 47.09 70.2102 47.09C69.7822 47.09 69.3842 47.02 69.0162 46.88C68.6482 46.736 68.3282 46.526 68.0562 46.25C67.7842 45.97 67.5702 45.626 67.4142 45.218C67.2582 44.806 67.1802 44.33 67.1802 43.79C67.1802 43.37 67.2482 42.976 67.3842 42.608C67.5202 42.236 67.7142 41.914 67.9662 41.642C68.2222 41.366 68.5322 41.148 68.8962 40.988C69.2642 40.828 69.6782 40.748 70.1382 40.748C70.5262 40.748 70.8842 40.81 71.2122 40.934C71.5402 41.058 71.8222 41.24 72.0582 41.48C72.2942 41.716 72.4782 42.008 72.6102 42.356C72.7462 42.7 72.8142 43.094 72.8142 43.538C72.8142 43.762 72.7902 43.914 72.7422 43.994C72.6942 44.07 72.6022 44.108 72.4662 44.108H68.6562ZM75.6844 41.912C75.8764 41.544 76.1044 41.256 76.3684 41.048C76.6324 40.836 76.9444 40.73 77.3044 40.73C77.5884 40.73 77.8164 40.792 77.9884 40.916L77.8924 42.026C77.8724 42.098 77.8424 42.15 77.8024 42.182C77.7664 42.21 77.7164 42.224 77.6524 42.224C77.5924 42.224 77.5024 42.214 77.3824 42.194C77.2664 42.174 77.1524 42.164 77.0404 42.164C76.8764 42.164 76.7304 42.188 76.6024 42.236C76.4744 42.284 76.3584 42.354 76.2544 42.446C76.1544 42.534 76.0644 42.642 75.9844 42.77C75.9084 42.898 75.8364 43.044 75.7684 43.208V47H74.2864V40.844H75.1564C75.3084 40.844 75.4144 40.872 75.4744 40.928C75.5344 40.98 75.5744 41.076 75.5944 41.216L75.6844 41.912ZM81.1749 47.096C80.6389 47.096 80.2269 46.946 79.9389 46.646C79.6549 46.342 79.5129 45.924 79.5129 45.392V41.954H78.8829C78.8029 41.954 78.7349 41.928 78.6789 41.876C78.6229 41.824 78.5949 41.746 78.5949 41.642V41.054L79.5849 40.892L79.8969 39.212C79.9169 39.132 79.9549 39.07 80.0109 39.026C80.0669 38.982 80.1389 38.96 80.2269 38.96H80.9949V40.898H82.6389V41.954H80.9949V45.29C80.9949 45.482 81.0409 45.632 81.1329 45.74C81.2289 45.848 81.3589 45.902 81.5229 45.902C81.6149 45.902 81.6909 45.892 81.7509 45.872C81.8149 45.848 81.8689 45.824 81.9129 45.8C81.9609 45.776 82.0029 45.754 82.0389 45.734C82.0749 45.71 82.1109 45.698 82.1469 45.698C82.1909 45.698 82.2269 45.71 82.2549 45.734C82.2829 45.754 82.3129 45.786 82.3449 45.83L82.7889 46.55C82.5729 46.73 82.3249 46.866 82.0449 46.958C81.7649 47.05 81.4749 47.096 81.1749 47.096ZM89.5398 40.844L86.1858 48.692C86.1418 48.796 86.0838 48.874 86.0118 48.926C85.9438 48.982 85.8378 49.01 85.6938 49.01H84.5898L85.7418 46.538L83.2518 40.844H84.5538C84.6698 40.844 84.7598 40.872 84.8238 40.928C84.8918 40.984 84.9418 41.048 84.9738 41.12L86.2818 44.312C86.3258 44.42 86.3618 44.528 86.3898 44.636C86.4218 44.744 86.4518 44.854 86.4798 44.966C86.5158 44.854 86.5518 44.744 86.5878 44.636C86.6238 44.524 86.6638 44.414 86.7078 44.306L87.9438 41.12C87.9758 41.04 88.0278 40.974 88.0998 40.922C88.1758 40.87 88.2598 40.844 88.3518 40.844H89.5398ZM95.1092 38.084V47H93.6272V38.084H95.1092ZM100.912 43.214C100.912 43.022 100.884 42.842 100.828 42.674C100.776 42.502 100.696 42.352 100.588 42.224C100.48 42.096 100.342 41.996 100.174 41.924C100.01 41.848 99.8178 41.81 99.5978 41.81C99.1698 41.81 98.8318 41.932 98.5838 42.176C98.3398 42.42 98.1838 42.766 98.1158 43.214H100.912ZM98.0858 44.108C98.1098 44.424 98.1658 44.698 98.2538 44.93C98.3418 45.158 98.4578 45.348 98.6018 45.5C98.7458 45.648 98.9158 45.76 99.1118 45.836C99.3118 45.908 99.5318 45.944 99.7718 45.944C100.012 45.944 100.218 45.916 100.39 45.86C100.566 45.804 100.718 45.742 100.846 45.674C100.978 45.606 101.092 45.544 101.188 45.488C101.288 45.432 101.384 45.404 101.476 45.404C101.6 45.404 101.692 45.45 101.752 45.542L102.178 46.082C102.014 46.274 101.83 46.436 101.626 46.568C101.422 46.696 101.208 46.8 100.984 46.88C100.764 46.956 100.538 47.01 100.306 47.042C100.078 47.074 99.8558 47.09 99.6398 47.09C99.2118 47.09 98.8138 47.02 98.4458 46.88C98.0778 46.736 97.7578 46.526 97.4858 46.25C97.2138 45.97 96.9998 45.626 96.8438 45.218C96.6878 44.806 96.6098 44.33 96.6098 43.79C96.6098 43.37 96.6778 42.976 96.8138 42.608C96.9498 42.236 97.1438 41.914 97.3958 41.642C97.6518 41.366 97.9618 41.148 98.3258 40.988C98.6938 40.828 99.1078 40.748 99.5678 40.748C99.9558 40.748 100.314 40.81 100.642 40.934C100.97 41.058 101.252 41.24 101.488 41.48C101.724 41.716 101.908 42.008 102.04 42.356C102.176 42.7 102.244 43.094 102.244 43.538C102.244 43.762 102.22 43.914 102.172 43.994C102.124 44.07 102.032 44.108 101.896 44.108H98.0858ZM109.114 40.844L106.672 47H105.328L102.886 40.844H104.11C104.222 40.844 104.314 40.87 104.386 40.922C104.462 40.974 104.512 41.04 104.536 41.12L105.724 44.408C105.788 44.6 105.844 44.788 105.892 44.972C105.94 45.156 105.982 45.34 106.018 45.524C106.058 45.34 106.102 45.156 106.15 44.972C106.198 44.788 106.256 44.6 106.324 44.408L107.536 41.12C107.564 41.04 107.614 40.974 107.686 40.922C107.758 40.87 107.844 40.844 107.944 40.844H109.114ZM114.042 43.214C114.042 43.022 114.014 42.842 113.958 42.674C113.906 42.502 113.826 42.352 113.718 42.224C113.61 42.096 113.472 41.996 113.304 41.924C113.14 41.848 112.948 41.81 112.728 41.81C112.3 41.81 111.962 41.932 111.714 42.176C111.47 42.42 111.314 42.766 111.246 43.214H114.042ZM111.216 44.108C111.24 44.424 111.296 44.698 111.384 44.93C111.472 45.158 111.588 45.348 111.732 45.5C111.876 45.648 112.046 45.76 112.242 45.836C112.442 45.908 112.662 45.944 112.902 45.944C113.142 45.944 113.348 45.916 113.52 45.86C113.696 45.804 113.848 45.742 113.976 45.674C114.108 45.606 114.222 45.544 114.318 45.488C114.418 45.432 114.514 45.404 114.606 45.404C114.73 45.404 114.822 45.45 114.882 45.542L115.308 46.082C115.144 46.274 114.96 46.436 114.756 46.568C114.552 46.696 114.338 46.8 114.114 46.88C113.894 46.956 113.668 47.01 113.436 47.042C113.208 47.074 112.986 47.09 112.77 47.09C112.342 47.09 111.944 47.02 111.576 46.88C111.208 46.736 110.888 46.526 110.616 46.25C110.344 45.97 110.13 45.626 109.974 45.218C109.818 44.806 109.74 44.33 109.74 43.79C109.74 43.37 109.808 42.976 109.944 42.608C110.08 42.236 110.274 41.914 110.526 41.642C110.782 41.366 111.092 41.148 111.456 40.988C111.824 40.828 112.238 40.748 112.698 40.748C113.086 40.748 113.444 40.81 113.772 40.934C114.1 41.058 114.382 41.24 114.618 41.48C114.854 41.716 115.038 42.008 115.17 42.356C115.306 42.7 115.374 43.094 115.374 43.538C115.374 43.762 115.35 43.914 115.302 43.994C115.254 44.07 115.162 44.108 115.026 44.108H111.216ZM118.346 38.084V47H116.864V38.084H118.346Z" fill="black"/>
<defs>
<linearGradient id="paint0_linear" x1="199" y1="70.5" x2="0.0140115" y2="72.7436" gradientUnits="userSpaceOnUse">
<stop stop-color="#306ED5"/>
<stop offset="1" stop-color="#F1F1F1"/>
</linearGradient>
</defs>
</svg>
