<svg width="139" height="118" viewBox="0 0 139 118" fill="none" xmlns="http://www.w3.org/2000/svg">
<path d="M10.2996 11.4C13.4476 11.4 15.9996 8.84802 15.9996 5.7C15.9996 2.55198 13.4476 0 10.2996 0C7.15159 0 4.59961 2.55198 4.59961 5.7C4.59961 8.84802 7.15159 11.4 10.2996 11.4Z" fill="#F79406"/>
<path d="M14.4 13.9H6.1C2.7 13.9 0 16.7 0 20V36.1H3.6V23.4H4.7V36.2H15.9V23.4H17V36.2H20.6V20.1C20.6 16.7 17.8 13.9 14.4 13.9Z" fill="#F79406"/>
<path d="M39.8992 11.4C43.0472 11.4 45.5992 8.84802 45.5992 5.7C45.5992 2.55198 43.0472 0 39.8992 0C36.7512 0 34.1992 2.55198 34.1992 5.7C34.1992 8.84802 36.7512 11.4 39.8992 11.4Z" fill="#F79406"/>
<path d="M43.9996 13.9H35.6996C32.2996 13.9 29.5996 16.7 29.5996 20V36.1H33.1996V23.4H34.2996V36.2H45.4996V23.4H46.5996V36.2H50.1996V20.1C50.1996 16.7 47.3996 13.9 43.9996 13.9Z" fill="#F79406"/>
<path d="M69.4988 11.4C72.6469 11.4 75.1988 8.84802 75.1988 5.7C75.1988 2.55198 72.6469 0 69.4988 0C66.3508 0 63.7988 2.55198 63.7988 5.7C63.7988 8.84802 66.3508 11.4 69.4988 11.4Z" fill="#F79406"/>
<path d="M73.5992 13.9H65.2992C61.8992 13.9 59.1992 16.7 59.1992 20V36.1H62.7992V23.4H63.8992V36.2H75.0992V23.4H76.1992V36.2H79.7992V20.1C79.7992 16.7 76.9992 13.9 73.5992 13.9Z" fill="#F79406"/>
<path d="M99.1004 11.4C102.248 11.4 104.8 8.84802 104.8 5.7C104.8 2.55198 102.248 0 99.1004 0C95.9524 0 93.4004 2.55198 93.4004 5.7C93.4004 8.84802 95.9524 11.4 99.1004 11.4Z" fill="#EBEBEB"/>
<path d="M103.201 13.9H94.9008C91.5008 13.9 88.8008 16.7 88.8008 20V36.1H92.4008V23.4H93.5008V36.2H104.701V23.4H105.801V36.2H109.401V20.1C109.401 16.7 106.601 13.9 103.201 13.9Z" fill="#EBEBEB"/>
<mask id="mask0" mask-type="alpha" maskUnits="userSpaceOnUse" x="88" y="13" width="22" height="24">
<path d="M103.201 13.9H94.9008C91.5008 13.9 88.8008 16.7 88.8008 20V36.1H92.4008V23.4H93.5008V36.2H104.701V23.4H105.801V36.2H109.401V20.1C109.401 16.7 106.601 13.9 103.201 13.9Z" fill="#EBEBEB"/>
</mask>
<g mask="url(#mask0)">
<rect width="20" height="8" transform="matrix(1 0 0 -1 89 36)" fill="#F79406"/>
</g>
<path d="M128.7 11.4C131.848 11.4 134.4 8.84802 134.4 5.7C134.4 2.55198 131.848 0 128.7 0C125.552 0 123 2.55198 123 5.7C123 8.84802 125.552 11.4 128.7 11.4Z" fill="#EBEBEB"/>
<path d="M132.8 13.9H124.5C121.1 13.9 118.4 16.7 118.4 20V36.1H122V23.4H123.1V36.2H134.3V23.4H135.4V36.2H139V20.1C139 16.7 136.2 13.9 132.8 13.9Z" fill="#EBEBEB"/>
<path d="M10.2996 56.6C13.4476 56.6 15.9996 54.048 15.9996 50.9C15.9996 47.7519 13.4476 45.2 10.2996 45.2C7.15159 45.2 4.59961 47.7519 4.59961 50.9C4.59961 54.048 7.15159 56.6 10.2996 56.6Z" fill="#EBEBEB"/>
<path d="M14.4 59.1H6.1C2.7 59.1 0 61.9 0 65.2V81.3H3.6V68.6H4.7V81.4H15.9V68.6H17V81.4H20.6V65.3C20.6 61.9 17.8 59.1 14.4 59.1Z" fill="#EBEBEB"/>
<path d="M39.8992 56.6C43.0472 56.6 45.5992 54.048 45.5992 50.9C45.5992 47.7519 43.0472 45.2 39.8992 45.2C36.7512 45.2 34.1992 47.7519 34.1992 50.9C34.1992 54.048 36.7512 56.6 39.8992 56.6Z" fill="#EBEBEB"/>
<path d="M43.9996 59.1H35.6996C32.2996 59.1 29.5996 61.9 29.5996 65.2V81.3H33.1996V68.6H34.2996V81.4H45.4996V68.6H46.5996V81.4H50.1996V65.3C50.1996 61.9 47.3996 59.1 43.9996 59.1Z" fill="#EBEBEB"/>
<mask id="mask1" mask-type="alpha" maskUnits="userSpaceOnUse" x="29" y="59" width="22" height="23">
<path d="M43.9996 59.1H35.6996C32.2996 59.1 29.5996 61.9 29.5996 65.2V81.3H33.1996V68.6H34.2996V81.4H45.4996V68.6H46.5996V81.4H50.1996V65.3C50.1996 61.9 47.3996 59.1 43.9996 59.1Z" fill="#EBEBEB"/>
</mask>
<g mask="url(#mask1)">
<rect width="20.6" height="1" transform="matrix(1 0 0 -1 29.5996 81.3999)" fill="#EBEBEB"/>
</g>
<path d="M69.4988 56.6C72.6469 56.6 75.1988 54.048 75.1988 50.9C75.1988 47.7519 72.6469 45.2 69.4988 45.2C66.3508 45.2 63.7988 47.7519 63.7988 50.9C63.7988 54.048 66.3508 56.6 69.4988 56.6Z" fill="#EBEBEB"/>
<path d="M73.5992 59.1H65.2992C61.8992 59.1 59.1992 61.9 59.1992 65.2V81.3H62.7992V68.6H63.8992V81.4H75.0992V68.6H76.1992V81.4H79.7992V65.3C79.7992 61.9 76.9992 59.1 73.5992 59.1Z" fill="#EBEBEB"/>
<path d="M99.1004 56.6C102.248 56.6 104.8 54.048 104.8 50.9C104.8 47.7519 102.248 45.2 99.1004 45.2C95.9524 45.2 93.4004 47.7519 93.4004 50.9C93.4004 54.048 95.9524 56.6 99.1004 56.6Z" fill="#EBEBEB"/>
<path d="M103.201 59.1H94.9008C91.5008 59.1 88.8008 61.9 88.8008 65.2V81.3H92.4008V68.6H93.5008V81.4H104.701V68.6H105.801V81.4H109.401V65.3C109.401 61.9 106.601 59.1 103.201 59.1Z" fill="#EBEBEB"/>
<path d="M128.7 56.6C131.848 56.6 134.4 54.048 134.4 50.9C134.4 47.7519 131.848 45.2 128.7 45.2C125.552 45.2 123 47.7519 123 50.9C123 54.048 125.552 56.6 128.7 56.6Z" fill="#EBEBEB"/>
<path d="M132.8 59.1H124.5C121.1 59.1 118.4 61.9 118.4 65.2V81.3H122V68.6H123.1V81.4H134.3V68.6H135.4V81.4H139V65.3C139 61.9 136.2 59.1 132.8 59.1Z" fill="#EBEBEB"/>
<path d="M5.634 102.532C5.514 104.884 5.454 106.756 5.454 108.148C5.454 108.868 5.472 109.552 5.508 110.2C5.604 110.272 5.79 110.308 6.066 110.308L6.48 110.29C6.648 110.266 6.804 110.254 6.948 110.254C7.26 110.254 7.5 110.308 7.668 110.416C7.848 110.524 7.938 110.734 7.938 111.046C7.938 111.346 7.848 111.58 7.668 111.748C7.5 111.916 7.146 112 6.606 112C6.15 112 5.598 111.964 4.95 111.892C4.794 111.88 4.644 111.868 4.5 111.856C4.356 111.844 4.224 111.838 4.104 111.838C3.444 111.85 2.952 111.874 2.628 111.91C2.304 111.946 1.938 111.964 1.53 111.964C1.158 111.964 0.972 111.682 0.972 111.118C0.972 110.578 1.32 110.308 2.016 110.308C2.124 110.308 2.298 110.32 2.538 110.344C2.742 110.38 2.958 110.398 3.186 110.398C3.318 110.398 3.426 110.392 3.51 110.38C3.522 109.576 3.564 108.406 3.636 106.87C3.708 105.07 3.744 103.738 3.744 102.874C3.684 102.886 3.474 102.97 3.114 103.126C2.562 103.402 2.154 103.54 1.89 103.54C1.746 103.54 1.614 103.468 1.494 103.324C1.374 103.168 1.314 102.988 1.314 102.784C1.314 102.58 1.44 102.382 1.692 102.19C1.944 101.998 2.352 101.746 2.916 101.434C3.228 101.278 3.528 101.104 3.816 100.912C3.888 100.864 3.99 100.816 4.122 100.768C4.266 100.72 4.374 100.696 4.446 100.696C4.758 100.696 5.04 100.762 5.292 100.894C5.556 101.014 5.688 101.176 5.688 101.38L5.634 102.532ZM15.8916 100.444C16.0836 100.444 16.2396 100.498 16.3596 100.606C16.4796 100.702 16.5396 100.822 16.5396 100.966C16.5396 101.098 16.5096 101.218 16.4496 101.326C16.0536 101.95 15.7116 102.532 15.4236 103.072C15.1356 103.612 14.7756 104.314 14.3436 105.178C14.1756 105.514 13.9056 106.048 13.5336 106.78C13.3536 107.128 13.0956 107.698 12.7596 108.49C12.2676 109.594 11.8656 110.434 11.5536 111.01C11.1816 111.73 10.7556 112.09 10.2756 112.09C9.66361 112.09 9.35761 111.874 9.35761 111.442C9.35761 111.274 9.41161 111.118 9.51961 110.974C10.1676 110.026 10.7196 109.108 11.1756 108.22C11.6436 107.32 12.1476 106.27 12.6876 105.07C13.2996 103.702 13.8156 102.634 14.2356 101.866C14.4396 101.458 14.6556 101.122 14.8836 100.858C15.1236 100.582 15.4596 100.444 15.8916 100.444ZM23.2158 104.8C24.1998 105.016 25.0158 105.442 25.6638 106.078C26.3118 106.714 26.6358 107.452 26.6358 108.292C26.6358 108.796 26.5158 109.288 26.2758 109.768C25.8918 110.536 25.3158 111.112 24.5478 111.496C23.7918 111.88 22.9158 112.072 21.9198 112.072C21.2958 112.072 20.7378 111.958 20.2458 111.73C19.7538 111.49 19.2678 111.172 18.7878 110.776C18.6078 110.608 18.4458 110.368 18.3018 110.056C18.1698 109.744 18.1038 109.486 18.1038 109.282C18.1038 109.018 18.1758 108.808 18.3198 108.652C18.4758 108.484 18.6798 108.4 18.9318 108.4C19.1838 108.4 19.3818 108.46 19.5258 108.58C19.6698 108.7 19.8438 108.892 20.0478 109.156C20.2398 109.408 20.4138 109.612 20.5698 109.768C20.7258 109.912 20.9358 110.038 21.1998 110.146C21.4638 110.254 21.7938 110.308 22.1898 110.308C22.9938 110.308 23.6238 110.11 24.0798 109.714C24.5358 109.318 24.7638 108.76 24.7638 108.04C24.7638 107.764 24.6138 107.488 24.3138 107.212C24.0138 106.924 23.7318 106.72 23.4678 106.6C23.3118 106.516 23.0238 106.432 22.6038 106.348C22.0398 106.204 21.6138 106.066 21.3258 105.934C21.0498 105.79 20.9118 105.568 20.9118 105.268C20.9118 105.064 21.0018 104.866 21.1818 104.674C21.3618 104.47 21.6318 104.218 21.9918 103.918C22.3518 103.618 22.6218 103.372 22.8018 103.18C22.9818 102.976 23.0718 102.772 23.0718 102.568C22.8438 102.508 22.5018 102.478 22.0458 102.478C21.8418 102.478 21.5358 102.49 21.1278 102.514C20.7678 102.538 20.4918 102.55 20.2998 102.55C19.8678 102.55 19.4958 102.478 19.1838 102.334C18.8838 102.19 18.7338 102.004 18.7338 101.776C18.7338 101.524 18.7578 101.326 18.8058 101.182C18.8538 101.026 18.9438 100.93 19.0758 100.894C19.1598 100.858 19.3098 100.84 19.5258 100.84C20.1138 100.84 20.6238 100.858 21.0558 100.894C21.5358 100.918 21.9018 100.93 22.1538 100.93L23.6478 100.912C24.8718 100.912 25.4838 101.206 25.4838 101.794C25.4838 102.238 25.2558 102.742 24.7998 103.306C24.3558 103.858 23.8278 104.356 23.2158 104.8Z" fill="black"/>
</svg>
