<svg width="201" height="105" viewBox="0 0 201 105" fill="none" xmlns="http://www.w3.org/2000/svg">
<rect y="65" width="201" height="19" fill="url(#paint0_linear)"/>
<path d="M11.4966 93.848C11.8926 94.46 12.2106 95.162 12.4506 95.954C12.6906 96.734 12.8106 97.532 12.8106 98.348C12.8106 99.32 12.6426 100.244 12.3066 101.12C11.9826 101.996 11.4906 102.71 10.8306 103.262C10.1826 103.814 9.39061 104.09 8.45461 104.09C7.57861 104.09 6.77461 103.868 6.04261 103.424C5.31061 102.968 4.75861 102.44 4.38661 101.84C4.11061 101.396 3.90061 100.898 3.75661 100.346C3.61261 99.782 3.54061 99.218 3.54061 98.654C3.54061 97.67 3.74461 96.71 4.15261 95.774C4.57261 94.838 5.14861 94.088 5.88061 93.524C6.57661 93.008 7.37461 92.75 8.27461 92.75C9.27061 92.75 10.3446 93.116 11.4966 93.848ZM6.67261 95.09C6.56461 95.27 6.45661 95.432 6.34861 95.576C6.08461 95.972 5.89261 96.308 5.77261 96.584C5.65261 96.848 5.54461 97.256 5.44861 97.808C5.40061 98.06 5.37661 98.354 5.37661 98.69C5.37661 99.542 5.54461 100.28 5.88061 100.904C6.22861 101.516 6.70261 101.93 7.30261 102.146C7.59061 102.254 7.91461 102.308 8.27461 102.308C9.17461 102.308 9.85261 101.912 10.3086 101.12C10.7766 100.316 11.0106 99.326 11.0106 98.15C11.0106 97.058 10.8066 96.164 10.3986 95.468C9.99061 94.76 9.36061 94.406 8.50861 94.406C8.16061 94.406 7.86061 94.46 7.60861 94.568C7.36861 94.676 7.05661 94.85 6.67261 95.09ZM25.0364 92.444C25.2044 92.444 25.3304 92.51 25.4144 92.642C25.4984 92.774 25.5404 92.924 25.5404 93.092C25.5404 93.32 25.4444 93.548 25.2524 93.776L24.5504 94.676C23.1824 96.464 22.0844 97.946 21.2564 99.122C20.4284 100.298 19.6304 101.588 18.8624 102.992C18.4904 103.712 18.0644 104.072 17.5844 104.072C17.3684 104.072 17.1764 104.018 17.0084 103.91C16.8404 103.79 16.7564 103.592 16.7564 103.316C16.7564 103.136 16.8104 102.986 16.9184 102.866C17.3144 102.302 18.0224 101.252 19.0424 99.716C20.0024 98.288 20.7944 97.124 21.4184 96.224C22.0544 95.312 22.6724 94.484 23.2724 93.74C23.3204 93.68 23.4344 93.53 23.6144 93.29C23.8064 93.05 24.0224 92.852 24.2624 92.696C24.5024 92.528 24.7604 92.444 25.0364 92.444ZM17.9084 92.642C18.2684 92.642 18.6344 92.726 19.0064 92.894C19.3904 93.062 19.7084 93.302 19.9604 93.614C20.2124 93.914 20.3384 94.25 20.3384 94.622C20.3384 95.15 20.2244 95.63 19.9964 96.062C19.7684 96.494 19.4564 96.836 19.0604 97.088C18.6644 97.328 18.2264 97.448 17.7464 97.448C16.9904 97.448 16.3844 97.226 15.9284 96.782C15.4724 96.326 15.2444 95.732 15.2444 95C15.2444 94.232 15.4784 93.65 15.9464 93.254C16.4264 92.846 17.0804 92.642 17.9084 92.642ZM17.5124 96.08C18.3764 96.08 18.8084 95.618 18.8084 94.694C18.8084 94.466 18.7244 94.298 18.5564 94.19C18.4004 94.082 18.1484 94.028 17.8004 94.028C17.4164 94.028 17.1224 94.13 16.9184 94.334C16.7264 94.526 16.6304 94.748 16.6304 95C16.6304 95.276 16.7144 95.528 16.8824 95.756C17.0504 95.972 17.2604 96.08 17.5124 96.08ZM26.6564 101.48C26.6564 101.948 26.5244 102.368 26.2604 102.74C26.0084 103.1 25.6664 103.382 25.2344 103.586C24.8144 103.79 24.3704 103.892 23.9024 103.892C23.5064 103.892 23.1344 103.796 22.7864 103.604C22.4384 103.4 22.1564 103.124 21.9404 102.776C21.7364 102.428 21.6344 102.038 21.6344 101.606C21.6344 101.162 21.7424 100.742 21.9584 100.346C22.1864 99.95 22.5104 99.632 22.9304 99.392C23.3504 99.14 23.8424 99.014 24.4064 99.014C25.1384 99.014 25.6964 99.23 26.0804 99.662C26.4644 100.082 26.6564 100.688 26.6564 101.48ZM24.2624 100.382C23.9144 100.382 23.6324 100.472 23.4164 100.652C23.2124 100.832 23.1104 101.114 23.1104 101.498C23.1104 101.834 23.1944 102.092 23.3624 102.272C23.5304 102.452 23.7104 102.542 23.9024 102.542C24.8264 102.542 25.2884 102.128 25.2884 101.3C25.2884 101.024 25.1984 100.802 25.0184 100.634C24.8384 100.466 24.5864 100.382 24.2624 100.382Z" fill="black"/>
<path d="M176.798 93.488C176.642 94.22 176.444 94.946 176.204 95.666C175.976 96.386 175.682 97.214 175.322 98.15C174.71 99.794 174.278 101.12 174.026 102.128C173.822 102.812 173.63 103.304 173.45 103.604C173.27 103.904 173.06 104.054 172.82 104.054C172.628 104.054 172.37 103.94 172.046 103.712C171.962 103.604 171.92 103.454 171.92 103.262C171.92 103.106 171.962 102.878 172.046 102.578C172.13 102.266 172.232 101.924 172.352 101.552L172.568 100.904C172.724 100.388 172.988 99.692 173.36 98.816C173.636 98.144 173.882 97.496 174.098 96.872C174.326 96.248 174.548 95.504 174.764 94.64C174.14 94.832 173.522 94.928 172.91 94.928C172.61 94.928 172.154 94.886 171.542 94.802C171.038 94.73 170.678 94.694 170.462 94.694C170.474 94.874 170.564 95.216 170.732 95.72C170.936 96.236 171.038 96.626 171.038 96.89C171.038 97.046 170.984 97.178 170.876 97.286C170.768 97.394 170.594 97.448 170.354 97.448C170.042 97.448 169.802 97.352 169.634 97.16C169.478 96.956 169.346 96.728 169.238 96.476C169.142 96.212 169.07 96.032 169.022 95.936C168.854 95.552 168.722 95.156 168.626 94.748C168.53 94.328 168.482 93.956 168.482 93.632C168.482 93.44 168.53 93.272 168.626 93.128C168.734 92.984 168.854 92.912 168.986 92.912C169.166 92.936 169.436 92.984 169.796 93.056C170.372 93.152 170.852 93.23 171.236 93.29C171.632 93.338 172.052 93.362 172.496 93.362C173.588 93.362 174.428 93.17 175.016 92.786C175.1 92.738 175.226 92.714 175.394 92.714C175.706 92.714 176.018 92.792 176.33 92.948C176.642 93.092 176.798 93.272 176.798 93.488ZM181.444 94.568C181.36 94.904 181.306 95.348 181.282 95.9C181.258 96.38 181.222 96.74 181.174 96.98C181.522 96.836 181.852 96.746 182.164 96.71C182.476 96.662 182.872 96.638 183.352 96.638C184.096 96.638 184.744 96.812 185.296 97.16C185.848 97.496 186.268 97.952 186.556 98.528C186.844 99.092 186.988 99.698 186.988 100.346C186.988 100.598 186.904 100.94 186.736 101.372C186.568 101.792 186.394 102.116 186.214 102.344C185.794 102.896 185.308 103.322 184.756 103.622C184.204 103.91 183.604 104.054 182.956 104.054C182.464 104.054 182.014 103.988 181.606 103.856C181.21 103.712 180.784 103.52 180.328 103.28C179.86 103.028 179.518 102.77 179.302 102.506C179.098 102.23 178.996 101.888 178.996 101.48C178.996 101.264 179.086 101.09 179.266 100.958C179.458 100.814 179.638 100.742 179.806 100.742C179.914 100.742 180.01 100.772 180.094 100.832C180.178 100.892 180.316 101.012 180.508 101.192L180.958 101.624C181.246 101.864 181.528 102.044 181.804 102.164C182.092 102.284 182.44 102.344 182.848 102.344C183.22 102.344 183.52 102.296 183.748 102.2C184.204 102.02 184.558 101.786 184.81 101.498C185.074 101.21 185.206 100.748 185.206 100.112C185.206 99.5 185.002 99.026 184.594 98.69C184.186 98.342 183.496 98.168 182.524 98.168C182.392 98.168 182.2 98.204 181.948 98.276C181.696 98.348 181.45 98.426 181.21 98.51C180.634 98.702 180.28 98.798 180.148 98.798C179.98 98.798 179.812 98.726 179.644 98.582C179.476 98.438 179.392 98.246 179.392 98.006C179.608 96.554 179.716 95.348 179.716 94.388L179.698 93.938C179.674 93.722 179.662 93.542 179.662 93.398C179.662 93.182 179.776 93.02 180.004 92.912C180.244 92.792 180.49 92.732 180.742 92.732C180.958 92.732 181.426 92.768 182.146 92.84L183.01 92.912C183.118 92.924 183.28 92.93 183.496 92.93L184.162 92.912C184.294 92.9 184.486 92.894 184.738 92.894C185.098 92.894 185.398 92.948 185.638 93.056C185.878 93.164 185.998 93.338 185.998 93.578C185.998 93.95 185.938 94.22 185.818 94.388C185.698 94.556 185.56 94.64 185.404 94.64C185.26 94.64 185.02 94.616 184.684 94.568C184.24 94.52 183.718 94.496 183.118 94.496C182.698 94.496 182.14 94.52 181.444 94.568ZM198.731 92.444C198.899 92.444 199.025 92.51 199.109 92.642C199.193 92.774 199.235 92.924 199.235 93.092C199.235 93.32 199.139 93.548 198.947 93.776L198.245 94.676C196.877 96.464 195.779 97.946 194.951 99.122C194.123 100.298 193.325 101.588 192.557 102.992C192.185 103.712 191.759 104.072 191.279 104.072C191.063 104.072 190.871 104.018 190.703 103.91C190.535 103.79 190.451 103.592 190.451 103.316C190.451 103.136 190.505 102.986 190.613 102.866C191.009 102.302 191.717 101.252 192.737 99.716C193.697 98.288 194.489 97.124 195.113 96.224C195.749 95.312 196.367 94.484 196.967 93.74C197.015 93.68 197.129 93.53 197.309 93.29C197.501 93.05 197.717 92.852 197.957 92.696C198.197 92.528 198.455 92.444 198.731 92.444ZM191.603 92.642C191.963 92.642 192.329 92.726 192.701 92.894C193.085 93.062 193.403 93.302 193.655 93.614C193.907 93.914 194.033 94.25 194.033 94.622C194.033 95.15 193.919 95.63 193.691 96.062C193.463 96.494 193.151 96.836 192.755 97.088C192.359 97.328 191.921 97.448 191.441 97.448C190.685 97.448 190.079 97.226 189.623 96.782C189.167 96.326 188.939 95.732 188.939 95C188.939 94.232 189.173 93.65 189.641 93.254C190.121 92.846 190.775 92.642 191.603 92.642ZM191.207 96.08C192.071 96.08 192.503 95.618 192.503 94.694C192.503 94.466 192.419 94.298 192.251 94.19C192.095 94.082 191.843 94.028 191.495 94.028C191.111 94.028 190.817 94.13 190.613 94.334C190.421 94.526 190.325 94.748 190.325 95C190.325 95.276 190.409 95.528 190.577 95.756C190.745 95.972 190.955 96.08 191.207 96.08ZM200.351 101.48C200.351 101.948 200.219 102.368 199.955 102.74C199.703 103.1 199.361 103.382 198.929 103.586C198.509 103.79 198.065 103.892 197.597 103.892C197.201 103.892 196.829 103.796 196.481 103.604C196.133 103.4 195.851 103.124 195.635 102.776C195.431 102.428 195.329 102.038 195.329 101.606C195.329 101.162 195.437 100.742 195.653 100.346C195.881 99.95 196.205 99.632 196.625 99.392C197.045 99.14 197.537 99.014 198.101 99.014C198.833 99.014 199.391 99.23 199.775 99.662C200.159 100.082 200.351 100.688 200.351 101.48ZM197.957 100.382C197.609 100.382 197.327 100.472 197.111 100.652C196.907 100.832 196.805 101.114 196.805 101.498C196.805 101.834 196.889 102.092 197.057 102.272C197.225 102.452 197.405 102.542 197.597 102.542C198.521 102.542 198.983 102.128 198.983 101.3C198.983 101.024 198.893 100.802 198.713 100.634C198.533 100.466 198.281 100.382 197.957 100.382Z" fill="black"/>
<path d="M2.214 11.404C2.382 11.608 2.564 11.752 2.76 11.836C2.96 11.92 3.176 11.962 3.408 11.962C3.632 11.962 3.834 11.92 4.014 11.836C4.194 11.752 4.346 11.624 4.47 11.452C4.598 11.28 4.696 11.064 4.764 10.804C4.832 10.54 4.866 10.23 4.866 9.874C4.866 9.514 4.836 9.21 4.776 8.962C4.72 8.71 4.638 8.506 4.53 8.35C4.422 8.194 4.29 8.08 4.134 8.008C3.982 7.936 3.808 7.9 3.612 7.9C3.304 7.9 3.042 7.966 2.826 8.098C2.61 8.226 2.406 8.408 2.214 8.644V11.404ZM2.136 7.684C2.388 7.4 2.674 7.17 2.994 6.994C3.314 6.818 3.69 6.73 4.122 6.73C4.458 6.73 4.764 6.8 5.04 6.94C5.32 7.08 5.56 7.284 5.76 7.552C5.964 7.816 6.12 8.144 6.228 8.536C6.34 8.924 6.396 9.37 6.396 9.874C6.396 10.334 6.334 10.76 6.21 11.152C6.086 11.544 5.908 11.884 5.676 12.172C5.448 12.46 5.17 12.686 4.842 12.85C4.518 13.01 4.154 13.09 3.75 13.09C3.406 13.09 3.112 13.038 2.868 12.934C2.624 12.826 2.406 12.678 2.214 12.49V15.01H0.732V6.844H1.638C1.83 6.844 1.956 6.934 2.016 7.114L2.136 7.684ZM11.8783 9.214C11.8783 9.022 11.8503 8.842 11.7943 8.674C11.7423 8.502 11.6623 8.352 11.5543 8.224C11.4463 8.096 11.3083 7.996 11.1403 7.924C10.9763 7.848 10.7843 7.81 10.5643 7.81C10.1363 7.81 9.79831 7.932 9.55031 8.176C9.30631 8.42 9.15031 8.766 9.08231 9.214H11.8783ZM9.05231 10.108C9.07631 10.424 9.13231 10.698 9.22031 10.93C9.30831 11.158 9.42431 11.348 9.56831 11.5C9.71231 11.648 9.88231 11.76 10.0783 11.836C10.2783 11.908 10.4983 11.944 10.7383 11.944C10.9783 11.944 11.1843 11.916 11.3563 11.86C11.5323 11.804 11.6843 11.742 11.8123 11.674C11.9443 11.606 12.0583 11.544 12.1543 11.488C12.2543 11.432 12.3503 11.404 12.4423 11.404C12.5663 11.404 12.6583 11.45 12.7183 11.542L13.1443 12.082C12.9803 12.274 12.7963 12.436 12.5923 12.568C12.3883 12.696 12.1743 12.8 11.9503 12.88C11.7303 12.956 11.5043 13.01 11.2723 13.042C11.0443 13.074 10.8223 13.09 10.6063 13.09C10.1783 13.09 9.78031 13.02 9.41231 12.88C9.04431 12.736 8.72431 12.526 8.45231 12.25C8.18031 11.97 7.96631 11.626 7.81031 11.218C7.65431 10.806 7.57631 10.33 7.57631 9.79C7.57631 9.37 7.64431 8.976 7.78031 8.608C7.91631 8.236 8.11031 7.914 8.36231 7.642C8.61831 7.366 8.92831 7.148 9.29231 6.988C9.66031 6.828 10.0743 6.748 10.5343 6.748C10.9223 6.748 11.2803 6.81 11.6083 6.934C11.9363 7.058 12.2183 7.24 12.4543 7.48C12.6903 7.716 12.8743 8.008 13.0063 8.356C13.1423 8.7 13.2103 9.094 13.2103 9.538C13.2103 9.762 13.1863 9.914 13.1383 9.994C13.0903 10.07 12.9983 10.108 12.8623 10.108H9.05231ZM16.0805 7.912C16.2725 7.544 16.5005 7.256 16.7645 7.048C17.0285 6.836 17.3405 6.73 17.7005 6.73C17.9845 6.73 18.2125 6.792 18.3845 6.916L18.2885 8.026C18.2685 8.098 18.2385 8.15 18.1985 8.182C18.1625 8.21 18.1125 8.224 18.0485 8.224C17.9885 8.224 17.8985 8.214 17.7785 8.194C17.6625 8.174 17.5485 8.164 17.4365 8.164C17.2725 8.164 17.1265 8.188 16.9985 8.236C16.8705 8.284 16.7545 8.354 16.6505 8.446C16.5505 8.534 16.4605 8.642 16.3805 8.77C16.3045 8.898 16.2325 9.044 16.1645 9.208V13H14.6825V6.844H15.5525C15.7045 6.844 15.8105 6.872 15.8705 6.928C15.9305 6.98 15.9705 7.076 15.9905 7.216L16.0805 7.912ZM23.7533 8.146C23.7093 8.202 23.6653 8.246 23.6213 8.278C23.5813 8.31 23.5213 8.326 23.4413 8.326C23.3653 8.326 23.2912 8.304 23.2192 8.26C23.1473 8.212 23.0613 8.16 22.9613 8.104C22.8613 8.044 22.7413 7.992 22.6013 7.948C22.4653 7.9 22.2953 7.876 22.0913 7.876C21.8313 7.876 21.6033 7.924 21.4073 8.02C21.2113 8.112 21.0473 8.246 20.9152 8.422C20.7873 8.598 20.6913 8.812 20.6273 9.064C20.5633 9.312 20.5313 9.594 20.5313 9.91C20.5313 10.238 20.5653 10.53 20.6332 10.786C20.7053 11.042 20.8073 11.258 20.9392 11.434C21.0713 11.606 21.2313 11.738 21.4193 11.83C21.6073 11.918 21.8193 11.962 22.0552 11.962C22.2912 11.962 22.4813 11.934 22.6253 11.878C22.7733 11.818 22.8973 11.754 22.9972 11.686C23.0973 11.614 23.1833 11.55 23.2553 11.494C23.3313 11.434 23.4153 11.404 23.5073 11.404C23.6273 11.404 23.7173 11.45 23.7773 11.542L24.2033 12.082C24.0393 12.274 23.8613 12.436 23.6693 12.568C23.4773 12.696 23.2773 12.8 23.0693 12.88C22.8653 12.956 22.6533 13.01 22.4333 13.042C22.2172 13.074 22.0013 13.09 21.7853 13.09C21.4053 13.09 21.0473 13.02 20.7113 12.88C20.3752 12.736 20.0812 12.528 19.8292 12.256C19.5772 11.984 19.3772 11.652 19.2292 11.26C19.0852 10.864 19.0132 10.414 19.0132 9.91C19.0132 9.458 19.0772 9.04 19.2052 8.656C19.3372 8.268 19.5292 7.934 19.7812 7.654C20.0333 7.37 20.3453 7.148 20.7172 6.988C21.0893 6.828 21.5173 6.748 22.0012 6.748C22.4612 6.748 22.8633 6.822 23.2073 6.97C23.5553 7.118 23.8673 7.33 24.1433 7.606L23.7533 8.146ZM29.3528 9.214C29.3528 9.022 29.3248 8.842 29.2688 8.674C29.2168 8.502 29.1368 8.352 29.0288 8.224C28.9208 8.096 28.7828 7.996 28.6148 7.924C28.4508 7.848 28.2588 7.81 28.0388 7.81C27.6108 7.81 27.2728 7.932 27.0248 8.176C26.7808 8.42 26.6248 8.766 26.5568 9.214H29.3528ZM26.5268 10.108C26.5508 10.424 26.6068 10.698 26.6948 10.93C26.7828 11.158 26.8988 11.348 27.0428 11.5C27.1868 11.648 27.3568 11.76 27.5528 11.836C27.7528 11.908 27.9728 11.944 28.2128 11.944C28.4528 11.944 28.6588 11.916 28.8308 11.86C29.0068 11.804 29.1588 11.742 29.2868 11.674C29.4188 11.606 29.5328 11.544 29.6288 11.488C29.7288 11.432 29.8248 11.404 29.9168 11.404C30.0408 11.404 30.1328 11.45 30.1928 11.542L30.6188 12.082C30.4548 12.274 30.2708 12.436 30.0668 12.568C29.8628 12.696 29.6488 12.8 29.4248 12.88C29.2048 12.956 28.9788 13.01 28.7468 13.042C28.5188 13.074 28.2968 13.09 28.0808 13.09C27.6528 13.09 27.2548 13.02 26.8868 12.88C26.5188 12.736 26.1988 12.526 25.9268 12.25C25.6548 11.97 25.4408 11.626 25.2848 11.218C25.1288 10.806 25.0508 10.33 25.0508 9.79C25.0508 9.37 25.1188 8.976 25.2548 8.608C25.3908 8.236 25.5848 7.914 25.8368 7.642C26.0928 7.366 26.4028 7.148 26.7668 6.988C27.1348 6.828 27.5488 6.748 28.0088 6.748C28.3968 6.748 28.7548 6.81 29.0828 6.934C29.4108 7.058 29.6928 7.24 29.9288 7.48C30.1648 7.716 30.3488 8.008 30.4808 8.356C30.6168 8.7 30.6848 9.094 30.6848 9.538C30.6848 9.762 30.6608 9.914 30.6128 9.994C30.5648 10.07 30.4728 10.108 30.3368 10.108H26.5268ZM33.543 7.6C33.667 7.476 33.797 7.362 33.933 7.258C34.073 7.15 34.219 7.06 34.371 6.988C34.527 6.912 34.693 6.854 34.869 6.814C35.045 6.77 35.237 6.748 35.445 6.748C35.781 6.748 36.079 6.806 36.339 6.922C36.599 7.034 36.815 7.194 36.987 7.402C37.163 7.606 37.295 7.852 37.383 8.14C37.475 8.424 37.521 8.738 37.521 9.082V13H36.039V9.082C36.039 8.706 35.953 8.416 35.781 8.212C35.609 8.004 35.347 7.9 34.995 7.9C34.739 7.9 34.499 7.958 34.275 8.074C34.051 8.19 33.839 8.348 33.639 8.548V13H32.157V6.844H33.063C33.255 6.844 33.381 6.934 33.441 7.114L33.543 7.6ZM41.2604 13.096C40.7244 13.096 40.3124 12.946 40.0244 12.646C39.7404 12.342 39.5984 11.924 39.5984 11.392V7.954H38.9684C38.8884 7.954 38.8204 7.928 38.7644 7.876C38.7084 7.824 38.6804 7.746 38.6804 7.642V7.054L39.6704 6.892L39.9824 5.212C40.0024 5.132 40.0404 5.07 40.0964 5.026C40.1524 4.982 40.2244 4.96 40.3124 4.96H41.0804V6.898H42.7244V7.954H41.0804V11.29C41.0804 11.482 41.1264 11.632 41.2184 11.74C41.3144 11.848 41.4444 11.902 41.6084 11.902C41.7004 11.902 41.7764 11.892 41.8364 11.872C41.9004 11.848 41.9544 11.824 41.9984 11.8C42.0464 11.776 42.0884 11.754 42.1244 11.734C42.1604 11.71 42.1964 11.698 42.2324 11.698C42.2764 11.698 42.3124 11.71 42.3404 11.734C42.3684 11.754 42.3984 11.786 42.4304 11.83L42.8744 12.55C42.6584 12.73 42.4104 12.866 42.1304 12.958C41.8504 13.05 41.5604 13.096 41.2604 13.096ZM50.0352 6.748C50.4912 6.748 50.9052 6.822 51.2772 6.97C51.6532 7.118 51.9732 7.328 52.2372 7.6C52.5052 7.872 52.7112 8.204 52.8552 8.596C52.9992 8.988 53.0712 9.426 53.0712 9.91C53.0712 10.398 52.9992 10.838 52.8552 11.23C52.7112 11.622 52.5052 11.956 52.2372 12.232C51.9732 12.508 51.6532 12.72 51.2772 12.868C50.9052 13.016 50.4912 13.09 50.0352 13.09C49.5752 13.09 49.1572 13.016 48.7812 12.868C48.4052 12.72 48.0832 12.508 47.8152 12.232C47.5512 11.956 47.3452 11.622 47.1972 11.23C47.0532 10.838 46.9812 10.398 46.9812 9.91C46.9812 9.426 47.0532 8.988 47.1972 8.596C47.3452 8.204 47.5512 7.872 47.8152 7.6C48.0832 7.328 48.4052 7.118 48.7812 6.97C49.1572 6.822 49.5752 6.748 50.0352 6.748ZM50.0352 11.95C50.5472 11.95 50.9252 11.778 51.1692 11.434C51.4172 11.09 51.5412 10.586 51.5412 9.922C51.5412 9.258 51.4172 8.752 51.1692 8.404C50.9252 8.056 50.5472 7.882 50.0352 7.882C49.5152 7.882 49.1292 8.058 48.8772 8.41C48.6292 8.758 48.5052 9.262 48.5052 9.922C48.5052 10.582 48.6292 11.086 48.8772 11.434C49.1292 11.778 49.5152 11.95 50.0352 11.95ZM54.8415 13V7.96L54.3075 7.876C54.1915 7.852 54.0975 7.812 54.0255 7.756C53.9575 7.696 53.9235 7.612 53.9235 7.504V6.898H54.8415V6.442C54.8415 6.09 54.8935 5.774 54.9975 5.494C55.1055 5.214 55.2575 4.976 55.4535 4.78C55.6535 4.584 55.8955 4.434 56.1795 4.33C56.4635 4.226 56.7835 4.174 57.1395 4.174C57.4235 4.174 57.6875 4.212 57.9315 4.288L57.9015 5.032C57.8975 5.088 57.8815 5.134 57.8535 5.17C57.8255 5.202 57.7875 5.228 57.7395 5.248C57.6955 5.264 57.6435 5.276 57.5835 5.284C57.5235 5.288 57.4595 5.29 57.3915 5.29C57.2155 5.29 57.0575 5.31 56.9175 5.35C56.7815 5.386 56.6655 5.452 56.5695 5.548C56.4735 5.64 56.3995 5.764 56.3475 5.92C56.2995 6.072 56.2755 6.262 56.2755 6.49V6.898H57.8775V7.954H56.3235V13H54.8415ZM64.1776 13.096C63.6416 13.096 63.2296 12.946 62.9416 12.646C62.6576 12.342 62.5156 11.924 62.5156 11.392V7.954H61.8856C61.8056 7.954 61.7376 7.928 61.6816 7.876C61.6256 7.824 61.5976 7.746 61.5976 7.642V7.054L62.5876 6.892L62.8996 5.212C62.9196 5.132 62.9576 5.07 63.0136 5.026C63.0696 4.982 63.1416 4.96 63.2296 4.96H63.9976V6.898H65.6416V7.954H63.9976V11.29C63.9976 11.482 64.0436 11.632 64.1356 11.74C64.2316 11.848 64.3616 11.902 64.5256 11.902C64.6176 11.902 64.6936 11.892 64.7536 11.872C64.8176 11.848 64.8716 11.824 64.9156 11.8C64.9636 11.776 65.0056 11.754 65.0416 11.734C65.0776 11.71 65.1136 11.698 65.1496 11.698C65.1936 11.698 65.2296 11.71 65.2576 11.734C65.2856 11.754 65.3156 11.786 65.3476 11.83L65.7916 12.55C65.5756 12.73 65.3276 12.866 65.0476 12.958C64.7676 13.05 64.4776 13.096 64.1776 13.096ZM68.4324 7.504C68.6724 7.28 68.9364 7.098 69.2244 6.958C69.5124 6.818 69.8504 6.748 70.2384 6.748C70.5744 6.748 70.8724 6.806 71.1324 6.922C71.3924 7.034 71.6084 7.194 71.7804 7.402C71.9564 7.606 72.0884 7.852 72.1764 8.14C72.2684 8.424 72.3144 8.738 72.3144 9.082V13H70.8324V9.082C70.8324 8.706 70.7464 8.416 70.5744 8.212C70.4024 8.004 70.1404 7.9 69.7884 7.9C69.5324 7.9 69.2924 7.958 69.0684 8.074C68.8444 8.19 68.6324 8.348 68.4324 8.548V13H66.9504V4.084H68.4324V7.504ZM78.0499 9.214C78.0499 9.022 78.0219 8.842 77.9659 8.674C77.9139 8.502 77.8339 8.352 77.7259 8.224C77.6179 8.096 77.4799 7.996 77.3119 7.924C77.1479 7.848 76.9559 7.81 76.7359 7.81C76.3079 7.81 75.9699 7.932 75.7219 8.176C75.4779 8.42 75.3219 8.766 75.2539 9.214H78.0499ZM75.2239 10.108C75.2479 10.424 75.3039 10.698 75.3919 10.93C75.4799 11.158 75.5959 11.348 75.7399 11.5C75.8839 11.648 76.0539 11.76 76.2499 11.836C76.4499 11.908 76.6699 11.944 76.9099 11.944C77.1499 11.944 77.3559 11.916 77.5279 11.86C77.7039 11.804 77.8559 11.742 77.9839 11.674C78.1159 11.606 78.2299 11.544 78.3259 11.488C78.4259 11.432 78.5219 11.404 78.6139 11.404C78.7379 11.404 78.8299 11.45 78.8899 11.542L79.3159 12.082C79.1519 12.274 78.9679 12.436 78.7639 12.568C78.5599 12.696 78.3459 12.8 78.1219 12.88C77.9019 12.956 77.6759 13.01 77.4439 13.042C77.2159 13.074 76.9939 13.09 76.7779 13.09C76.3499 13.09 75.9519 13.02 75.5839 12.88C75.2159 12.736 74.8959 12.526 74.6239 12.25C74.3519 11.97 74.1379 11.626 73.9819 11.218C73.8259 10.806 73.7479 10.33 73.7479 9.79C73.7479 9.37 73.8159 8.976 73.9519 8.608C74.0879 8.236 74.2819 7.914 74.5339 7.642C74.7899 7.366 75.0999 7.148 75.4639 6.988C75.8319 6.828 76.2459 6.748 76.7059 6.748C77.0939 6.748 77.4519 6.81 77.7799 6.934C78.1079 7.058 78.3899 7.24 78.6259 7.48C78.8619 7.716 79.0459 8.008 79.1779 8.356C79.3139 8.7 79.3819 9.094 79.3819 9.538C79.3819 9.762 79.3579 9.914 79.3099 9.994C79.2619 10.07 79.1699 10.108 79.0339 10.108H75.2239ZM85.614 11.404C85.782 11.608 85.964 11.752 86.16 11.836C86.36 11.92 86.576 11.962 86.808 11.962C87.032 11.962 87.234 11.92 87.414 11.836C87.594 11.752 87.746 11.624 87.87 11.452C87.998 11.28 88.096 11.064 88.164 10.804C88.232 10.54 88.266 10.23 88.266 9.874C88.266 9.514 88.236 9.21 88.176 8.962C88.12 8.71 88.038 8.506 87.93 8.35C87.822 8.194 87.69 8.08 87.534 8.008C87.382 7.936 87.208 7.9 87.012 7.9C86.704 7.9 86.442 7.966 86.226 8.098C86.01 8.226 85.806 8.408 85.614 8.644V11.404ZM85.536 7.684C85.788 7.4 86.074 7.17 86.394 6.994C86.714 6.818 87.09 6.73 87.522 6.73C87.858 6.73 88.164 6.8 88.44 6.94C88.72 7.08 88.96 7.284 89.16 7.552C89.364 7.816 89.52 8.144 89.628 8.536C89.74 8.924 89.796 9.37 89.796 9.874C89.796 10.334 89.734 10.76 89.61 11.152C89.486 11.544 89.308 11.884 89.076 12.172C88.848 12.46 88.57 12.686 88.242 12.85C87.918 13.01 87.554 13.09 87.15 13.09C86.806 13.09 86.512 13.038 86.268 12.934C86.024 12.826 85.806 12.678 85.614 12.49V15.01H84.132V6.844H85.038C85.23 6.844 85.356 6.934 85.416 7.114L85.536 7.684ZM94.0363 6.748C94.4923 6.748 94.9063 6.822 95.2783 6.97C95.6543 7.118 95.9743 7.328 96.2383 7.6C96.5063 7.872 96.7123 8.204 96.8563 8.596C97.0003 8.988 97.0723 9.426 97.0723 9.91C97.0723 10.398 97.0003 10.838 96.8563 11.23C96.7123 11.622 96.5063 11.956 96.2383 12.232C95.9743 12.508 95.6543 12.72 95.2783 12.868C94.9063 13.016 94.4923 13.09 94.0363 13.09C93.5763 13.09 93.1583 13.016 92.7823 12.868C92.4063 12.72 92.0843 12.508 91.8163 12.232C91.5523 11.956 91.3463 11.622 91.1983 11.23C91.0543 10.838 90.9823 10.398 90.9823 9.91C90.9823 9.426 91.0543 8.988 91.1983 8.596C91.3463 8.204 91.5523 7.872 91.8163 7.6C92.0843 7.328 92.4063 7.118 92.7823 6.97C93.1583 6.822 93.5763 6.748 94.0363 6.748ZM94.0363 11.95C94.5483 11.95 94.9263 11.778 95.1703 11.434C95.4183 11.09 95.5423 10.586 95.5423 9.922C95.5423 9.258 95.4183 8.752 95.1703 8.404C94.9263 8.056 94.5483 7.882 94.0363 7.882C93.5163 7.882 93.1303 8.058 92.8783 8.41C92.6303 8.758 92.5063 9.262 92.5063 9.922C92.5063 10.582 92.6303 11.086 92.8783 11.434C93.1303 11.778 93.5163 11.95 94.0363 11.95ZM100.045 11.404C100.213 11.608 100.395 11.752 100.591 11.836C100.791 11.92 101.007 11.962 101.239 11.962C101.463 11.962 101.665 11.92 101.845 11.836C102.025 11.752 102.177 11.624 102.301 11.452C102.429 11.28 102.527 11.064 102.595 10.804C102.663 10.54 102.697 10.23 102.697 9.874C102.697 9.514 102.667 9.21 102.607 8.962C102.551 8.71 102.469 8.506 102.361 8.35C102.253 8.194 102.121 8.08 101.965 8.008C101.813 7.936 101.639 7.9 101.443 7.9C101.135 7.9 100.873 7.966 100.657 8.098C100.441 8.226 100.237 8.408 100.045 8.644V11.404ZM99.9669 7.684C100.219 7.4 100.505 7.17 100.825 6.994C101.145 6.818 101.521 6.73 101.953 6.73C102.289 6.73 102.595 6.8 102.871 6.94C103.151 7.08 103.391 7.284 103.591 7.552C103.795 7.816 103.951 8.144 104.059 8.536C104.171 8.924 104.227 9.37 104.227 9.874C104.227 10.334 104.165 10.76 104.041 11.152C103.917 11.544 103.739 11.884 103.507 12.172C103.279 12.46 103.001 12.686 102.673 12.85C102.349 13.01 101.985 13.09 101.581 13.09C101.237 13.09 100.943 13.038 100.699 12.934C100.455 12.826 100.237 12.678 100.045 12.49V15.01H98.5629V6.844H99.4689C99.6609 6.844 99.7869 6.934 99.8469 7.114L99.9669 7.684ZM111.047 6.844V13H110.141C109.945 13 109.821 12.91 109.769 12.73L109.667 12.238C109.415 12.494 109.137 12.702 108.833 12.862C108.529 13.018 108.171 13.096 107.759 13.096C107.423 13.096 107.125 13.04 106.865 12.928C106.609 12.812 106.393 12.65 106.217 12.442C106.041 12.234 105.907 11.988 105.815 11.704C105.727 11.416 105.683 11.1 105.683 10.756V6.844H107.165V10.756C107.165 11.132 107.251 11.424 107.423 11.632C107.599 11.836 107.861 11.938 108.209 11.938C108.465 11.938 108.705 11.882 108.929 11.77C109.153 11.654 109.365 11.496 109.565 11.296V6.844H111.047ZM114.377 4.084V13H112.895V4.084H114.377ZM119.465 10.372C119.037 10.392 118.677 10.43 118.385 10.486C118.093 10.538 117.859 10.606 117.683 10.69C117.507 10.774 117.381 10.872 117.305 10.984C117.229 11.096 117.191 11.218 117.191 11.35C117.191 11.61 117.267 11.796 117.419 11.908C117.575 12.02 117.777 12.076 118.025 12.076C118.329 12.076 118.591 12.022 118.811 11.914C119.035 11.802 119.253 11.634 119.465 11.41V10.372ZM116.069 7.702C116.777 7.054 117.629 6.73 118.625 6.73C118.985 6.73 119.307 6.79 119.591 6.91C119.875 7.026 120.115 7.19 120.311 7.402C120.507 7.61 120.655 7.86 120.755 8.152C120.859 8.444 120.911 8.764 120.911 9.112V13H120.239C120.099 13 119.991 12.98 119.915 12.94C119.839 12.896 119.779 12.81 119.735 12.682L119.603 12.238C119.447 12.378 119.295 12.502 119.147 12.61C118.999 12.714 118.845 12.802 118.685 12.874C118.525 12.946 118.353 13 118.169 13.036C117.989 13.076 117.789 13.096 117.569 13.096C117.309 13.096 117.069 13.062 116.849 12.994C116.629 12.922 116.439 12.816 116.279 12.676C116.119 12.536 115.995 12.362 115.907 12.154C115.819 11.946 115.775 11.704 115.775 11.428C115.775 11.272 115.801 11.118 115.853 10.966C115.905 10.81 115.989 10.662 116.105 10.522C116.225 10.382 116.379 10.25 116.567 10.126C116.755 10.002 116.985 9.894 117.257 9.802C117.533 9.71 117.853 9.636 118.217 9.58C118.581 9.52 118.997 9.484 119.465 9.472V9.112C119.465 8.7 119.377 8.396 119.201 8.2C119.025 8 118.771 7.9 118.439 7.9C118.199 7.9 117.999 7.928 117.839 7.984C117.683 8.04 117.545 8.104 117.425 8.176C117.305 8.244 117.195 8.306 117.095 8.362C116.999 8.418 116.891 8.446 116.771 8.446C116.667 8.446 116.579 8.42 116.507 8.368C116.435 8.312 116.377 8.248 116.333 8.176L116.069 7.702ZM128.795 13H127.313V7.954H124.457V11.29C124.457 11.482 124.503 11.632 124.595 11.74C124.691 11.848 124.821 11.902 124.985 11.902C125.077 11.902 125.153 11.892 125.213 11.872C125.277 11.848 125.331 11.824 125.375 11.8C125.423 11.776 125.465 11.754 125.501 11.734C125.537 11.71 125.573 11.698 125.609 11.698C125.653 11.698 125.689 11.71 125.717 11.734C125.745 11.754 125.775 11.786 125.807 11.83L126.251 12.55C126.035 12.73 125.787 12.866 125.507 12.958C125.227 13.05 124.937 13.096 124.637 13.096C124.101 13.096 123.689 12.946 123.401 12.646C123.117 12.342 122.975 11.924 122.975 11.392V7.954H122.345C122.265 7.954 122.197 7.928 122.141 7.876C122.085 7.824 122.057 7.746 122.057 7.642V7.054L123.047 6.886L123.359 5.212C123.379 5.132 123.417 5.07 123.473 5.026C123.529 4.982 123.601 4.96 123.689 4.96H124.457V6.898H128.795V13ZM129.053 5.026C129.053 5.154 129.027 5.276 128.975 5.392C128.923 5.504 128.853 5.602 128.765 5.686C128.681 5.77 128.579 5.838 128.459 5.89C128.343 5.938 128.219 5.962 128.087 5.962C127.959 5.962 127.839 5.938 127.727 5.89C127.615 5.838 127.517 5.77 127.433 5.686C127.349 5.602 127.281 5.504 127.229 5.392C127.181 5.276 127.157 5.154 127.157 5.026C127.157 4.894 127.181 4.772 127.229 4.66C127.281 4.544 127.349 4.444 127.433 4.36C127.517 4.272 127.615 4.204 127.727 4.156C127.839 4.104 127.959 4.078 128.087 4.078C128.219 4.078 128.343 4.104 128.459 4.156C128.579 4.204 128.681 4.272 128.765 4.36C128.853 4.444 128.923 4.544 128.975 4.66C129.027 4.772 129.053 4.894 129.053 5.026ZM133.392 6.748C133.848 6.748 134.262 6.822 134.634 6.97C135.01 7.118 135.33 7.328 135.594 7.6C135.862 7.872 136.068 8.204 136.212 8.596C136.356 8.988 136.428 9.426 136.428 9.91C136.428 10.398 136.356 10.838 136.212 11.23C136.068 11.622 135.862 11.956 135.594 12.232C135.33 12.508 135.01 12.72 134.634 12.868C134.262 13.016 133.848 13.09 133.392 13.09C132.932 13.09 132.514 13.016 132.138 12.868C131.762 12.72 131.44 12.508 131.172 12.232C130.908 11.956 130.702 11.622 130.554 11.23C130.41 10.838 130.338 10.398 130.338 9.91C130.338 9.426 130.41 8.988 130.554 8.596C130.702 8.204 130.908 7.872 131.172 7.6C131.44 7.328 131.762 7.118 132.138 6.97C132.514 6.822 132.932 6.748 133.392 6.748ZM133.392 11.95C133.904 11.95 134.282 11.778 134.526 11.434C134.774 11.09 134.898 10.586 134.898 9.922C134.898 9.258 134.774 8.752 134.526 8.404C134.282 8.056 133.904 7.882 133.392 7.882C132.872 7.882 132.486 8.058 132.234 8.41C131.986 8.758 131.862 9.262 131.862 9.922C131.862 10.582 131.986 11.086 132.234 11.434C132.486 11.778 132.872 11.95 133.392 11.95ZM139.304 7.6C139.428 7.476 139.558 7.362 139.694 7.258C139.834 7.15 139.98 7.06 140.132 6.988C140.288 6.912 140.454 6.854 140.63 6.814C140.806 6.77 140.998 6.748 141.206 6.748C141.542 6.748 141.84 6.806 142.1 6.922C142.36 7.034 142.576 7.194 142.748 7.402C142.924 7.606 143.056 7.852 143.144 8.14C143.236 8.424 143.282 8.738 143.282 9.082V13H141.8V9.082C141.8 8.706 141.714 8.416 141.542 8.212C141.37 8.004 141.108 7.9 140.756 7.9C140.5 7.9 140.26 7.958 140.036 8.074C139.812 8.19 139.6 8.348 139.4 8.548V13H137.918V6.844H138.824C139.016 6.844 139.142 6.934 139.202 7.114L139.304 7.6ZM151.054 6.748C151.51 6.748 151.924 6.822 152.296 6.97C152.672 7.118 152.992 7.328 153.256 7.6C153.524 7.872 153.73 8.204 153.874 8.596C154.018 8.988 154.09 9.426 154.09 9.91C154.09 10.398 154.018 10.838 153.874 11.23C153.73 11.622 153.524 11.956 153.256 12.232C152.992 12.508 152.672 12.72 152.296 12.868C151.924 13.016 151.51 13.09 151.054 13.09C150.594 13.09 150.176 13.016 149.8 12.868C149.424 12.72 149.102 12.508 148.834 12.232C148.57 11.956 148.364 11.622 148.216 11.23C148.072 10.838 148 10.398 148 9.91C148 9.426 148.072 8.988 148.216 8.596C148.364 8.204 148.57 7.872 148.834 7.6C149.102 7.328 149.424 7.118 149.8 6.97C150.176 6.822 150.594 6.748 151.054 6.748ZM151.054 11.95C151.566 11.95 151.944 11.778 152.188 11.434C152.436 11.09 152.56 10.586 152.56 9.922C152.56 9.258 152.436 8.752 152.188 8.404C151.944 8.056 151.566 7.882 151.054 7.882C150.534 7.882 150.148 8.058 149.896 8.41C149.648 8.758 149.524 9.262 149.524 9.922C149.524 10.582 149.648 11.086 149.896 11.434C150.148 11.778 150.534 11.95 151.054 11.95ZM160.943 6.844L158.501 13H157.157L154.715 6.844H155.939C156.051 6.844 156.143 6.87 156.215 6.922C156.291 6.974 156.341 7.04 156.365 7.12L157.553 10.408C157.617 10.6 157.673 10.788 157.721 10.972C157.769 11.156 157.811 11.34 157.847 11.524C157.887 11.34 157.931 11.156 157.979 10.972C158.027 10.788 158.085 10.6 158.153 10.408L159.365 7.12C159.393 7.04 159.443 6.974 159.515 6.922C159.587 6.87 159.673 6.844 159.773 6.844H160.943ZM165.871 9.214C165.871 9.022 165.843 8.842 165.787 8.674C165.735 8.502 165.655 8.352 165.547 8.224C165.439 8.096 165.301 7.996 165.133 7.924C164.969 7.848 164.777 7.81 164.557 7.81C164.129 7.81 163.791 7.932 163.543 8.176C163.299 8.42 163.143 8.766 163.075 9.214H165.871ZM163.045 10.108C163.069 10.424 163.125 10.698 163.213 10.93C163.301 11.158 163.417 11.348 163.561 11.5C163.705 11.648 163.875 11.76 164.071 11.836C164.271 11.908 164.491 11.944 164.731 11.944C164.971 11.944 165.177 11.916 165.349 11.86C165.525 11.804 165.677 11.742 165.805 11.674C165.937 11.606 166.051 11.544 166.147 11.488C166.247 11.432 166.343 11.404 166.435 11.404C166.559 11.404 166.651 11.45 166.711 11.542L167.137 12.082C166.973 12.274 166.789 12.436 166.585 12.568C166.381 12.696 166.167 12.8 165.943 12.88C165.723 12.956 165.497 13.01 165.265 13.042C165.037 13.074 164.815 13.09 164.599 13.09C164.171 13.09 163.773 13.02 163.405 12.88C163.037 12.736 162.717 12.526 162.445 12.25C162.173 11.97 161.959 11.626 161.803 11.218C161.647 10.806 161.569 10.33 161.569 9.79C161.569 9.37 161.637 8.976 161.773 8.608C161.909 8.236 162.103 7.914 162.355 7.642C162.611 7.366 162.921 7.148 163.285 6.988C163.653 6.828 164.067 6.748 164.527 6.748C164.915 6.748 165.273 6.81 165.601 6.934C165.929 7.058 166.211 7.24 166.447 7.48C166.683 7.716 166.867 8.008 166.999 8.356C167.135 8.7 167.203 9.094 167.203 9.538C167.203 9.762 167.179 9.914 167.131 9.994C167.083 10.07 166.991 10.108 166.855 10.108H163.045ZM170.073 7.912C170.265 7.544 170.493 7.256 170.757 7.048C171.021 6.836 171.333 6.73 171.693 6.73C171.977 6.73 172.205 6.792 172.377 6.916L172.281 8.026C172.261 8.098 172.231 8.15 172.191 8.182C172.155 8.21 172.105 8.224 172.041 8.224C171.981 8.224 171.891 8.214 171.771 8.194C171.655 8.174 171.541 8.164 171.429 8.164C171.265 8.164 171.119 8.188 170.991 8.236C170.863 8.284 170.747 8.354 170.643 8.446C170.543 8.534 170.453 8.642 170.373 8.77C170.297 8.898 170.225 9.044 170.157 9.208V13H168.675V6.844H169.545C169.697 6.844 169.803 6.872 169.863 6.928C169.923 6.98 169.963 7.076 169.983 7.216L170.073 7.912ZM3.984 27.372C3.556 27.392 3.196 27.43 2.904 27.486C2.612 27.538 2.378 27.606 2.202 27.69C2.026 27.774 1.9 27.872 1.824 27.984C1.748 28.096 1.71 28.218 1.71 28.35C1.71 28.61 1.786 28.796 1.938 28.908C2.094 29.02 2.296 29.076 2.544 29.076C2.848 29.076 3.11 29.022 3.33 28.914C3.554 28.802 3.772 28.634 3.984 28.41V27.372ZM0.588 24.702C1.296 24.054 2.148 23.73 3.144 23.73C3.504 23.73 3.826 23.79 4.11 23.91C4.394 24.026 4.634 24.19 4.83 24.402C5.026 24.61 5.174 24.86 5.274 25.152C5.378 25.444 5.43 25.764 5.43 26.112V30H4.758C4.618 30 4.51 29.98 4.434 29.94C4.358 29.896 4.298 29.81 4.254 29.682L4.122 29.238C3.966 29.378 3.814 29.502 3.666 29.61C3.518 29.714 3.364 29.802 3.204 29.874C3.044 29.946 2.872 30 2.688 30.036C2.508 30.076 2.308 30.096 2.088 30.096C1.828 30.096 1.588 30.062 1.368 29.994C1.148 29.922 0.958 29.816 0.798 29.676C0.638 29.536 0.514 29.362 0.426 29.154C0.338 28.946 0.294 28.704 0.294 28.428C0.294 28.272 0.32 28.118 0.372 27.966C0.424 27.81 0.508 27.662 0.624 27.522C0.744 27.382 0.898 27.25 1.086 27.126C1.274 27.002 1.504 26.894 1.776 26.802C2.052 26.71 2.372 26.636 2.736 26.58C3.1 26.52 3.516 26.484 3.984 26.472V26.112C3.984 25.7 3.896 25.396 3.72 25.2C3.544 25 3.29 24.9 2.958 24.9C2.718 24.9 2.518 24.928 2.358 24.984C2.202 25.04 2.064 25.104 1.944 25.176C1.824 25.244 1.714 25.306 1.614 25.362C1.518 25.418 1.41 25.446 1.29 25.446C1.186 25.446 1.098 25.42 1.026 25.368C0.954 25.312 0.896 25.248 0.852 25.176L0.588 24.702ZM9.43575 26.772C9.61975 26.772 9.77975 26.748 9.91575 26.7C10.0518 26.648 10.1638 26.578 10.2518 26.49C10.3438 26.402 10.4118 26.296 10.4558 26.172C10.5038 26.048 10.5278 25.912 10.5278 25.764C10.5278 25.46 10.4358 25.22 10.2518 25.044C10.0718 24.864 9.79975 24.774 9.43575 24.774C9.07175 24.774 8.79775 24.864 8.61375 25.044C8.43375 25.22 8.34375 25.46 8.34375 25.764C8.34375 25.908 8.36575 26.042 8.40975 26.166C8.45775 26.29 8.52575 26.398 8.61375 26.49C8.70575 26.578 8.81975 26.648 8.95575 26.7C9.09575 26.748 9.25575 26.772 9.43575 26.772ZM11.1098 30.276C11.1098 30.156 11.0738 30.058 11.0018 29.982C10.9298 29.906 10.8318 29.848 10.7078 29.808C10.5838 29.764 10.4378 29.732 10.2698 29.712C10.1058 29.692 9.92975 29.678 9.74175 29.67C9.55775 29.658 9.36575 29.648 9.16575 29.64C8.96975 29.632 8.77775 29.616 8.58975 29.592C8.42575 29.684 8.29175 29.792 8.18775 29.916C8.08775 30.04 8.03775 30.184 8.03775 30.348C8.03775 30.456 8.06375 30.556 8.11575 30.648C8.17175 30.744 8.25775 30.826 8.37375 30.894C8.49375 30.962 8.64775 31.014 8.83575 31.05C9.02375 31.09 9.25375 31.11 9.52575 31.11C9.80175 31.11 10.0398 31.088 10.2398 31.044C10.4398 31.004 10.6038 30.946 10.7318 30.87C10.8638 30.798 10.9598 30.71 11.0198 30.606C11.0798 30.506 11.1098 30.396 11.1098 30.276ZM12.5858 24.054V24.606C12.5858 24.782 12.4798 24.89 12.2678 24.93L11.7158 25.032C11.7998 25.244 11.8418 25.476 11.8418 25.728C11.8418 26.032 11.7798 26.308 11.6558 26.556C11.5358 26.8 11.3678 27.008 11.1518 27.18C10.9358 27.352 10.6798 27.486 10.3838 27.582C10.0918 27.674 9.77575 27.72 9.43575 27.72C9.31575 27.72 9.19975 27.714 9.08775 27.702C8.97575 27.69 8.86575 27.674 8.75775 27.654C8.56575 27.77 8.46975 27.9 8.46975 28.044C8.46975 28.168 8.52575 28.26 8.63775 28.32C8.75375 28.376 8.90575 28.416 9.09375 28.44C9.28175 28.464 9.49575 28.48 9.73575 28.488C9.97575 28.492 10.2218 28.504 10.4738 28.524C10.7258 28.544 10.9718 28.58 11.2118 28.632C11.4518 28.68 11.6658 28.758 11.8538 28.866C12.0418 28.974 12.1918 29.122 12.3038 29.31C12.4198 29.494 12.4778 29.732 12.4778 30.024C12.4778 30.296 12.4098 30.56 12.2738 30.816C12.1418 31.072 11.9478 31.3 11.6918 31.5C11.4398 31.7 11.1278 31.86 10.7558 31.98C10.3878 32.104 9.96775 32.166 9.49575 32.166C9.03175 32.166 8.62775 32.12 8.28375 32.028C7.93975 31.94 7.65375 31.82 7.42575 31.668C7.19775 31.52 7.02775 31.348 6.91575 31.152C6.80375 30.956 6.74775 30.752 6.74775 30.54C6.74775 30.252 6.83375 30.012 7.00575 29.82C7.18175 29.624 7.42175 29.468 7.72575 29.352C7.56175 29.268 7.43175 29.156 7.33575 29.016C7.23975 28.876 7.19175 28.692 7.19175 28.464C7.19175 28.372 7.20775 28.278 7.23975 28.182C7.27575 28.082 7.32575 27.984 7.38975 27.888C7.45775 27.792 7.54175 27.702 7.64175 27.618C7.74175 27.53 7.85975 27.452 7.99575 27.384C7.68375 27.216 7.43775 26.992 7.25775 26.712C7.08175 26.432 6.99375 26.104 6.99375 25.728C6.99375 25.424 7.05375 25.15 7.17375 24.906C7.29775 24.658 7.46775 24.448 7.68375 24.276C7.90375 24.1 8.16175 23.966 8.45775 23.874C8.75775 23.782 9.08375 23.736 9.43575 23.736C9.69975 23.736 9.94775 23.764 10.1798 23.82C10.4118 23.872 10.6238 23.95 10.8158 24.054H12.5858ZM17.7461 26.214C17.7461 26.022 17.7181 25.842 17.6621 25.674C17.6101 25.502 17.5301 25.352 17.4221 25.224C17.3141 25.096 17.1761 24.996 17.0081 24.924C16.8441 24.848 16.6521 24.81 16.4321 24.81C16.0041 24.81 15.6661 24.932 15.4181 25.176C15.1741 25.42 15.0181 25.766 14.9501 26.214H17.7461ZM14.9201 27.108C14.9441 27.424 15.0001 27.698 15.0881 27.93C15.1761 28.158 15.2921 28.348 15.4361 28.5C15.5801 28.648 15.7501 28.76 15.9461 28.836C16.1461 28.908 16.3661 28.944 16.6061 28.944C16.8461 28.944 17.0521 28.916 17.2241 28.86C17.4001 28.804 17.5521 28.742 17.6801 28.674C17.8121 28.606 17.9261 28.544 18.0221 28.488C18.1221 28.432 18.2181 28.404 18.3101 28.404C18.4341 28.404 18.5261 28.45 18.5861 28.542L19.0121 29.082C18.8481 29.274 18.6641 29.436 18.4601 29.568C18.2561 29.696 18.0421 29.8 17.8181 29.88C17.5981 29.956 17.3721 30.01 17.1401 30.042C16.9121 30.074 16.6901 30.09 16.4741 30.09C16.0461 30.09 15.6481 30.02 15.2801 29.88C14.9121 29.736 14.5921 29.526 14.3201 29.25C14.0481 28.97 13.8341 28.626 13.6781 28.218C13.5221 27.806 13.4441 27.33 13.4441 26.79C13.4441 26.37 13.5121 25.976 13.6481 25.608C13.7841 25.236 13.9781 24.914 14.2301 24.642C14.4861 24.366 14.7961 24.148 15.1601 23.988C15.5281 23.828 15.9421 23.748 16.4021 23.748C16.7901 23.748 17.1481 23.81 17.4761 23.934C17.8041 24.058 18.0861 24.24 18.3221 24.48C18.5581 24.716 18.7421 25.008 18.8741 25.356C19.0101 25.7 19.0781 26.094 19.0781 26.538C19.0781 26.762 19.0541 26.914 19.0061 26.994C18.9581 27.07 18.8661 27.108 18.7301 27.108H14.9201ZM28.9823 28.62C29.1423 28.62 29.2683 28.666 29.3603 28.758C29.4563 28.846 29.5043 28.964 29.5043 29.112V30H23.5523V29.508C23.5523 29.408 23.5723 29.304 23.6123 29.196C23.6563 29.084 23.7243 28.984 23.8163 28.896L26.4503 26.256C26.6703 26.032 26.8663 25.818 27.0383 25.614C27.2143 25.41 27.3603 25.208 27.4763 25.008C27.5923 24.808 27.6803 24.606 27.7403 24.402C27.8043 24.194 27.8363 23.976 27.8363 23.748C27.8363 23.54 27.8063 23.358 27.7463 23.202C27.6863 23.042 27.6003 22.908 27.4883 22.8C27.3803 22.692 27.2483 22.612 27.0923 22.56C26.9403 22.504 26.7683 22.476 26.5763 22.476C26.4003 22.476 26.2363 22.502 26.0843 22.554C25.9363 22.602 25.8043 22.672 25.6883 22.764C25.5723 22.852 25.4743 22.956 25.3943 23.076C25.3143 23.196 25.2543 23.328 25.2143 23.472C25.1463 23.656 25.0583 23.778 24.9503 23.838C24.8423 23.898 24.6863 23.912 24.4823 23.88L23.7023 23.742C23.7623 23.326 23.8783 22.962 24.0503 22.65C24.2223 22.334 24.4363 22.072 24.6923 21.864C24.9523 21.652 25.2483 21.494 25.5803 21.39C25.9163 21.282 26.2763 21.228 26.6603 21.228C27.0603 21.228 27.4263 21.288 27.7583 21.408C28.0903 21.524 28.3743 21.69 28.6103 21.906C28.8463 22.122 29.0303 22.382 29.1623 22.686C29.2943 22.99 29.3603 23.328 29.3603 23.7C29.3603 24.02 29.3123 24.316 29.2163 24.588C29.1243 24.86 28.9983 25.12 28.8383 25.368C28.6823 25.616 28.4983 25.856 28.2863 26.088C28.0743 26.32 27.8523 26.556 27.6203 26.796L25.6643 28.794C25.8523 28.738 26.0383 28.696 26.2223 28.668C26.4103 28.636 26.5883 28.62 26.7563 28.62H28.9823ZM32.8532 24.474C33.0452 24.434 33.2292 24.406 33.4052 24.39C33.5812 24.37 33.7512 24.36 33.9152 24.36C34.3712 24.36 34.7732 24.428 35.1212 24.564C35.4692 24.7 35.7612 24.888 35.9972 25.128C36.2332 25.368 36.4112 25.65 36.5312 25.974C36.6512 26.294 36.7112 26.64 36.7112 27.012C36.7112 27.472 36.6292 27.892 36.4652 28.272C36.3052 28.652 36.0812 28.978 35.7932 29.25C35.5052 29.518 35.1632 29.726 34.7672 29.874C34.3752 30.022 33.9472 30.096 33.4832 30.096C33.2112 30.096 32.9532 30.068 32.7092 30.012C32.4652 29.956 32.2352 29.882 32.0192 29.79C31.8072 29.694 31.6092 29.586 31.4252 29.466C31.2452 29.342 31.0832 29.212 30.9392 29.076L31.3952 28.446C31.4912 28.31 31.6172 28.242 31.7732 28.242C31.8732 28.242 31.9752 28.274 32.0792 28.338C32.1832 28.402 32.3012 28.472 32.4332 28.548C32.5692 28.624 32.7272 28.694 32.9072 28.758C33.0912 28.822 33.3112 28.854 33.5672 28.854C33.8392 28.854 34.0792 28.81 34.2872 28.722C34.4952 28.634 34.6672 28.512 34.8032 28.356C34.9432 28.196 35.0472 28.008 35.1152 27.792C35.1872 27.572 35.2232 27.334 35.2232 27.078C35.2232 26.606 35.0852 26.238 34.8092 25.974C34.5372 25.706 34.1332 25.572 33.5972 25.572C33.1852 25.572 32.7632 25.648 32.3312 25.8L31.4072 25.536L32.1272 21.324H36.4112V21.954C36.4112 22.166 36.3452 22.338 36.2132 22.47C36.0812 22.602 35.8572 22.668 35.5412 22.668H33.1592L32.8532 24.474ZM50.292 23.844L48.336 30H47.148C47.012 30 46.918 29.912 46.866 29.736L45.762 26.178C45.726 26.058 45.692 25.94 45.66 25.824C45.632 25.704 45.608 25.584 45.588 25.464C45.564 25.584 45.536 25.706 45.504 25.83C45.476 25.95 45.444 26.07 45.408 26.19L44.286 29.736C44.238 29.912 44.132 30 43.968 30H42.828L40.878 23.844H42.06C42.168 23.844 42.26 23.87 42.336 23.922C42.412 23.974 42.462 24.04 42.486 24.12L43.368 27.408C43.412 27.588 43.45 27.764 43.482 27.936C43.518 28.108 43.548 28.28 43.572 28.452C43.616 28.28 43.662 28.108 43.71 27.936C43.762 27.764 43.816 27.588 43.872 27.408L44.892 24.108C44.916 24.028 44.962 23.962 45.03 23.91C45.102 23.858 45.188 23.832 45.288 23.832H45.942C46.046 23.832 46.134 23.858 46.206 23.91C46.282 23.962 46.332 24.028 46.356 24.108L47.346 27.408C47.398 27.588 47.446 27.766 47.49 27.942C47.538 28.114 47.584 28.286 47.628 28.458C47.68 28.118 47.754 27.768 47.85 27.408L48.756 24.12C48.784 24.04 48.834 23.974 48.906 23.922C48.978 23.87 49.064 23.844 49.164 23.844H50.292ZM53.0308 23.844V30H51.5428V23.844H53.0308ZM53.2348 22.05C53.2348 22.178 53.2088 22.298 53.1568 22.41C53.1048 22.522 53.0348 22.62 52.9468 22.704C52.8628 22.788 52.7628 22.856 52.6468 22.908C52.5308 22.956 52.4068 22.98 52.2748 22.98C52.1468 22.98 52.0248 22.956 51.9088 22.908C51.7968 22.856 51.6988 22.788 51.6148 22.704C51.5308 22.62 51.4628 22.522 51.4108 22.41C51.3628 22.298 51.3388 22.178 51.3388 22.05C51.3388 21.918 51.3628 21.794 51.4108 21.678C51.4628 21.562 51.5308 21.462 51.6148 21.378C51.6988 21.294 51.7968 21.228 51.9088 21.18C52.0248 21.128 52.1468 21.102 52.2748 21.102C52.4068 21.102 52.5308 21.128 52.6468 21.18C52.7628 21.228 52.8628 21.294 52.9468 21.378C53.0348 21.462 53.1048 21.562 53.1568 21.678C53.2088 21.794 53.2348 21.918 53.2348 22.05ZM56.9537 30.096C56.4177 30.096 56.0057 29.946 55.7177 29.646C55.4337 29.342 55.2917 28.924 55.2917 28.392V24.954H54.6617C54.5817 24.954 54.5137 24.928 54.4577 24.876C54.4017 24.824 54.3737 24.746 54.3737 24.642V24.054L55.3637 23.892L55.6757 22.212C55.6957 22.132 55.7337 22.07 55.7897 22.026C55.8457 21.982 55.9177 21.96 56.0057 21.96H56.7737V23.898H58.4177V24.954H56.7737V28.29C56.7737 28.482 56.8197 28.632 56.9117 28.74C57.0077 28.848 57.1377 28.902 57.3017 28.902C57.3937 28.902 57.4697 28.892 57.5297 28.872C57.5937 28.848 57.6477 28.824 57.6917 28.8C57.7397 28.776 57.7817 28.754 57.8177 28.734C57.8537 28.71 57.8897 28.698 57.9257 28.698C57.9697 28.698 58.0057 28.71 58.0337 28.734C58.0617 28.754 58.0917 28.786 58.1237 28.83L58.5677 29.55C58.3517 29.73 58.1037 29.866 57.8237 29.958C57.5437 30.05 57.2537 30.096 56.9537 30.096ZM61.2085 24.504C61.4485 24.28 61.7125 24.098 62.0005 23.958C62.2885 23.818 62.6265 23.748 63.0145 23.748C63.3505 23.748 63.6485 23.806 63.9085 23.922C64.1685 24.034 64.3845 24.194 64.5565 24.402C64.7325 24.606 64.8645 24.852 64.9525 25.14C65.0445 25.424 65.0905 25.738 65.0905 26.082V30H63.6085V26.082C63.6085 25.706 63.5225 25.416 63.3505 25.212C63.1785 25.004 62.9165 24.9 62.5645 24.9C62.3085 24.9 62.0685 24.958 61.8445 25.074C61.6205 25.19 61.4085 25.348 61.2085 25.548V30H59.7265V21.084H61.2085V24.504ZM71.6379 21.084V30H70.1559V21.084H71.6379ZM77.4405 26.214C77.4405 26.022 77.4125 25.842 77.3565 25.674C77.3045 25.502 77.2245 25.352 77.1165 25.224C77.0085 25.096 76.8705 24.996 76.7025 24.924C76.5385 24.848 76.3465 24.81 76.1265 24.81C75.6985 24.81 75.3605 24.932 75.1125 25.176C74.8685 25.42 74.7125 25.766 74.6445 26.214H77.4405ZM74.6145 27.108C74.6385 27.424 74.6945 27.698 74.7825 27.93C74.8705 28.158 74.9865 28.348 75.1305 28.5C75.2745 28.648 75.4445 28.76 75.6405 28.836C75.8405 28.908 76.0605 28.944 76.3005 28.944C76.5405 28.944 76.7465 28.916 76.9185 28.86C77.0945 28.804 77.2465 28.742 77.3745 28.674C77.5065 28.606 77.6205 28.544 77.7165 28.488C77.8165 28.432 77.9125 28.404 78.0045 28.404C78.1285 28.404 78.2205 28.45 78.2805 28.542L78.7065 29.082C78.5425 29.274 78.3585 29.436 78.1545 29.568C77.9505 29.696 77.7365 29.8 77.5125 29.88C77.2925 29.956 77.0665 30.01 76.8345 30.042C76.6065 30.074 76.3845 30.09 76.1685 30.09C75.7405 30.09 75.3425 30.02 74.9745 29.88C74.6065 29.736 74.2865 29.526 74.0145 29.25C73.7425 28.97 73.5285 28.626 73.3725 28.218C73.2165 27.806 73.1385 27.33 73.1385 26.79C73.1385 26.37 73.2065 25.976 73.3425 25.608C73.4785 25.236 73.6725 24.914 73.9245 24.642C74.1805 24.366 74.4905 24.148 74.8545 23.988C75.2225 23.828 75.6365 23.748 76.0965 23.748C76.4845 23.748 76.8425 23.81 77.1705 23.934C77.4985 24.058 77.7805 24.24 78.0165 24.48C78.2525 24.716 78.4365 25.008 78.5685 25.356C78.7045 25.7 78.7725 26.094 78.7725 26.538C78.7725 26.762 78.7485 26.914 78.7005 26.994C78.6525 27.07 78.5605 27.108 78.4245 27.108H74.6145ZM84.0007 25.044C83.9607 25.108 83.9187 25.154 83.8747 25.182C83.8307 25.206 83.7747 25.218 83.7067 25.218C83.6347 25.218 83.5567 25.198 83.4727 25.158C83.3927 25.118 83.2987 25.074 83.1907 25.026C83.0827 24.974 82.9587 24.928 82.8187 24.888C82.6827 24.848 82.5207 24.828 82.3327 24.828C82.0407 24.828 81.8107 24.89 81.6427 25.014C81.4787 25.138 81.3967 25.3 81.3967 25.5C81.3967 25.632 81.4387 25.744 81.5227 25.836C81.6107 25.924 81.7247 26.002 81.8647 26.07C82.0087 26.138 82.1707 26.2 82.3507 26.256C82.5307 26.308 82.7127 26.366 82.8967 26.43C83.0847 26.494 83.2687 26.568 83.4487 26.652C83.6287 26.732 83.7887 26.836 83.9287 26.964C84.0727 27.088 84.1867 27.238 84.2707 27.414C84.3587 27.59 84.4027 27.802 84.4027 28.05C84.4027 28.346 84.3487 28.62 84.2407 28.872C84.1367 29.12 83.9807 29.336 83.7727 29.52C83.5647 29.7 83.3067 29.842 82.9987 29.946C82.6947 30.046 82.3427 30.096 81.9427 30.096C81.7307 30.096 81.5227 30.076 81.3187 30.036C81.1187 30 80.9247 29.948 80.7367 29.88C80.5527 29.812 80.3807 29.732 80.2207 29.64C80.0647 29.548 79.9267 29.448 79.8067 29.34L80.1487 28.776C80.1927 28.708 80.2447 28.656 80.3047 28.62C80.3647 28.584 80.4407 28.566 80.5327 28.566C80.6247 28.566 80.7107 28.592 80.7907 28.644C80.8747 28.696 80.9707 28.752 81.0787 28.812C81.1867 28.872 81.3127 28.928 81.4567 28.98C81.6047 29.032 81.7907 29.058 82.0147 29.058C82.1907 29.058 82.3407 29.038 82.4647 28.998C82.5927 28.954 82.6967 28.898 82.7767 28.83C82.8607 28.762 82.9207 28.684 82.9567 28.596C82.9967 28.504 83.0167 28.41 83.0167 28.314C83.0167 28.17 82.9727 28.052 82.8847 27.96C82.8007 27.868 82.6867 27.788 82.5427 27.72C82.4027 27.652 82.2407 27.592 82.0567 27.54C81.8767 27.484 81.6907 27.424 81.4987 27.36C81.3107 27.296 81.1247 27.222 80.9407 27.138C80.7607 27.05 80.5987 26.94 80.4547 26.808C80.3147 26.676 80.2007 26.514 80.1127 26.322C80.0287 26.13 79.9867 25.898 79.9867 25.626C79.9867 25.374 80.0367 25.134 80.1367 24.906C80.2367 24.678 80.3827 24.48 80.5747 24.312C80.7707 24.14 81.0127 24.004 81.3007 23.904C81.5927 23.8 81.9287 23.748 82.3087 23.748C82.7327 23.748 83.1187 23.818 83.4667 23.958C83.8147 24.098 84.1047 24.282 84.3367 24.51L84.0007 25.044ZM89.6341 25.044C89.5941 25.108 89.5521 25.154 89.5081 25.182C89.4641 25.206 89.4081 25.218 89.3401 25.218C89.2681 25.218 89.1901 25.198 89.1061 25.158C89.0261 25.118 88.9321 25.074 88.8241 25.026C88.7161 24.974 88.5921 24.928 88.4521 24.888C88.3161 24.848 88.1541 24.828 87.9661 24.828C87.6741 24.828 87.4441 24.89 87.2761 25.014C87.1121 25.138 87.0301 25.3 87.0301 25.5C87.0301 25.632 87.0721 25.744 87.1561 25.836C87.2441 25.924 87.3581 26.002 87.4981 26.07C87.6421 26.138 87.8041 26.2 87.9841 26.256C88.1641 26.308 88.3461 26.366 88.5301 26.43C88.7181 26.494 88.9021 26.568 89.0821 26.652C89.2621 26.732 89.4221 26.836 89.5621 26.964C89.7061 27.088 89.8201 27.238 89.9041 27.414C89.9921 27.59 90.0361 27.802 90.0361 28.05C90.0361 28.346 89.9821 28.62 89.8741 28.872C89.7701 29.12 89.6141 29.336 89.4061 29.52C89.1981 29.7 88.9401 29.842 88.6321 29.946C88.3281 30.046 87.9761 30.096 87.5761 30.096C87.3641 30.096 87.1561 30.076 86.9521 30.036C86.7521 30 86.5581 29.948 86.3701 29.88C86.1861 29.812 86.0141 29.732 85.8541 29.64C85.6981 29.548 85.5601 29.448 85.4401 29.34L85.7821 28.776C85.8261 28.708 85.8781 28.656 85.9381 28.62C85.9981 28.584 86.0741 28.566 86.1661 28.566C86.2581 28.566 86.3441 28.592 86.4241 28.644C86.5081 28.696 86.6041 28.752 86.7121 28.812C86.8201 28.872 86.9461 28.928 87.0901 28.98C87.2381 29.032 87.4241 29.058 87.6481 29.058C87.8241 29.058 87.9741 29.038 88.0981 28.998C88.2261 28.954 88.3301 28.898 88.4101 28.83C88.4941 28.762 88.5541 28.684 88.5901 28.596C88.6301 28.504 88.6501 28.41 88.6501 28.314C88.6501 28.17 88.6061 28.052 88.5181 27.96C88.4341 27.868 88.3201 27.788 88.1761 27.72C88.0361 27.652 87.8741 27.592 87.6901 27.54C87.5101 27.484 87.3241 27.424 87.1321 27.36C86.9441 27.296 86.7581 27.222 86.5741 27.138C86.3941 27.05 86.2321 26.94 86.0881 26.808C85.9481 26.676 85.8341 26.514 85.7461 26.322C85.6621 26.13 85.6201 25.898 85.6201 25.626C85.6201 25.374 85.6701 25.134 85.7701 24.906C85.8701 24.678 86.0161 24.48 86.2081 24.312C86.4041 24.14 86.6461 24.004 86.9341 23.904C87.2261 23.8 87.5621 23.748 87.9421 23.748C88.3661 23.748 88.7521 23.818 89.1001 23.958C89.4481 24.098 89.7381 24.282 89.9701 24.51L89.6341 25.044ZM96.8415 30.096C96.3055 30.096 95.8935 29.946 95.6055 29.646C95.3215 29.342 95.1795 28.924 95.1795 28.392V24.954H94.5495C94.4695 24.954 94.4015 24.928 94.3455 24.876C94.2895 24.824 94.2615 24.746 94.2615 24.642V24.054L95.2515 23.892L95.5635 22.212C95.5835 22.132 95.6215 22.07 95.6775 22.026C95.7335 21.982 95.8055 21.96 95.8935 21.96H96.6615V23.898H98.3055V24.954H96.6615V28.29C96.6615 28.482 96.7075 28.632 96.7995 28.74C96.8955 28.848 97.0255 28.902 97.1895 28.902C97.2815 28.902 97.3575 28.892 97.4175 28.872C97.4815 28.848 97.5355 28.824 97.5795 28.8C97.6275 28.776 97.6695 28.754 97.7055 28.734C97.7415 28.71 97.7775 28.698 97.8135 28.698C97.8575 28.698 97.8935 28.71 97.9215 28.734C97.9495 28.754 97.9795 28.786 98.0115 28.83L98.4555 29.55C98.2395 29.73 97.9915 29.866 97.7115 29.958C97.4315 30.05 97.1415 30.096 96.8415 30.096ZM101.096 24.504C101.336 24.28 101.6 24.098 101.888 23.958C102.176 23.818 102.514 23.748 102.902 23.748C103.238 23.748 103.536 23.806 103.796 23.922C104.056 24.034 104.272 24.194 104.444 24.402C104.62 24.606 104.752 24.852 104.84 25.14C104.932 25.424 104.978 25.738 104.978 26.082V30H103.496V26.082C103.496 25.706 103.41 25.416 103.238 25.212C103.066 25.004 102.804 24.9 102.452 24.9C102.196 24.9 101.956 24.958 101.732 25.074C101.508 25.19 101.296 25.348 101.096 25.548V30H99.6143V21.084H101.096V24.504ZM110 27.372C109.572 27.392 109.212 27.43 108.92 27.486C108.628 27.538 108.394 27.606 108.218 27.69C108.042 27.774 107.916 27.872 107.84 27.984C107.764 28.096 107.726 28.218 107.726 28.35C107.726 28.61 107.802 28.796 107.954 28.908C108.11 29.02 108.312 29.076 108.56 29.076C108.864 29.076 109.126 29.022 109.346 28.914C109.57 28.802 109.788 28.634 110 28.41V27.372ZM106.604 24.702C107.312 24.054 108.164 23.73 109.16 23.73C109.52 23.73 109.842 23.79 110.126 23.91C110.41 24.026 110.65 24.19 110.846 24.402C111.042 24.61 111.19 24.86 111.29 25.152C111.394 25.444 111.446 25.764 111.446 26.112V30H110.774C110.634 30 110.526 29.98 110.45 29.94C110.374 29.896 110.314 29.81 110.27 29.682L110.138 29.238C109.982 29.378 109.83 29.502 109.682 29.61C109.534 29.714 109.38 29.802 109.22 29.874C109.06 29.946 108.888 30 108.704 30.036C108.524 30.076 108.324 30.096 108.104 30.096C107.844 30.096 107.604 30.062 107.384 29.994C107.164 29.922 106.974 29.816 106.814 29.676C106.654 29.536 106.53 29.362 106.442 29.154C106.354 28.946 106.31 28.704 106.31 28.428C106.31 28.272 106.336 28.118 106.388 27.966C106.44 27.81 106.524 27.662 106.64 27.522C106.76 27.382 106.914 27.25 107.102 27.126C107.29 27.002 107.52 26.894 107.792 26.802C108.068 26.71 108.388 26.636 108.752 26.58C109.116 26.52 109.532 26.484 110 26.472V26.112C110 25.7 109.912 25.396 109.736 25.2C109.56 25 109.306 24.9 108.974 24.9C108.734 24.9 108.534 24.928 108.374 24.984C108.218 25.04 108.08 25.104 107.96 25.176C107.84 25.244 107.73 25.306 107.63 25.362C107.534 25.418 107.426 25.446 107.306 25.446C107.202 25.446 107.114 25.42 107.042 25.368C106.97 25.312 106.912 25.248 106.868 25.176L106.604 24.702ZM114.588 24.6C114.712 24.476 114.842 24.362 114.978 24.258C115.118 24.15 115.264 24.06 115.416 23.988C115.572 23.912 115.738 23.854 115.914 23.814C116.09 23.77 116.282 23.748 116.49 23.748C116.826 23.748 117.124 23.806 117.384 23.922C117.644 24.034 117.86 24.194 118.032 24.402C118.208 24.606 118.34 24.852 118.428 25.14C118.52 25.424 118.566 25.738 118.566 26.082V30H117.084V26.082C117.084 25.706 116.998 25.416 116.826 25.212C116.654 25.004 116.392 24.9 116.04 24.9C115.784 24.9 115.544 24.958 115.32 25.074C115.096 25.19 114.884 25.348 114.684 25.548V30H113.202V23.844H114.108C114.3 23.844 114.426 23.934 114.486 24.114L114.588 24.6ZM126.865 27.372C126.437 27.392 126.077 27.43 125.785 27.486C125.493 27.538 125.259 27.606 125.083 27.69C124.907 27.774 124.781 27.872 124.705 27.984C124.629 28.096 124.591 28.218 124.591 28.35C124.591 28.61 124.667 28.796 124.819 28.908C124.975 29.02 125.177 29.076 125.425 29.076C125.729 29.076 125.991 29.022 126.211 28.914C126.435 28.802 126.653 28.634 126.865 28.41V27.372ZM123.469 24.702C124.177 24.054 125.029 23.73 126.025 23.73C126.385 23.73 126.707 23.79 126.991 23.91C127.275 24.026 127.515 24.19 127.711 24.402C127.907 24.61 128.055 24.86 128.155 25.152C128.259 25.444 128.311 25.764 128.311 26.112V30H127.639C127.499 30 127.391 29.98 127.315 29.94C127.239 29.896 127.179 29.81 127.135 29.682L127.003 29.238C126.847 29.378 126.695 29.502 126.547 29.61C126.399 29.714 126.245 29.802 126.085 29.874C125.925 29.946 125.753 30 125.569 30.036C125.389 30.076 125.189 30.096 124.969 30.096C124.709 30.096 124.469 30.062 124.249 29.994C124.029 29.922 123.839 29.816 123.679 29.676C123.519 29.536 123.395 29.362 123.307 29.154C123.219 28.946 123.175 28.704 123.175 28.428C123.175 28.272 123.201 28.118 123.253 27.966C123.305 27.81 123.389 27.662 123.505 27.522C123.625 27.382 123.779 27.25 123.967 27.126C124.155 27.002 124.385 26.894 124.657 26.802C124.933 26.71 125.253 26.636 125.617 26.58C125.981 26.52 126.397 26.484 126.865 26.472V26.112C126.865 25.7 126.777 25.396 126.601 25.2C126.425 25 126.171 24.9 125.839 24.9C125.599 24.9 125.399 24.928 125.239 24.984C125.083 25.04 124.945 25.104 124.825 25.176C124.705 25.244 124.595 25.306 124.495 25.362C124.399 25.418 124.291 25.446 124.171 25.446C124.067 25.446 123.979 25.42 123.907 25.368C123.835 25.312 123.777 25.248 123.733 25.176L123.469 24.702ZM134.827 24.504C135.067 24.28 135.331 24.098 135.619 23.958C135.907 23.818 136.245 23.748 136.633 23.748C136.969 23.748 137.267 23.806 137.527 23.922C137.787 24.034 138.003 24.194 138.175 24.402C138.351 24.606 138.483 24.852 138.571 25.14C138.663 25.424 138.709 25.738 138.709 26.082V30H137.227V26.082C137.227 25.706 137.141 25.416 136.969 25.212C136.797 25.004 136.535 24.9 136.183 24.9C135.927 24.9 135.687 24.958 135.463 25.074C135.239 25.19 135.027 25.348 134.827 25.548V30H133.345V21.084H134.827V24.504ZM142.014 23.844V30H140.526V23.844H142.014ZM142.218 22.05C142.218 22.178 142.192 22.298 142.14 22.41C142.088 22.522 142.018 22.62 141.93 22.704C141.846 22.788 141.746 22.856 141.63 22.908C141.514 22.956 141.39 22.98 141.258 22.98C141.13 22.98 141.008 22.956 140.892 22.908C140.78 22.856 140.682 22.788 140.598 22.704C140.514 22.62 140.446 22.522 140.394 22.41C140.346 22.298 140.322 22.178 140.322 22.05C140.322 21.918 140.346 21.794 140.394 21.678C140.446 21.562 140.514 21.462 140.598 21.378C140.682 21.294 140.78 21.228 140.892 21.18C141.008 21.128 141.13 21.102 141.258 21.102C141.39 21.102 141.514 21.128 141.63 21.18C141.746 21.228 141.846 21.294 141.93 21.378C142.018 21.462 142.088 21.562 142.14 21.678C142.192 21.794 142.218 21.918 142.218 22.05ZM146.135 26.772C146.319 26.772 146.479 26.748 146.615 26.7C146.751 26.648 146.863 26.578 146.951 26.49C147.043 26.402 147.111 26.296 147.155 26.172C147.203 26.048 147.227 25.912 147.227 25.764C147.227 25.46 147.135 25.22 146.951 25.044C146.771 24.864 146.499 24.774 146.135 24.774C145.771 24.774 145.497 24.864 145.313 25.044C145.133 25.22 145.043 25.46 145.043 25.764C145.043 25.908 145.065 26.042 145.109 26.166C145.157 26.29 145.225 26.398 145.313 26.49C145.405 26.578 145.519 26.648 145.655 26.7C145.795 26.748 145.955 26.772 146.135 26.772ZM147.809 30.276C147.809 30.156 147.773 30.058 147.701 29.982C147.629 29.906 147.531 29.848 147.407 29.808C147.283 29.764 147.137 29.732 146.969 29.712C146.805 29.692 146.629 29.678 146.441 29.67C146.257 29.658 146.065 29.648 145.865 29.64C145.669 29.632 145.477 29.616 145.289 29.592C145.125 29.684 144.991 29.792 144.887 29.916C144.787 30.04 144.737 30.184 144.737 30.348C144.737 30.456 144.763 30.556 144.815 30.648C144.871 30.744 144.957 30.826 145.073 30.894C145.193 30.962 145.347 31.014 145.535 31.05C145.723 31.09 145.953 31.11 146.225 31.11C146.501 31.11 146.739 31.088 146.939 31.044C147.139 31.004 147.303 30.946 147.431 30.87C147.563 30.798 147.659 30.71 147.719 30.606C147.779 30.506 147.809 30.396 147.809 30.276ZM149.285 24.054V24.606C149.285 24.782 149.179 24.89 148.967 24.93L148.415 25.032C148.499 25.244 148.541 25.476 148.541 25.728C148.541 26.032 148.479 26.308 148.355 26.556C148.235 26.8 148.067 27.008 147.851 27.18C147.635 27.352 147.379 27.486 147.083 27.582C146.791 27.674 146.475 27.72 146.135 27.72C146.015 27.72 145.899 27.714 145.787 27.702C145.675 27.69 145.565 27.674 145.457 27.654C145.265 27.77 145.169 27.9 145.169 28.044C145.169 28.168 145.225 28.26 145.337 28.32C145.453 28.376 145.605 28.416 145.793 28.44C145.981 28.464 146.195 28.48 146.435 28.488C146.675 28.492 146.921 28.504 147.173 28.524C147.425 28.544 147.671 28.58 147.911 28.632C148.151 28.68 148.365 28.758 148.553 28.866C148.741 28.974 148.891 29.122 149.003 29.31C149.119 29.494 149.177 29.732 149.177 30.024C149.177 30.296 149.109 30.56 148.973 30.816C148.841 31.072 148.647 31.3 148.391 31.5C148.139 31.7 147.827 31.86 147.455 31.98C147.087 32.104 146.667 32.166 146.195 32.166C145.731 32.166 145.327 32.12 144.983 32.028C144.639 31.94 144.353 31.82 144.125 31.668C143.897 31.52 143.727 31.348 143.615 31.152C143.503 30.956 143.447 30.752 143.447 30.54C143.447 30.252 143.533 30.012 143.705 29.82C143.881 29.624 144.121 29.468 144.425 29.352C144.261 29.268 144.131 29.156 144.035 29.016C143.939 28.876 143.891 28.692 143.891 28.464C143.891 28.372 143.907 28.278 143.939 28.182C143.975 28.082 144.025 27.984 144.089 27.888C144.157 27.792 144.241 27.702 144.341 27.618C144.441 27.53 144.559 27.452 144.695 27.384C144.383 27.216 144.137 26.992 143.957 26.712C143.781 26.432 143.693 26.104 143.693 25.728C143.693 25.424 143.753 25.15 143.873 24.906C143.997 24.658 144.167 24.448 144.383 24.276C144.603 24.1 144.861 23.966 145.157 23.874C145.457 23.782 145.783 23.736 146.135 23.736C146.399 23.736 146.647 23.764 146.879 23.82C147.111 23.872 147.323 23.95 147.515 24.054H149.285ZM152.067 24.504C152.307 24.28 152.571 24.098 152.859 23.958C153.147 23.818 153.485 23.748 153.873 23.748C154.209 23.748 154.507 23.806 154.767 23.922C155.027 24.034 155.243 24.194 155.415 24.402C155.591 24.606 155.723 24.852 155.811 25.14C155.903 25.424 155.949 25.738 155.949 26.082V30H154.467V26.082C154.467 25.706 154.381 25.416 154.209 25.212C154.037 25.004 153.775 24.9 153.423 24.9C153.167 24.9 152.927 24.958 152.703 25.074C152.479 25.19 152.267 25.348 152.067 25.548V30H150.585V21.084H152.067V24.504ZM4.488 42.044C4.448 42.108 4.406 42.154 4.362 42.182C4.318 42.206 4.262 42.218 4.194 42.218C4.122 42.218 4.044 42.198 3.96 42.158C3.88 42.118 3.786 42.074 3.678 42.026C3.57 41.974 3.446 41.928 3.306 41.888C3.17 41.848 3.008 41.828 2.82 41.828C2.528 41.828 2.298 41.89 2.13 42.014C1.966 42.138 1.884 42.3 1.884 42.5C1.884 42.632 1.926 42.744 2.01 42.836C2.098 42.924 2.212 43.002 2.352 43.07C2.496 43.138 2.658 43.2 2.838 43.256C3.018 43.308 3.2 43.366 3.384 43.43C3.572 43.494 3.756 43.568 3.936 43.652C4.116 43.732 4.276 43.836 4.416 43.964C4.56 44.088 4.674 44.238 4.758 44.414C4.846 44.59 4.89 44.802 4.89 45.05C4.89 45.346 4.836 45.62 4.728 45.872C4.624 46.12 4.468 46.336 4.26 46.52C4.052 46.7 3.794 46.842 3.486 46.946C3.182 47.046 2.83 47.096 2.43 47.096C2.218 47.096 2.01 47.076 1.806 47.036C1.606 47 1.412 46.948 1.224 46.88C1.04 46.812 0.868 46.732 0.708 46.64C0.552 46.548 0.414 46.448 0.294 46.34L0.636 45.776C0.68 45.708 0.732 45.656 0.792 45.62C0.852 45.584 0.928 45.566 1.02 45.566C1.112 45.566 1.198 45.592 1.278 45.644C1.362 45.696 1.458 45.752 1.566 45.812C1.674 45.872 1.8 45.928 1.944 45.98C2.092 46.032 2.278 46.058 2.502 46.058C2.678 46.058 2.828 46.038 2.952 45.998C3.08 45.954 3.184 45.898 3.264 45.83C3.348 45.762 3.408 45.684 3.444 45.596C3.484 45.504 3.504 45.41 3.504 45.314C3.504 45.17 3.46 45.052 3.372 44.96C3.288 44.868 3.174 44.788 3.03 44.72C2.89 44.652 2.728 44.592 2.544 44.54C2.364 44.484 2.178 44.424 1.986 44.36C1.798 44.296 1.612 44.222 1.428 44.138C1.248 44.05 1.086 43.94 0.942 43.808C0.802 43.676 0.688 43.514 0.6 43.322C0.516 43.13 0.474 42.898 0.474 42.626C0.474 42.374 0.524 42.134 0.624 41.906C0.724 41.678 0.87 41.48 1.062 41.312C1.258 41.14 1.5 41.004 1.788 40.904C2.08 40.8 2.416 40.748 2.796 40.748C3.22 40.748 3.606 40.818 3.954 40.958C4.302 41.098 4.592 41.282 4.824 41.51L4.488 42.044ZM10.7754 42.146C10.7314 42.202 10.6874 42.246 10.6434 42.278C10.6034 42.31 10.5434 42.326 10.4634 42.326C10.3874 42.326 10.3134 42.304 10.2414 42.26C10.1694 42.212 10.0834 42.16 9.98344 42.104C9.88344 42.044 9.76344 41.992 9.62344 41.948C9.48744 41.9 9.31744 41.876 9.11344 41.876C8.85344 41.876 8.62544 41.924 8.42944 42.02C8.23344 42.112 8.06944 42.246 7.93744 42.422C7.80944 42.598 7.71344 42.812 7.64944 43.064C7.58544 43.312 7.55344 43.594 7.55344 43.91C7.55344 44.238 7.58744 44.53 7.65544 44.786C7.72744 45.042 7.82944 45.258 7.96144 45.434C8.09344 45.606 8.25344 45.738 8.44144 45.83C8.62944 45.918 8.84144 45.962 9.07744 45.962C9.31344 45.962 9.50344 45.934 9.64744 45.878C9.79544 45.818 9.91944 45.754 10.0194 45.686C10.1194 45.614 10.2054 45.55 10.2774 45.494C10.3534 45.434 10.4374 45.404 10.5294 45.404C10.6494 45.404 10.7394 45.45 10.7994 45.542L11.2254 46.082C11.0614 46.274 10.8834 46.436 10.6914 46.568C10.4994 46.696 10.2994 46.8 10.0914 46.88C9.88744 46.956 9.67544 47.01 9.45544 47.042C9.23944 47.074 9.02344 47.09 8.80744 47.09C8.42744 47.09 8.06944 47.02 7.73344 46.88C7.39744 46.736 7.10344 46.528 6.85144 46.256C6.59944 45.984 6.39944 45.652 6.25144 45.26C6.10744 44.864 6.03544 44.414 6.03544 43.91C6.03544 43.458 6.09944 43.04 6.22744 42.656C6.35944 42.268 6.55144 41.934 6.80344 41.654C7.05544 41.37 7.36744 41.148 7.73944 40.988C8.11144 40.828 8.53944 40.748 9.02344 40.748C9.48344 40.748 9.88544 40.822 10.2294 40.97C10.5774 41.118 10.8894 41.33 11.1654 41.606L10.7754 42.146ZM13.9965 41.504C14.2365 41.28 14.5005 41.098 14.7885 40.958C15.0765 40.818 15.4145 40.748 15.8025 40.748C16.1385 40.748 16.4365 40.806 16.6965 40.922C16.9565 41.034 17.1725 41.194 17.3445 41.402C17.5205 41.606 17.6525 41.852 17.7405 42.14C17.8325 42.424 17.8785 42.738 17.8785 43.082V47H16.3965V43.082C16.3965 42.706 16.3105 42.416 16.1385 42.212C15.9665 42.004 15.7045 41.9 15.3525 41.9C15.0965 41.9 14.8565 41.958 14.6325 42.074C14.4085 42.19 14.1965 42.348 13.9965 42.548V47H12.5145V38.084H13.9965V41.504ZM22.3719 40.748C22.8279 40.748 23.2419 40.822 23.6139 40.97C23.9899 41.118 24.3099 41.328 24.5739 41.6C24.8419 41.872 25.0479 42.204 25.1919 42.596C25.3359 42.988 25.4079 43.426 25.4079 43.91C25.4079 44.398 25.3359 44.838 25.1919 45.23C25.0479 45.622 24.8419 45.956 24.5739 46.232C24.3099 46.508 23.9899 46.72 23.6139 46.868C23.2419 47.016 22.8279 47.09 22.3719 47.09C21.9119 47.09 21.4939 47.016 21.1179 46.868C20.7419 46.72 20.4199 46.508 20.1519 46.232C19.8879 45.956 19.6819 45.622 19.5339 45.23C19.3899 44.838 19.3179 44.398 19.3179 43.91C19.3179 43.426 19.3899 42.988 19.5339 42.596C19.6819 42.204 19.8879 41.872 20.1519 41.6C20.4199 41.328 20.7419 41.118 21.1179 40.97C21.4939 40.822 21.9119 40.748 22.3719 40.748ZM22.3719 45.95C22.8839 45.95 23.2619 45.778 23.5059 45.434C23.7539 45.09 23.8779 44.586 23.8779 43.922C23.8779 43.258 23.7539 42.752 23.5059 42.404C23.2619 42.056 22.8839 41.882 22.3719 41.882C21.8519 41.882 21.4659 42.058 21.2139 42.41C20.9659 42.758 20.8419 43.262 20.8419 43.922C20.8419 44.582 20.9659 45.086 21.2139 45.434C21.4659 45.778 21.8519 45.95 22.3719 45.95ZM29.6226 40.748C30.0786 40.748 30.4926 40.822 30.8646 40.97C31.2406 41.118 31.5606 41.328 31.8246 41.6C32.0926 41.872 32.2986 42.204 32.4426 42.596C32.5866 42.988 32.6586 43.426 32.6586 43.91C32.6586 44.398 32.5866 44.838 32.4426 45.23C32.2986 45.622 32.0926 45.956 31.8246 46.232C31.5606 46.508 31.2406 46.72 30.8646 46.868C30.4926 47.016 30.0786 47.09 29.6226 47.09C29.1626 47.09 28.7446 47.016 28.3686 46.868C27.9926 46.72 27.6706 46.508 27.4026 46.232C27.1386 45.956 26.9326 45.622 26.7846 45.23C26.6406 44.838 26.5686 44.398 26.5686 43.91C26.5686 43.426 26.6406 42.988 26.7846 42.596C26.9326 42.204 27.1386 41.872 27.4026 41.6C27.6706 41.328 27.9926 41.118 28.3686 40.97C28.7446 40.822 29.1626 40.748 29.6226 40.748ZM29.6226 45.95C30.1346 45.95 30.5126 45.778 30.7566 45.434C31.0046 45.09 31.1286 44.586 31.1286 43.922C31.1286 43.258 31.0046 42.752 30.7566 42.404C30.5126 42.056 30.1346 41.882 29.6226 41.882C29.1026 41.882 28.7166 42.058 28.4646 42.41C28.2166 42.758 28.0926 43.262 28.0926 43.922C28.0926 44.582 28.2166 45.086 28.4646 45.434C28.7166 45.778 29.1026 45.95 29.6226 45.95ZM35.6492 38.084V47H34.1672V38.084H35.6492ZM44.7297 43.214C44.7297 43.022 44.7017 42.842 44.6457 42.674C44.5937 42.502 44.5137 42.352 44.4057 42.224C44.2977 42.096 44.1597 41.996 43.9917 41.924C43.8277 41.848 43.6357 41.81 43.4157 41.81C42.9877 41.81 42.6497 41.932 42.4017 42.176C42.1577 42.42 42.0017 42.766 41.9337 43.214H44.7297ZM41.9037 44.108C41.9277 44.424 41.9837 44.698 42.0717 44.93C42.1597 45.158 42.2757 45.348 42.4197 45.5C42.5637 45.648 42.7337 45.76 42.9297 45.836C43.1297 45.908 43.3497 45.944 43.5897 45.944C43.8297 45.944 44.0357 45.916 44.2077 45.86C44.3837 45.804 44.5357 45.742 44.6637 45.674C44.7957 45.606 44.9097 45.544 45.0057 45.488C45.1057 45.432 45.2017 45.404 45.2937 45.404C45.4177 45.404 45.5097 45.45 45.5697 45.542L45.9957 46.082C45.8317 46.274 45.6477 46.436 45.4437 46.568C45.2397 46.696 45.0257 46.8 44.8017 46.88C44.5817 46.956 44.3557 47.01 44.1237 47.042C43.8957 47.074 43.6737 47.09 43.4577 47.09C43.0297 47.09 42.6317 47.02 42.2637 46.88C41.8957 46.736 41.5757 46.526 41.3037 46.25C41.0317 45.97 40.8177 45.626 40.6617 45.218C40.5057 44.806 40.4277 44.33 40.4277 43.79C40.4277 43.37 40.4957 42.976 40.6317 42.608C40.7677 42.236 40.9617 41.914 41.2137 41.642C41.4697 41.366 41.7797 41.148 42.1437 40.988C42.5117 40.828 42.9257 40.748 43.3857 40.748C43.7737 40.748 44.1317 40.81 44.4597 40.934C44.7877 41.058 45.0697 41.24 45.3057 41.48C45.5417 41.716 45.7257 42.008 45.8577 42.356C45.9937 42.7 46.0617 43.094 46.0617 43.538C46.0617 43.762 46.0377 43.914 45.9897 43.994C45.9417 44.07 45.8497 44.108 45.7137 44.108H41.9037ZM51.3979 42.416C51.2299 42.212 51.0459 42.068 50.8459 41.984C50.6499 41.9 50.4379 41.858 50.2099 41.858C49.9859 41.858 49.7839 41.9 49.6039 41.984C49.4239 42.068 49.2699 42.196 49.1419 42.368C49.0139 42.536 48.9159 42.752 48.8479 43.016C48.7799 43.276 48.7459 43.584 48.7459 43.94C48.7459 44.3 48.7739 44.606 48.8299 44.858C48.8899 45.106 48.9739 45.31 49.0819 45.47C49.1899 45.626 49.3219 45.74 49.4779 45.812C49.6339 45.88 49.8079 45.914 49.9999 45.914C50.3079 45.914 50.5699 45.85 50.7859 45.722C51.0019 45.594 51.2059 45.412 51.3979 45.176V42.416ZM52.8799 38.084V47H51.9739C51.7779 47 51.6539 46.91 51.6019 46.73L51.4759 46.136C51.2279 46.42 50.9419 46.65 50.6179 46.826C50.2979 47.002 49.9239 47.09 49.4959 47.09C49.1599 47.09 48.8519 47.02 48.5719 46.88C48.2919 46.74 48.0499 46.538 47.8459 46.274C47.6459 46.006 47.4899 45.676 47.3779 45.284C47.2699 44.892 47.2159 44.444 47.2159 43.94C47.2159 43.484 47.2779 43.06 47.4019 42.668C47.5259 42.276 47.7039 41.936 47.9359 41.648C48.1679 41.36 48.4459 41.136 48.7699 40.976C49.0939 40.812 49.4579 40.73 49.8619 40.73C50.2059 40.73 50.4999 40.784 50.7439 40.892C50.9879 41 51.2059 41.146 51.3979 41.33V38.084H52.8799ZM60.0065 40.844V47H59.1005C58.9045 47 58.7805 46.91 58.7285 46.73L58.6265 46.238C58.3745 46.494 58.0965 46.702 57.7925 46.862C57.4885 47.018 57.1305 47.096 56.7185 47.096C56.3825 47.096 56.0845 47.04 55.8245 46.928C55.5685 46.812 55.3525 46.65 55.1765 46.442C55.0005 46.234 54.8665 45.988 54.7745 45.704C54.6865 45.416 54.6425 45.1 54.6425 44.756V40.844H56.1245V44.756C56.1245 45.132 56.2105 45.424 56.3825 45.632C56.5585 45.836 56.8205 45.938 57.1685 45.938C57.4245 45.938 57.6645 45.882 57.8885 45.77C58.1125 45.654 58.3245 45.496 58.5245 45.296V40.844H60.0065ZM66.2459 42.146C66.2019 42.202 66.1579 42.246 66.1139 42.278C66.0739 42.31 66.0139 42.326 65.9339 42.326C65.8579 42.326 65.7839 42.304 65.7119 42.26C65.6399 42.212 65.5539 42.16 65.4539 42.104C65.3539 42.044 65.2339 41.992 65.0939 41.948C64.9579 41.9 64.7879 41.876 64.5839 41.876C64.3239 41.876 64.0959 41.924 63.8999 42.02C63.7039 42.112 63.5399 42.246 63.4079 42.422C63.2799 42.598 63.1839 42.812 63.1199 43.064C63.0559 43.312 63.0239 43.594 63.0239 43.91C63.0239 44.238 63.0579 44.53 63.1259 44.786C63.1979 45.042 63.2999 45.258 63.4319 45.434C63.5639 45.606 63.7239 45.738 63.9119 45.83C64.0999 45.918 64.3119 45.962 64.5479 45.962C64.7839 45.962 64.9739 45.934 65.1179 45.878C65.2659 45.818 65.3899 45.754 65.4899 45.686C65.5899 45.614 65.6759 45.55 65.7479 45.494C65.8239 45.434 65.9079 45.404 65.9999 45.404C66.1199 45.404 66.2099 45.45 66.2699 45.542L66.6959 46.082C66.5319 46.274 66.3539 46.436 66.1619 46.568C65.9699 46.696 65.7699 46.8 65.5619 46.88C65.3579 46.956 65.1459 47.01 64.9259 47.042C64.7099 47.074 64.4939 47.09 64.2779 47.09C63.8979 47.09 63.5399 47.02 63.2039 46.88C62.8679 46.736 62.5739 46.528 62.3219 46.256C62.0699 45.984 61.8699 45.652 61.7219 45.26C61.5779 44.864 61.5059 44.414 61.5059 43.91C61.5059 43.458 61.5699 43.04 61.6979 42.656C61.8299 42.268 62.0219 41.934 62.2739 41.654C62.5259 41.37 62.8379 41.148 63.2099 40.988C63.5819 40.828 64.0099 40.748 64.4939 40.748C64.9539 40.748 65.3559 40.822 65.6999 40.97C66.0479 41.118 66.3599 41.33 66.6359 41.606L66.2459 42.146ZM71.237 44.372C70.809 44.392 70.449 44.43 70.157 44.486C69.865 44.538 69.631 44.606 69.455 44.69C69.279 44.774 69.153 44.872 69.077 44.984C69.001 45.096 68.963 45.218 68.963 45.35C68.963 45.61 69.039 45.796 69.191 45.908C69.347 46.02 69.549 46.076 69.797 46.076C70.101 46.076 70.363 46.022 70.583 45.914C70.807 45.802 71.025 45.634 71.237 45.41V44.372ZM67.841 41.702C68.549 41.054 69.401 40.73 70.397 40.73C70.757 40.73 71.079 40.79 71.363 40.91C71.647 41.026 71.887 41.19 72.083 41.402C72.279 41.61 72.427 41.86 72.527 42.152C72.631 42.444 72.683 42.764 72.683 43.112V47H72.011C71.871 47 71.763 46.98 71.687 46.94C71.611 46.896 71.551 46.81 71.507 46.682L71.375 46.238C71.219 46.378 71.067 46.502 70.919 46.61C70.771 46.714 70.617 46.802 70.457 46.874C70.297 46.946 70.125 47 69.941 47.036C69.761 47.076 69.561 47.096 69.341 47.096C69.081 47.096 68.841 47.062 68.621 46.994C68.401 46.922 68.211 46.816 68.051 46.676C67.891 46.536 67.767 46.362 67.679 46.154C67.591 45.946 67.547 45.704 67.547 45.428C67.547 45.272 67.573 45.118 67.625 44.966C67.677 44.81 67.761 44.662 67.877 44.522C67.997 44.382 68.151 44.25 68.339 44.126C68.527 44.002 68.757 43.894 69.029 43.802C69.305 43.71 69.625 43.636 69.989 43.58C70.353 43.52 70.769 43.484 71.237 43.472V43.112C71.237 42.7 71.149 42.396 70.973 42.2C70.797 42 70.543 41.9 70.211 41.9C69.971 41.9 69.771 41.928 69.611 41.984C69.455 42.04 69.317 42.104 69.197 42.176C69.077 42.244 68.967 42.306 68.867 42.362C68.771 42.418 68.663 42.446 68.543 42.446C68.439 42.446 68.351 42.42 68.279 42.368C68.207 42.312 68.149 42.248 68.105 42.176L67.841 41.702ZM80.5667 47H79.0847V41.954H76.2287V45.29C76.2287 45.482 76.2747 45.632 76.3667 45.74C76.4627 45.848 76.5927 45.902 76.7567 45.902C76.8487 45.902 76.9247 45.892 76.9847 45.872C77.0487 45.848 77.1027 45.824 77.1467 45.8C77.1947 45.776 77.2367 45.754 77.2727 45.734C77.3087 45.71 77.3447 45.698 77.3807 45.698C77.4247 45.698 77.4607 45.71 77.4887 45.734C77.5167 45.754 77.5467 45.786 77.5787 45.83L78.0227 46.55C77.8067 46.73 77.5587 46.866 77.2787 46.958C76.9987 47.05 76.7087 47.096 76.4087 47.096C75.8727 47.096 75.4607 46.946 75.1727 46.646C74.8887 46.342 74.7467 45.924 74.7467 45.392V41.954H74.1167C74.0367 41.954 73.9687 41.928 73.9127 41.876C73.8567 41.824 73.8287 41.746 73.8287 41.642V41.054L74.8187 40.886L75.1307 39.212C75.1507 39.132 75.1887 39.07 75.2447 39.026C75.3007 38.982 75.3727 38.96 75.4607 38.96H76.2287V40.898H80.5667V47ZM80.8247 39.026C80.8247 39.154 80.7987 39.276 80.7467 39.392C80.6947 39.504 80.6247 39.602 80.5367 39.686C80.4527 39.77 80.3507 39.838 80.2307 39.89C80.1147 39.938 79.9907 39.962 79.8587 39.962C79.7307 39.962 79.6107 39.938 79.4987 39.89C79.3867 39.838 79.2887 39.77 79.2047 39.686C79.1207 39.602 79.0527 39.504 79.0007 39.392C78.9527 39.276 78.9287 39.154 78.9287 39.026C78.9287 38.894 78.9527 38.772 79.0007 38.66C79.0527 38.544 79.1207 38.444 79.2047 38.36C79.2887 38.272 79.3867 38.204 79.4987 38.156C79.6107 38.104 79.7307 38.078 79.8587 38.078C79.9907 38.078 80.1147 38.104 80.2307 38.156C80.3507 38.204 80.4527 38.272 80.5367 38.36C80.6247 38.444 80.6947 38.544 80.7467 38.66C80.7987 38.772 80.8247 38.894 80.8247 39.026ZM85.1633 40.748C85.6193 40.748 86.0333 40.822 86.4053 40.97C86.7813 41.118 87.1013 41.328 87.3653 41.6C87.6333 41.872 87.8393 42.204 87.9833 42.596C88.1273 42.988 88.1993 43.426 88.1993 43.91C88.1993 44.398 88.1273 44.838 87.9833 45.23C87.8393 45.622 87.6333 45.956 87.3653 46.232C87.1013 46.508 86.7813 46.72 86.4053 46.868C86.0333 47.016 85.6193 47.09 85.1633 47.09C84.7033 47.09 84.2853 47.016 83.9093 46.868C83.5333 46.72 83.2113 46.508 82.9433 46.232C82.6793 45.956 82.4733 45.622 82.3253 45.23C82.1813 44.838 82.1093 44.398 82.1093 43.91C82.1093 43.426 82.1813 42.988 82.3253 42.596C82.4733 42.204 82.6793 41.872 82.9433 41.6C83.2113 41.328 83.5333 41.118 83.9093 40.97C84.2853 40.822 84.7033 40.748 85.1633 40.748ZM85.1633 45.95C85.6753 45.95 86.0533 45.778 86.2973 45.434C86.5453 45.09 86.6693 44.586 86.6693 43.922C86.6693 43.258 86.5453 42.752 86.2973 42.404C86.0533 42.056 85.6753 41.882 85.1633 41.882C84.6433 41.882 84.2573 42.058 84.0053 42.41C83.7573 42.758 83.6333 43.262 83.6333 43.922C83.6333 44.582 83.7573 45.086 84.0053 45.434C84.2573 45.778 84.6433 45.95 85.1633 45.95ZM91.076 41.6C91.2 41.476 91.33 41.362 91.466 41.258C91.606 41.15 91.752 41.06 91.904 40.988C92.06 40.912 92.226 40.854 92.402 40.814C92.578 40.77 92.77 40.748 92.978 40.748C93.314 40.748 93.612 40.806 93.872 40.922C94.132 41.034 94.348 41.194 94.52 41.402C94.696 41.606 94.828 41.852 94.916 42.14C95.008 42.424 95.054 42.738 95.054 43.082V47H93.572V43.082C93.572 42.706 93.486 42.416 93.314 42.212C93.142 42.004 92.88 41.9 92.528 41.9C92.272 41.9 92.032 41.958 91.808 42.074C91.584 42.19 91.372 42.348 91.172 42.548V47H89.69V40.844H90.596C90.788 40.844 90.914 40.934 90.974 41.114L91.076 41.6Z" fill="black"/>
<defs>
<linearGradient id="paint0_linear" x1="198.5" y1="77.2144" x2="-0.0092174" y2="75.7406" gradientUnits="userSpaceOnUse">
<stop stop-color="#C80021"/>
<stop offset="1" stop-color="#F1F1F1"/>
</linearGradient>
</defs>
</svg>
