<svg width="139" height="118" viewBox="0 0 139 118" fill="none" xmlns="http://www.w3.org/2000/svg">
<path d="M10.2996 11.4C13.4476 11.4 15.9996 8.84802 15.9996 5.7C15.9996 2.55198 13.4476 0 10.2996 0C7.15159 0 4.59961 2.55198 4.59961 5.7C4.59961 8.84802 7.15159 11.4 10.2996 11.4Z" fill="#F79406"/>
<path d="M14.4 13.9H6.1C2.7 13.9 0 16.7 0 20V36.1H3.6V23.4H4.7V36.2H15.9V23.4H17V36.2H20.6V20.1C20.6 16.7 17.8 13.9 14.4 13.9Z" fill="#F79406"/>
<path d="M39.8992 11.4C43.0472 11.4 45.5992 8.84802 45.5992 5.7C45.5992 2.55198 43.0472 0 39.8992 0C36.7512 0 34.1992 2.55198 34.1992 5.7C34.1992 8.84802 36.7512 11.4 39.8992 11.4Z" fill="#EBEBEB"/>
<path d="M43.9996 13.9H35.6996C32.2996 13.9 29.5996 16.7 29.5996 20V36.1H33.1996V23.4H34.2996V36.2H45.4996V23.4H46.5996V36.2H50.1996V20.1C50.1996 16.7 47.3996 13.9 43.9996 13.9Z" fill="#EBEBEB"/>
<mask id="mask0" mask-type="alpha" maskUnits="userSpaceOnUse" x="29" y="13" width="22" height="24">
<path d="M43.9996 13.9H35.6996C32.2996 13.9 29.5996 16.7 29.5996 20V36.1H33.1996V23.4H34.2996V36.2H45.4996V23.4H46.5996V36.2H50.1996V20.1C50.1996 16.7 47.3996 13.9 43.9996 13.9Z" fill="#EBEBEB"/>
</mask>
<g mask="url(#mask0)">
<rect width="20.6" height="6" transform="matrix(1 0 0 -1 29.5996 36.2)" fill="#F79406"/>
</g>
<path d="M69.4988 11.4C72.6469 11.4 75.1988 8.84802 75.1988 5.7C75.1988 2.55198 72.6469 0 69.4988 0C66.3508 0 63.7988 2.55198 63.7988 5.7C63.7988 8.84802 66.3508 11.4 69.4988 11.4Z" fill="#EBEBEB"/>
<path d="M73.5992 13.9H65.2992C61.8992 13.9 59.1992 16.7 59.1992 20V36.1H62.7992V23.4H63.8992V36.2H75.0992V23.4H76.1992V36.2H79.7992V20.1C79.7992 16.7 76.9992 13.9 73.5992 13.9Z" fill="#EBEBEB"/>
<path d="M99.1004 11.4C102.248 11.4 104.8 8.84802 104.8 5.7C104.8 2.55198 102.248 0 99.1004 0C95.9524 0 93.4004 2.55198 93.4004 5.7C93.4004 8.84802 95.9524 11.4 99.1004 11.4Z" fill="#EBEBEB"/>
<path d="M103.201 13.9H94.9008C91.5008 13.9 88.8008 16.7 88.8008 20V36.1H92.4008V23.4H93.5008V36.2H104.701V23.4H105.801V36.2H109.401V20.1C109.401 16.7 106.601 13.9 103.201 13.9Z" fill="#EBEBEB"/>
<path d="M128.7 11.4C131.848 11.4 134.4 8.84802 134.4 5.7C134.4 2.55198 131.848 0 128.7 0C125.552 0 123 2.55198 123 5.7C123 8.84802 125.552 11.4 128.7 11.4Z" fill="#EBEBEB"/>
<path d="M132.8 13.9H124.5C121.1 13.9 118.4 16.7 118.4 20V36.1H122V23.4H123.1V36.2H134.3V23.4H135.4V36.2H139V20.1C139 16.7 136.2 13.9 132.8 13.9Z" fill="#EBEBEB"/>
<path d="M10.2996 56.6C13.4476 56.6 15.9996 54.048 15.9996 50.9C15.9996 47.7519 13.4476 45.2 10.2996 45.2C7.15159 45.2 4.59961 47.7519 4.59961 50.9C4.59961 54.048 7.15159 56.6 10.2996 56.6Z" fill="#EBEBEB"/>
<path d="M14.4 59.1H6.1C2.7 59.1 0 61.9 0 65.2V81.3H3.6V68.6H4.7V81.4H15.9V68.6H17V81.4H20.6V65.3C20.6 61.9 17.8 59.1 14.4 59.1Z" fill="#EBEBEB"/>
<path d="M39.8992 56.6C43.0472 56.6 45.5992 54.048 45.5992 50.9C45.5992 47.7519 43.0472 45.2 39.8992 45.2C36.7512 45.2 34.1992 47.7519 34.1992 50.9C34.1992 54.048 36.7512 56.6 39.8992 56.6Z" fill="#EBEBEB"/>
<path d="M43.9996 59.1H35.6996C32.2996 59.1 29.5996 61.9 29.5996 65.2V81.3H33.1996V68.6H34.2996V81.4H45.4996V68.6H46.5996V81.4H50.1996V65.3C50.1996 61.9 47.3996 59.1 43.9996 59.1Z" fill="#EBEBEB"/>
<mask id="mask1" mask-type="alpha" maskUnits="userSpaceOnUse" x="29" y="59" width="22" height="23">
<path d="M43.9996 59.1H35.6996C32.2996 59.1 29.5996 61.9 29.5996 65.2V81.3H33.1996V68.6H34.2996V81.4H45.4996V68.6H46.5996V81.4H50.1996V65.3C50.1996 61.9 47.3996 59.1 43.9996 59.1Z" fill="#EBEBEB"/>
</mask>
<g mask="url(#mask1)">
<rect width="20.6" height="1" transform="matrix(1 0 0 -1 29.5996 81.3999)" fill="#EBEBEB"/>
</g>
<path d="M69.4988 56.6C72.6469 56.6 75.1988 54.048 75.1988 50.9C75.1988 47.7519 72.6469 45.2 69.4988 45.2C66.3508 45.2 63.7988 47.7519 63.7988 50.9C63.7988 54.048 66.3508 56.6 69.4988 56.6Z" fill="#EBEBEB"/>
<path d="M73.5992 59.1H65.2992C61.8992 59.1 59.1992 61.9 59.1992 65.2V81.3H62.7992V68.6H63.8992V81.4H75.0992V68.6H76.1992V81.4H79.7992V65.3C79.7992 61.9 76.9992 59.1 73.5992 59.1Z" fill="#EBEBEB"/>
<path d="M99.1004 56.6C102.248 56.6 104.8 54.048 104.8 50.9C104.8 47.7519 102.248 45.2 99.1004 45.2C95.9524 45.2 93.4004 47.7519 93.4004 50.9C93.4004 54.048 95.9524 56.6 99.1004 56.6Z" fill="#EBEBEB"/>
<path d="M103.201 59.1H94.9008C91.5008 59.1 88.8008 61.9 88.8008 65.2V81.3H92.4008V68.6H93.5008V81.4H104.701V68.6H105.801V81.4H109.401V65.3C109.401 61.9 106.601 59.1 103.201 59.1Z" fill="#EBEBEB"/>
<path d="M128.7 56.6C131.848 56.6 134.4 54.048 134.4 50.9C134.4 47.7519 131.848 45.2 128.7 45.2C125.552 45.2 123 47.7519 123 50.9C123 54.048 125.552 56.6 128.7 56.6Z" fill="#EBEBEB"/>
<path d="M132.8 59.1H124.5C121.1 59.1 118.4 61.9 118.4 65.2V81.3H122V68.6H123.1V81.4H134.3V68.6H135.4V81.4H139V65.3C139 61.9 136.2 59.1 132.8 59.1Z" fill="#EBEBEB"/>
<path d="M5.634 102.532C5.514 104.884 5.454 106.756 5.454 108.148C5.454 108.868 5.472 109.552 5.508 110.2C5.604 110.272 5.79 110.308 6.066 110.308L6.48 110.29C6.648 110.266 6.804 110.254 6.948 110.254C7.26 110.254 7.5 110.308 7.668 110.416C7.848 110.524 7.938 110.734 7.938 111.046C7.938 111.346 7.848 111.58 7.668 111.748C7.5 111.916 7.146 112 6.606 112C6.15 112 5.598 111.964 4.95 111.892C4.794 111.88 4.644 111.868 4.5 111.856C4.356 111.844 4.224 111.838 4.104 111.838C3.444 111.85 2.952 111.874 2.628 111.91C2.304 111.946 1.938 111.964 1.53 111.964C1.158 111.964 0.972 111.682 0.972 111.118C0.972 110.578 1.32 110.308 2.016 110.308C2.124 110.308 2.298 110.32 2.538 110.344C2.742 110.38 2.958 110.398 3.186 110.398C3.318 110.398 3.426 110.392 3.51 110.38C3.522 109.576 3.564 108.406 3.636 106.87C3.708 105.07 3.744 103.738 3.744 102.874C3.684 102.886 3.474 102.97 3.114 103.126C2.562 103.402 2.154 103.54 1.89 103.54C1.746 103.54 1.614 103.468 1.494 103.324C1.374 103.168 1.314 102.988 1.314 102.784C1.314 102.58 1.44 102.382 1.692 102.19C1.944 101.998 2.352 101.746 2.916 101.434C3.228 101.278 3.528 101.104 3.816 100.912C3.888 100.864 3.99 100.816 4.122 100.768C4.266 100.72 4.374 100.696 4.446 100.696C4.758 100.696 5.04 100.762 5.292 100.894C5.556 101.014 5.688 101.176 5.688 101.38L5.634 102.532ZM12.5976 110.128C13.0056 110.152 13.2756 110.164 13.4076 110.164C13.8156 110.164 14.1756 110.158 14.4876 110.146C14.8116 110.134 15.0876 110.122 15.3156 110.11C15.9036 110.074 16.4316 110.056 16.8996 110.056C17.3556 110.056 17.6916 110.176 17.9076 110.416C18.1236 110.656 18.2316 110.974 18.2316 111.37C18.2316 111.562 18.1056 111.718 17.8536 111.838C17.6016 111.946 17.3436 112 17.0796 112C16.8516 112 16.3776 111.976 15.6576 111.928C14.7936 111.856 14.1156 111.82 13.6236 111.82C13.3596 111.82 13.0476 111.838 12.6876 111.874C12.5436 111.886 12.3696 111.898 12.1656 111.91C11.9616 111.922 11.7336 111.928 11.4816 111.928C11.0016 111.928 10.6356 111.862 10.3836 111.73C10.1316 111.598 10.0056 111.358 10.0056 111.01C10.0056 110.71 10.1256 110.404 10.3656 110.092C10.6056 109.78 10.9416 109.408 11.3736 108.976L11.8056 108.544C11.9976 108.34 12.3516 107.992 12.8676 107.5C13.7196 106.732 14.3796 106.054 14.8476 105.466C15.3276 104.878 15.5676 104.296 15.5676 103.72C15.5676 103.348 15.3876 103.048 15.0276 102.82C14.6796 102.58 14.2776 102.46 13.8216 102.46C13.1256 102.46 12.6216 102.616 12.3096 102.928C12.0096 103.228 11.8596 103.666 11.8596 104.242C11.8596 104.386 11.7756 104.518 11.6076 104.638C11.4516 104.746 11.2536 104.8 11.0136 104.8C10.6776 104.8 10.4436 104.68 10.3116 104.44C10.1796 104.2 10.1136 103.906 10.1136 103.558C10.1136 103.006 10.2816 102.52 10.6176 102.1C10.9536 101.668 11.4096 101.332 11.9856 101.092C12.5736 100.852 13.2216 100.732 13.9296 100.732C14.4336 100.732 14.9556 100.858 15.4956 101.11C16.0476 101.35 16.5036 101.68 16.8636 102.1C17.2356 102.508 17.4216 102.958 17.4216 103.45C17.4216 104.194 17.2356 104.902 16.8636 105.574C16.4916 106.246 16.0536 106.846 15.5496 107.374C15.0576 107.89 14.4156 108.502 13.6236 109.21C13.2396 109.534 12.8976 109.84 12.5976 110.128ZM29.8842 100.444C30.0522 100.444 30.1782 100.51 30.2622 100.642C30.3462 100.774 30.3882 100.924 30.3882 101.092C30.3882 101.32 30.2922 101.548 30.1002 101.776L29.3982 102.676C28.0302 104.464 26.9322 105.946 26.1042 107.122C25.2762 108.298 24.4782 109.588 23.7102 110.992C23.3382 111.712 22.9122 112.072 22.4322 112.072C22.2162 112.072 22.0242 112.018 21.8562 111.91C21.6882 111.79 21.6042 111.592 21.6042 111.316C21.6042 111.136 21.6582 110.986 21.7662 110.866C22.1622 110.302 22.8702 109.252 23.8902 107.716C24.8502 106.288 25.6422 105.124 26.2662 104.224C26.9022 103.312 27.5202 102.484 28.1202 101.74C28.1682 101.68 28.2822 101.53 28.4622 101.29C28.6542 101.05 28.8702 100.852 29.1102 100.696C29.3502 100.528 29.6082 100.444 29.8842 100.444ZM22.7562 100.642C23.1162 100.642 23.4822 100.726 23.8542 100.894C24.2382 101.062 24.5562 101.302 24.8082 101.614C25.0602 101.914 25.1862 102.25 25.1862 102.622C25.1862 103.15 25.0722 103.63 24.8442 104.062C24.6162 104.494 24.3042 104.836 23.9082 105.088C23.5122 105.328 23.0742 105.448 22.5942 105.448C21.8382 105.448 21.2322 105.226 20.7762 104.782C20.3202 104.326 20.0922 103.732 20.0922 103C20.0922 102.232 20.3262 101.65 20.7942 101.254C21.2742 100.846 21.9282 100.642 22.7562 100.642ZM22.3602 104.08C23.2242 104.08 23.6562 103.618 23.6562 102.694C23.6562 102.466 23.5722 102.298 23.4042 102.19C23.2482 102.082 22.9962 102.028 22.6482 102.028C22.2642 102.028 21.9702 102.13 21.7662 102.334C21.5742 102.526 21.4782 102.748 21.4782 103C21.4782 103.276 21.5622 103.528 21.7302 103.756C21.8982 103.972 22.1082 104.08 22.3602 104.08ZM31.5042 109.48C31.5042 109.948 31.3722 110.368 31.1082 110.74C30.8562 111.1 30.5142 111.382 30.0822 111.586C29.6622 111.79 29.2182 111.892 28.7502 111.892C28.3542 111.892 27.9822 111.796 27.6342 111.604C27.2862 111.4 27.0042 111.124 26.7882 110.776C26.5842 110.428 26.4822 110.038 26.4822 109.606C26.4822 109.162 26.5902 108.742 26.8062 108.346C27.0342 107.95 27.3582 107.632 27.7782 107.392C28.1982 107.14 28.6902 107.014 29.2542 107.014C29.9862 107.014 30.5442 107.23 30.9282 107.662C31.3122 108.082 31.5042 108.688 31.5042 109.48ZM29.1102 108.382C28.7622 108.382 28.4802 108.472 28.2642 108.652C28.0602 108.832 27.9582 109.114 27.9582 109.498C27.9582 109.834 28.0422 110.092 28.2102 110.272C28.3782 110.452 28.5582 110.542 28.7502 110.542C29.6742 110.542 30.1362 110.128 30.1362 109.3C30.1362 109.024 30.0462 108.802 29.8662 108.634C29.6862 108.466 29.4342 108.382 29.1102 108.382Z" fill="black"/>
</svg>
