<svg width="139" height="118" viewBox="0 0 139 118" fill="none" xmlns="http://www.w3.org/2000/svg">
<path d="M10.2996 11.4C13.4476 11.4 15.9996 8.84802 15.9996 5.7C15.9996 2.55198 13.4476 0 10.2996 0C7.15159 0 4.59961 2.55198 4.59961 5.7C4.59961 8.84802 7.15159 11.4 10.2996 11.4Z" fill="#F79406"/>
<path d="M14.4 13.9H6.1C2.7 13.9 0 16.7 0 20V36.1H3.6V23.4H4.7V36.2H15.9V23.4H17V36.2H20.6V20.1C20.6 16.7 17.8 13.9 14.4 13.9Z" fill="#F79406"/>
<path d="M39.8992 11.4C43.0472 11.4 45.5992 8.84802 45.5992 5.7C45.5992 2.55198 43.0472 0 39.8992 0C36.7512 0 34.1992 2.55198 34.1992 5.7C34.1992 8.84802 36.7512 11.4 39.8992 11.4Z" fill="#F79406"/>
<path d="M43.9996 13.9H35.6996C32.2996 13.9 29.5996 16.7 29.5996 20V36.1H33.1996V23.4H34.2996V36.2H45.4996V23.4H46.5996V36.2H50.1996V20.1C50.1996 16.7 47.3996 13.9 43.9996 13.9Z" fill="#F79406"/>
<path d="M69.4988 11.4C72.6469 11.4 75.1988 8.84802 75.1988 5.7C75.1988 2.55198 72.6469 0 69.4988 0C66.3508 0 63.7988 2.55198 63.7988 5.7C63.7988 8.84802 66.3508 11.4 69.4988 11.4Z" fill="#EBEBEB"/>
<path d="M73.5992 13.9H65.2992C61.8992 13.9 59.1992 16.7 59.1992 20V36.1H62.7992V23.4H63.8992V36.2H75.0992V23.4H76.1992V36.2H79.7992V20.1C79.7992 16.7 76.9992 13.9 73.5992 13.9Z" fill="#EBEBEB"/>
<path d="M99.1004 11.4C102.248 11.4 104.8 8.84802 104.8 5.7C104.8 2.55198 102.248 0 99.1004 0C95.9524 0 93.4004 2.55198 93.4004 5.7C93.4004 8.84802 95.9524 11.4 99.1004 11.4Z" fill="#EBEBEB"/>
<path d="M103.201 13.9H94.9008C91.5008 13.9 88.8008 16.7 88.8008 20V36.1H92.4008V23.4H93.5008V36.2H104.701V23.4H105.801V36.2H109.401V20.1C109.401 16.7 106.601 13.9 103.201 13.9Z" fill="#EBEBEB"/>
<path d="M128.7 11.4C131.848 11.4 134.4 8.84802 134.4 5.7C134.4 2.55198 131.848 0 128.7 0C125.552 0 123 2.55198 123 5.7C123 8.84802 125.552 11.4 128.7 11.4Z" fill="#EBEBEB"/>
<path d="M132.8 13.9H124.5C121.1 13.9 118.4 16.7 118.4 20V36.1H122V23.4H123.1V36.2H134.3V23.4H135.4V36.2H139V20.1C139 16.7 136.2 13.9 132.8 13.9Z" fill="#EBEBEB"/>
<path d="M10.2996 56.6C13.4476 56.6 15.9996 54.048 15.9996 50.9C15.9996 47.7519 13.4476 45.2 10.2996 45.2C7.15159 45.2 4.59961 47.7519 4.59961 50.9C4.59961 54.048 7.15159 56.6 10.2996 56.6Z" fill="#EBEBEB"/>
<path d="M14.4 59.1H6.1C2.7 59.1 0 61.9 0 65.2V81.3H3.6V68.6H4.7V81.4H15.9V68.6H17V81.4H20.6V65.3C20.6 61.9 17.8 59.1 14.4 59.1Z" fill="#EBEBEB"/>
<path d="M39.8992 56.6C43.0472 56.6 45.5992 54.048 45.5992 50.9C45.5992 47.7519 43.0472 45.2 39.8992 45.2C36.7512 45.2 34.1992 47.7519 34.1992 50.9C34.1992 54.048 36.7512 56.6 39.8992 56.6Z" fill="#EBEBEB"/>
<path d="M43.9996 59.1H35.6996C32.2996 59.1 29.5996 61.9 29.5996 65.2V81.3H33.1996V68.6H34.2996V81.4H45.4996V68.6H46.5996V81.4H50.1996V65.3C50.1996 61.9 47.3996 59.1 43.9996 59.1Z" fill="#EBEBEB"/>
<mask id="mask0" mask-type="alpha" maskUnits="userSpaceOnUse" x="29" y="59" width="22" height="23">
<path d="M43.9996 59.1H35.6996C32.2996 59.1 29.5996 61.9 29.5996 65.2V81.3H33.1996V68.6H34.2996V81.4H45.4996V68.6H46.5996V81.4H50.1996V65.3C50.1996 61.9 47.3996 59.1 43.9996 59.1Z" fill="#EBEBEB"/>
</mask>
<g mask="url(#mask0)">
<rect width="20.6" height="1" transform="matrix(1 0 0 -1 29.5996 81.3999)" fill="#EBEBEB"/>
</g>
<path d="M69.4988 56.6C72.6469 56.6 75.1988 54.048 75.1988 50.9C75.1988 47.7519 72.6469 45.2 69.4988 45.2C66.3508 45.2 63.7988 47.7519 63.7988 50.9C63.7988 54.048 66.3508 56.6 69.4988 56.6Z" fill="#EBEBEB"/>
<path d="M73.5992 59.1H65.2992C61.8992 59.1 59.1992 61.9 59.1992 65.2V81.3H62.7992V68.6H63.8992V81.4H75.0992V68.6H76.1992V81.4H79.7992V65.3C79.7992 61.9 76.9992 59.1 73.5992 59.1Z" fill="#EBEBEB"/>
<path d="M99.1004 56.6C102.248 56.6 104.8 54.048 104.8 50.9C104.8 47.7519 102.248 45.2 99.1004 45.2C95.9524 45.2 93.4004 47.7519 93.4004 50.9C93.4004 54.048 95.9524 56.6 99.1004 56.6Z" fill="#EBEBEB"/>
<path d="M103.201 59.1H94.9008C91.5008 59.1 88.8008 61.9 88.8008 65.2V81.3H92.4008V68.6H93.5008V81.4H104.701V68.6H105.801V81.4H109.401V65.3C109.401 61.9 106.601 59.1 103.201 59.1Z" fill="#EBEBEB"/>
<path d="M128.7 56.6C131.848 56.6 134.4 54.048 134.4 50.9C134.4 47.7519 131.848 45.2 128.7 45.2C125.552 45.2 123 47.7519 123 50.9C123 54.048 125.552 56.6 128.7 56.6Z" fill="#EBEBEB"/>
<path d="M132.8 59.1H124.5C121.1 59.1 118.4 61.9 118.4 65.2V81.3H122V68.6H123.1V81.4H134.3V68.6H135.4V81.4H139V65.3C139 61.9 136.2 59.1 132.8 59.1Z" fill="#EBEBEB"/>
<path d="M3.438 110.128C3.846 110.152 4.116 110.164 4.248 110.164C4.656 110.164 5.016 110.158 5.328 110.146C5.652 110.134 5.928 110.122 6.156 110.11C6.744 110.074 7.272 110.056 7.74 110.056C8.196 110.056 8.532 110.176 8.748 110.416C8.964 110.656 9.072 110.974 9.072 111.37C9.072 111.562 8.946 111.718 8.694 111.838C8.442 111.946 8.184 112 7.92 112C7.692 112 7.218 111.976 6.498 111.928C5.634 111.856 4.956 111.82 4.464 111.82C4.2 111.82 3.888 111.838 3.528 111.874C3.384 111.886 3.21 111.898 3.006 111.91C2.802 111.922 2.574 111.928 2.322 111.928C1.842 111.928 1.476 111.862 1.224 111.73C0.972 111.598 0.846 111.358 0.846 111.01C0.846 110.71 0.966 110.404 1.206 110.092C1.446 109.78 1.782 109.408 2.214 108.976L2.646 108.544C2.838 108.34 3.192 107.992 3.708 107.5C4.56 106.732 5.22 106.054 5.688 105.466C6.168 104.878 6.408 104.296 6.408 103.72C6.408 103.348 6.228 103.048 5.868 102.82C5.52 102.58 5.118 102.46 4.662 102.46C3.966 102.46 3.462 102.616 3.15 102.928C2.85 103.228 2.7 103.666 2.7 104.242C2.7 104.386 2.616 104.518 2.448 104.638C2.292 104.746 2.094 104.8 1.854 104.8C1.518 104.8 1.284 104.68 1.152 104.44C1.02 104.2 0.954 103.906 0.954 103.558C0.954 103.006 1.122 102.52 1.458 102.1C1.794 101.668 2.25 101.332 2.826 101.092C3.414 100.852 4.062 100.732 4.77 100.732C5.274 100.732 5.796 100.858 6.336 101.11C6.888 101.35 7.344 101.68 7.704 102.1C8.076 102.508 8.262 102.958 8.262 103.45C8.262 104.194 8.076 104.902 7.704 105.574C7.332 106.246 6.894 106.846 6.39 107.374C5.898 107.89 5.256 108.502 4.464 109.21C4.08 109.534 3.738 109.84 3.438 110.128ZM23.2196 106.222C23.3156 106.39 23.3936 106.636 23.4536 106.96C23.5136 107.272 23.5436 107.554 23.5436 107.806C23.5436 108.274 23.4416 108.94 23.2376 109.804C22.4096 111.316 21.1856 112.072 19.5656 112.072C18.9656 112.072 18.3536 111.874 17.7296 111.478C17.1056 111.082 16.6736 110.626 16.4336 110.11C16.1096 109.078 15.9476 108.424 15.9476 108.148C15.9476 107.668 16.0496 107.158 16.2536 106.618C16.4696 106.078 16.7396 105.61 17.0636 105.214C17.2676 104.938 17.6336 104.704 18.1616 104.512C18.6896 104.308 19.1696 104.206 19.6016 104.206C20.4416 104.206 21.1556 104.368 21.7436 104.692C22.3316 105.004 22.8236 105.514 23.2196 106.222ZM21.6536 109.12C21.7136 108.964 21.7436 108.562 21.7436 107.914C21.7436 107.566 21.6776 107.224 21.5456 106.888C21.4256 106.552 21.2456 106.264 21.0056 106.024C20.9816 106 20.9156 105.964 20.8076 105.916C20.6996 105.856 20.5496 105.802 20.3576 105.754C20.1776 105.694 19.9676 105.664 19.7276 105.664C19.0556 105.664 18.5636 105.934 18.2516 106.474C17.9396 107.014 17.7836 107.626 17.7836 108.31C17.7836 108.43 17.8136 108.658 17.8736 108.994C17.9456 109.33 18.0056 109.54 18.0536 109.624C18.0896 109.708 18.1796 109.828 18.3236 109.984C18.4796 110.128 18.6656 110.26 18.8816 110.38C19.1096 110.488 19.3436 110.542 19.5836 110.542C20.1236 110.542 20.5556 110.416 20.8796 110.164C21.2036 109.9 21.4616 109.552 21.6536 109.12ZM26.8865 104.188C27.6785 104.188 28.0745 104.71 28.0745 105.754C28.0745 105.886 28.0625 106.18 28.0385 106.636C28.0145 107.164 28.0025 107.578 28.0025 107.878C28.0025 108.718 28.1165 109.396 28.3445 109.912C28.4285 110.08 28.5785 110.212 28.7945 110.308C29.0225 110.404 29.2145 110.452 29.3705 110.452C29.6105 110.452 29.8085 110.422 29.9645 110.362C30.1205 110.302 30.2645 110.212 30.3965 110.092C30.5405 109.972 30.6785 109.84 30.8105 109.696C31.0385 109.444 31.1825 109.156 31.2425 108.832C31.3145 108.496 31.3565 108.052 31.3685 107.5C31.3685 107.152 31.3865 106.816 31.4225 106.492C31.4945 105.964 31.5305 105.472 31.5305 105.016C31.5305 104.764 31.5965 104.554 31.7285 104.386C31.8725 104.206 32.0765 104.116 32.3405 104.116C32.4725 104.116 32.6285 104.164 32.8085 104.26C33.0005 104.344 33.1265 104.44 33.1865 104.548C33.2705 104.692 33.3125 104.89 33.3125 105.142C33.3125 105.298 33.2945 105.442 33.2585 105.574C33.1985 105.754 33.1685 105.982 33.1685 106.258C33.1685 106.402 33.1805 106.642 33.2045 106.978C33.2405 107.23 33.2585 107.488 33.2585 107.752C33.2585 108.556 33.3185 109.15 33.4385 109.534C33.5705 109.942 33.7505 110.302 33.9785 110.614C34.2185 110.866 34.3805 111.052 34.4645 111.172C34.5485 111.28 34.5905 111.376 34.5905 111.46C34.5905 111.604 34.5185 111.742 34.3745 111.874C34.2305 112.006 34.0805 112.072 33.9245 112.072C33.4805 112.072 33.0905 111.922 32.7545 111.622C32.4305 111.31 32.1905 110.914 32.0345 110.434C31.9025 110.59 31.7285 110.782 31.5125 111.01C31.2965 111.238 31.0925 111.424 30.9005 111.568C30.4325 111.904 29.8325 112.072 29.1005 112.072C28.8005 112.072 28.4705 111.982 28.1105 111.802C27.7625 111.622 27.4445 111.388 27.1565 111.1C26.8685 110.8 26.6705 110.482 26.5625 110.146C26.5505 110.122 26.5145 110.026 26.4545 109.858C26.4065 109.69 26.3825 109.438 26.3825 109.102L26.3645 106.222C26.3645 106.054 26.3225 105.79 26.2385 105.43C26.1665 105.19 26.1305 105.01 26.1305 104.89C26.1305 104.686 26.1965 104.518 26.3285 104.386C26.4725 104.254 26.6585 104.188 26.8865 104.188ZM36.7487 105.772C36.5807 105.748 36.4427 105.676 36.3347 105.556C36.2387 105.436 36.1907 105.292 36.1907 105.124C36.1907 105.04 36.2087 104.95 36.2447 104.854C36.2927 104.758 36.3587 104.674 36.4427 104.602C36.5987 104.446 37.0187 104.368 37.7027 104.368C37.7987 103.9 37.8467 103.426 37.8467 102.946C37.8467 102.766 37.8407 102.61 37.8287 102.478C37.8167 102.346 37.8107 102.244 37.8107 102.172C37.8107 101.908 37.9067 101.71 38.0987 101.578C38.3027 101.446 38.5307 101.38 38.7827 101.38C39.0947 101.38 39.3047 101.458 39.4127 101.614C39.5327 101.77 39.5927 102.058 39.5927 102.478C39.5927 103.102 39.5387 103.714 39.4307 104.314C39.6227 104.314 39.8867 104.302 40.2227 104.278C40.6787 104.254 41.0087 104.242 41.2127 104.242C41.4167 104.242 41.5907 104.296 41.7347 104.404C41.8907 104.5 41.9687 104.638 41.9687 104.818C41.9687 105.286 41.7587 105.562 41.3387 105.646C40.8947 105.754 40.2047 105.82 39.2687 105.844C39.2327 106.312 39.2147 106.822 39.2147 107.374C39.2147 108.238 39.2687 108.946 39.3767 109.498C39.4487 109.882 39.5687 110.164 39.7367 110.344C39.9167 110.512 40.1807 110.596 40.5287 110.596C40.7327 110.596 40.9427 110.542 41.1587 110.434C41.3027 110.35 41.4347 110.308 41.5547 110.308C41.7227 110.308 41.8427 110.362 41.9147 110.47C41.9987 110.578 42.0407 110.722 42.0407 110.902C42.0407 111.238 41.8607 111.52 41.5007 111.748C41.1407 111.964 40.6787 112.072 40.1147 112.072C39.7667 112.072 39.4127 111.988 39.0527 111.82C38.7047 111.652 38.4107 111.442 38.1707 111.19C38.1347 111.154 38.0687 111.016 37.9727 110.776C37.8767 110.536 37.7927 110.278 37.7207 110.002C37.6007 109.438 37.5407 108.646 37.5407 107.626C37.5407 107.182 37.5647 106.588 37.6127 105.844L36.7487 105.772ZM56.2712 106.222C56.3672 106.39 56.4452 106.636 56.5052 106.96C56.5652 107.272 56.5952 107.554 56.5952 107.806C56.5952 108.142 56.5412 108.562 56.4332 109.066C56.3252 109.558 56.2352 109.888 56.1632 110.056C55.5152 111.4 54.2672 112.072 52.4192 112.072C51.8312 112.072 51.2552 111.88 50.6912 111.496C50.1272 111.1 49.7252 110.638 49.4852 110.11L49.3592 109.75C49.3472 109.702 49.2812 109.522 49.1612 109.21C49.0532 108.886 48.9992 108.64 48.9992 108.472C48.9992 107.98 49.1192 107.41 49.3592 106.762C49.5992 106.114 49.8752 105.598 50.1872 105.214C50.3912 104.938 50.7812 104.704 51.3572 104.512C51.9332 104.308 52.4432 104.206 52.8872 104.206C53.7152 104.206 54.3812 104.362 54.8852 104.674C55.4012 104.986 55.8632 105.502 56.2712 106.222ZM54.6152 109.12C54.6632 109.036 54.7052 108.886 54.7412 108.67C54.7772 108.454 54.7952 108.202 54.7952 107.914C54.7952 107.566 54.7292 107.224 54.5972 106.888C54.4772 106.552 54.2972 106.264 54.0572 106.024C54.0452 106 54.0032 105.964 53.9312 105.916C53.8592 105.856 53.7452 105.802 53.5892 105.754C53.4332 105.694 53.2352 105.664 52.9952 105.664C52.5272 105.664 52.1312 105.802 51.8072 106.078C51.4832 106.354 51.2372 106.696 51.0692 107.104C50.9132 107.512 50.8352 107.914 50.8352 108.31C50.8352 108.418 50.8712 108.64 50.9432 108.976C51.0152 109.312 51.0692 109.528 51.1052 109.624C51.2012 109.792 51.3872 109.99 51.6632 110.218C51.9392 110.434 52.2512 110.542 52.5992 110.542C53.1392 110.542 53.5592 110.416 53.8592 110.164C54.1712 109.912 54.4232 109.564 54.6152 109.12ZM62.8379 101.398C62.4779 101.398 62.2559 101.698 62.1719 102.298C62.0879 103.114 62.0459 103.732 62.0459 104.152C62.2859 104.176 62.5379 104.188 62.8019 104.188C62.9699 104.188 63.1859 104.176 63.4499 104.152L63.9179 104.134C64.1579 104.134 64.3379 104.176 64.4579 104.26C64.5779 104.344 64.6379 104.482 64.6379 104.674C64.6379 104.938 64.5479 105.166 64.3679 105.358C64.1999 105.538 64.0019 105.628 63.7739 105.628C62.9099 105.628 62.3279 105.67 62.0279 105.754C62.0279 106.486 62.0639 107.524 62.1359 108.868L62.1719 109.75L62.2439 111.154C62.2679 111.502 62.2319 111.748 62.1359 111.892C62.0519 112.024 61.8659 112.09 61.5779 112.09C61.0499 112.09 60.7079 111.772 60.5519 111.136C60.4559 110.668 60.3779 110.014 60.3179 109.174C60.2579 108.334 60.2279 107.584 60.2279 106.924C60.2279 106.576 60.2459 106.18 60.2819 105.736C60.2579 105.724 60.1919 105.718 60.0839 105.718C59.9759 105.718 59.8979 105.724 59.8499 105.736C59.4899 105.76 59.2259 105.772 59.0579 105.772C58.9499 105.772 58.8419 105.7 58.7339 105.556C58.6259 105.4 58.5719 105.214 58.5719 104.998C58.5719 104.878 58.6139 104.77 58.6979 104.674C58.7819 104.566 58.8839 104.488 59.0039 104.44C59.1839 104.344 59.4419 104.296 59.7779 104.296L60.3179 104.314C60.3179 102.61 60.5099 101.428 60.8939 100.768C61.2539 100.144 61.8479 99.832 62.6759 99.832C63.1559 99.832 63.5939 99.952 63.9899 100.192C64.1579 100.3 64.2839 100.432 64.3679 100.588C64.4639 100.744 64.5119 100.894 64.5119 101.038C64.5119 101.218 64.4399 101.404 64.2959 101.596C64.1639 101.788 63.9599 101.884 63.6839 101.884C63.5759 101.884 63.4379 101.8 63.2699 101.632C63.2099 101.572 63.1439 101.518 63.0719 101.47C62.9999 101.422 62.9219 101.398 62.8379 101.398ZM76.258 102.532C76.138 104.884 76.078 106.756 76.078 108.148C76.078 108.868 76.096 109.552 76.132 110.2C76.228 110.272 76.414 110.308 76.69 110.308L77.104 110.29C77.272 110.266 77.428 110.254 77.572 110.254C77.884 110.254 78.124 110.308 78.292 110.416C78.472 110.524 78.562 110.734 78.562 111.046C78.562 111.346 78.472 111.58 78.292 111.748C78.124 111.916 77.77 112 77.23 112C76.774 112 76.222 111.964 75.574 111.892C75.418 111.88 75.268 111.868 75.124 111.856C74.98 111.844 74.848 111.838 74.728 111.838C74.068 111.85 73.576 111.874 73.252 111.91C72.928 111.946 72.562 111.964 72.154 111.964C71.782 111.964 71.596 111.682 71.596 111.118C71.596 110.578 71.944 110.308 72.64 110.308C72.748 110.308 72.922 110.32 73.162 110.344C73.366 110.38 73.582 110.398 73.81 110.398C73.942 110.398 74.05 110.392 74.134 110.38C74.146 109.576 74.188 108.406 74.26 106.87C74.332 105.07 74.368 103.738 74.368 102.874C74.308 102.886 74.098 102.97 73.738 103.126C73.186 103.402 72.778 103.54 72.514 103.54C72.37 103.54 72.238 103.468 72.118 103.324C71.998 103.168 71.938 102.988 71.938 102.784C71.938 102.58 72.064 102.382 72.316 102.19C72.568 101.998 72.976 101.746 73.54 101.434C73.852 101.278 74.152 101.104 74.44 100.912C74.512 100.864 74.614 100.816 74.746 100.768C74.89 100.72 74.998 100.696 75.07 100.696C75.382 100.696 75.664 100.762 75.916 100.894C76.18 101.014 76.312 101.176 76.312 101.38L76.258 102.532ZM88.5856 101.848C88.9816 102.46 89.2996 103.162 89.5396 103.954C89.7796 104.734 89.8996 105.532 89.8996 106.348C89.8996 107.32 89.7316 108.244 89.3956 109.12C89.0716 109.996 88.5796 110.71 87.9196 111.262C87.2716 111.814 86.4796 112.09 85.5436 112.09C84.6676 112.09 83.8636 111.868 83.1316 111.424C82.3996 110.968 81.8476 110.44 81.4756 109.84C81.1996 109.396 80.9896 108.898 80.8456 108.346C80.7016 107.782 80.6296 107.218 80.6296 106.654C80.6296 105.67 80.8336 104.71 81.2416 103.774C81.6616 102.838 82.2376 102.088 82.9696 101.524C83.6656 101.008 84.4636 100.75 85.3636 100.75C86.3596 100.75 87.4336 101.116 88.5856 101.848ZM83.7616 103.09C83.6536 103.27 83.5456 103.432 83.4376 103.576C83.1736 103.972 82.9816 104.308 82.8616 104.584C82.7416 104.848 82.6336 105.256 82.5376 105.808C82.4896 106.06 82.4656 106.354 82.4656 106.69C82.4656 107.542 82.6336 108.28 82.9696 108.904C83.3176 109.516 83.7916 109.93 84.3916 110.146C84.6796 110.254 85.0036 110.308 85.3636 110.308C86.2636 110.308 86.9416 109.912 87.3976 109.12C87.8656 108.316 88.0996 107.326 88.0996 106.15C88.0996 105.058 87.8956 104.164 87.4876 103.468C87.0796 102.76 86.4496 102.406 85.5976 102.406C85.2496 102.406 84.9496 102.46 84.6976 102.568C84.4576 102.676 84.1456 102.85 83.7616 103.09Z" fill="black"/>
</svg>
