<svg width="106" height="121" viewBox="0 0 106 121" fill="none" xmlns="http://www.w3.org/2000/svg">
<path d="M19.2678 33.6728C19.2678 15.0546 34.3612 0 53.0045 0C71.6476 0 86.7223 15.0545 86.7223 33.6728V71.3957C86.7223 74.6066 81.8994 74.6066 81.8994 71.3957V33.6728C81.8994 17.637 69.0616 4.8165 53.0045 4.8165C36.9471 4.8165 24.086 17.637 24.086 33.6728V71.3957C24.1588 74.6755 19.1949 74.6755 19.2678 71.3957V33.6728Z" fill="#212121"/>
<path fill-rule="evenodd" clip-rule="evenodd" d="M47.955 121H52.8959L45.2172 87.236C47.2618 88.2764 49.8383 89.012 53.0045 89.012C56.1772 89.012 58.7501 88.2747 60.7916 87.2313L53.113 121H58.0502L67.3372 80.1498C67.4191 79.9043 67.4628 79.6478 67.4637 79.3887V66.6219C71.8831 62.6581 74.6815 56.9251 74.6815 50.5279V36.0881C74.6863 34.7591 73.6128 33.6774 72.2819 33.6728H67.4637C62.0952 33.6728 60.1 28.114 60.1 28.114C59.7621 27.0875 58.7812 26.4142 57.7003 26.4646C56.7045 26.51 55.8378 27.1685 55.5264 28.114C55.5264 28.114 53.5815 33.6728 48.1862 33.6728H33.7271C32.3961 33.6776 31.3223 34.7591 31.3275 36.0881V50.5279C31.3275 56.9276 34.1229 62.6628 38.5453 66.6266V79.3887C38.5457 79.4943 38.552 79.5999 38.5646 79.7047C38.5734 79.7769 38.5851 79.8486 38.5999 79.9198L47.955 121ZM67.4637 38.4843C62.8436 38.4843 59.6203 36.1565 57.8226 33.6867C56.0265 36.159 52.8093 38.4843 48.1815 38.4843H36.1455V50.5279C36.1455 59.8994 43.6203 67.3642 53.0045 67.3642C62.3885 67.3642 69.8633 59.8994 69.8633 50.5279V38.4843H67.4637ZM53.0045 72.1757C49.5368 72.1757 46.2703 71.3434 43.3634 69.8969V78.8012C43.3634 78.8012 45.4406 84.2005 53.0045 84.2005C60.5684 84.2005 62.6408 78.8012 62.6408 78.8012V69.8969C59.7349 71.3421 56.4705 72.1757 53.0045 72.1757Z" fill="#212121"/>
<path d="M101.182 121H106V108.264C106 90.9782 91.9904 76.9875 74.6818 76.9875C71.424 76.942 71.424 81.8454 74.6818 81.7993V98.88C69.1948 99.997 65.0408 104.859 65.0408 110.66V113.08C65.0408 116.291 69.8636 116.291 69.8636 113.08V110.66C69.8638 106.62 73.0361 103.452 77.0817 103.452C81.1271 103.452 84.3231 106.62 84.3231 110.66V113.08C84.2502 116.36 89.2142 116.36 89.1413 113.08V110.66C89.1413 104.865 84.9813 100.009 79.5002 98.8845V82.2505C91.8882 84.4928 101.182 95.2084 101.182 108.264V121Z" fill="#212121"/>
<path fill-rule="evenodd" clip-rule="evenodd" d="M4.81787 108.264V121H0V108.264C0 90.9782 14.0096 76.9875 31.3182 76.9875C34.5752 76.9356 34.5848 81.8357 31.3273 81.7993V101.507C34.1127 102.512 36.1455 105.156 36.1455 108.264C36.1455 112.221 32.8671 115.476 28.9041 115.477C24.9411 115.477 21.6862 112.221 21.6862 108.264C21.6862 105.149 23.7136 102.497 26.5044 101.497V82.2505C14.1141 84.491 4.81787 95.2069 4.81787 108.264ZM31.3273 108.264C31.3273 106.906 30.2631 105.849 28.9041 105.849C27.545 105.849 26.5044 106.906 26.5044 108.264C26.5044 109.621 27.545 110.66 28.9041 110.66C30.2631 110.66 31.3273 109.621 31.3273 108.264Z" fill="#212121"/>
<path d="M1 117H106V121H1V117Z" fill="#212121"/>
</svg>
