<svg width="157" height="120" viewBox="0 0 157 120" fill="none" xmlns="http://www.w3.org/2000/svg">
<path d="M10.4667 28.6958H65.4167V26.0871C65.4167 22.6278 66.7951 19.3101 69.2487 16.8639C71.7023 14.4178 75.0301 13.0436 78.5 13.0436C81.9699 13.0436 85.2977 14.4178 87.7513 16.8639C90.2049 19.3101 91.5833 22.6278 91.5833 26.0871V28.6958H99.8363C103.005 28.6961 106.066 29.8427 108.45 31.9228C108.592 32.0461 108.72 32.1843 108.832 32.335L131.074 62.283C133.341 64.1802 136.207 65.2194 139.167 65.2178C143.895 65.224 148.427 67.0991 151.77 70.4318C155.113 73.7646 156.994 78.283 157 82.9962V101.74C157 104.507 155.897 107.161 153.934 109.118C151.971 111.075 149.309 112.175 146.533 112.175H143.226C141.543 114.59 139.299 116.563 136.686 117.926C134.072 119.288 131.166 120 128.217 120C125.267 120 122.361 119.288 119.748 117.926C117.134 116.563 114.89 114.59 113.207 112.175H43.7925C42.1099 114.59 39.8659 116.563 37.2522 117.926C34.6385 119.288 31.7328 120 28.7833 120C25.8338 120 22.9281 119.288 20.3145 117.926C17.7008 116.563 15.4568 114.59 13.7741 112.175H10.4667C7.69073 112.175 5.0285 111.075 3.06562 109.118C1.10274 107.161 0 104.507 0 101.74V39.1307C0 36.3632 1.10274 33.709 3.06562 31.7521C5.0285 29.7952 7.69073 28.6958 10.4667 28.6958ZM86.35 26.0871C86.35 24.0115 85.523 22.0209 84.0508 20.5532C82.5786 19.0855 80.5819 18.261 78.5 18.261C76.418 18.261 74.4214 19.0855 72.9492 20.5532C71.4771 22.0209 70.65 24.0115 70.65 26.0871V28.6958H86.35V26.0871ZM128.217 114.783C130.804 114.783 133.334 114.018 135.485 112.585C137.637 111.152 139.314 109.115 140.304 106.731C141.294 104.348 141.553 101.725 141.049 99.1951C140.544 96.6649 139.298 94.3408 137.468 92.5166C135.638 90.6924 133.307 89.4501 130.769 88.9468C128.231 88.4436 125.601 88.7019 123.21 89.6891C120.819 90.6763 118.776 92.3482 117.338 94.4932C115.901 96.6382 115.133 99.16 115.133 101.74C115.137 105.198 116.517 108.513 118.97 110.958C121.423 113.404 124.748 114.779 128.217 114.783ZM28.7833 114.783C31.371 114.783 33.9005 114.018 36.052 112.585C38.2036 111.152 39.8805 109.115 40.8708 106.731C41.861 104.348 42.1201 101.725 41.6153 99.1951C41.1105 96.6649 39.8644 94.3408 38.0346 92.5166C36.2049 90.6924 33.8737 89.4501 31.3358 88.9468C28.7978 88.4436 26.1672 88.7019 23.7766 89.6891C21.3859 90.6763 19.3426 92.3482 17.9049 94.4932C16.4673 96.6382 15.7 99.16 15.7 101.74C15.7042 105.198 17.0839 108.513 19.5366 110.958C21.9893 113.404 25.3147 114.779 28.7833 114.783ZM5.23333 101.74C5.23333 103.124 5.7847 104.451 6.76614 105.429C7.74758 106.408 9.0787 106.957 10.4667 106.957H11.2517C10.4236 104.229 10.2477 101.345 10.738 98.5372C11.2282 95.729 12.3711 93.0742 14.0751 90.7853C15.779 88.4965 17.9968 86.6371 20.5508 85.3559C23.1048 84.0748 25.9242 83.4075 28.7833 83.4075C31.6424 83.4075 34.4618 84.0748 37.0159 85.3559C39.5699 86.6371 41.7876 88.4965 43.4916 90.7853C45.1956 93.0742 46.3384 95.729 46.8287 98.5372C47.319 101.345 47.143 104.229 46.315 106.957H110.685C109.857 104.229 109.681 101.345 110.171 98.5372C110.662 95.729 111.804 93.0742 113.508 90.7853C115.212 88.4965 117.43 86.6371 119.984 85.3559C122.538 84.0748 125.358 83.4075 128.217 83.4075C131.076 83.4075 133.895 84.0748 136.449 85.3559C139.003 86.6371 141.221 88.4965 142.925 90.7853C144.629 93.0742 145.772 95.729 146.262 98.5372C146.752 101.345 146.576 104.229 145.748 106.957H146.533C147.921 106.957 149.252 106.408 150.234 105.429C151.215 104.451 151.767 103.124 151.767 101.74V82.9962C151.763 79.6659 150.435 76.4729 148.073 74.1181C145.711 71.7632 142.508 70.4387 139.167 70.4352C134.85 70.4344 130.68 68.8705 127.432 66.0343C127.29 65.9127 127.163 65.7753 127.052 65.6248L104.811 35.682C103.408 34.5379 101.651 33.913 99.8389 33.9133H10.4667C9.0787 33.9133 7.74758 34.463 6.76614 35.4414C5.7847 36.4199 5.23333 37.7469 5.23333 39.1307V101.74Z" fill="black"/>
<path d="M99.4333 41.7394C101.152 41.7349 102.855 42.0702 104.443 42.7257C106.031 43.3812 107.473 44.3441 108.686 45.5586C108.809 45.6834 108.921 45.8196 109.018 45.9655L122.549 66.3891C122.809 66.7822 122.958 67.2383 122.979 67.7089C123.001 68.1795 122.894 68.6471 122.67 69.062C122.446 69.4769 122.114 69.8236 121.708 70.0654C121.303 70.3072 120.839 70.435 120.367 70.4352H78.5V65.2178H86.35V46.9568H78.5V41.7394H99.4333ZM104.808 49.0777C103.355 47.7102 101.431 46.951 99.4333 46.9568H91.5833V65.2178H115.502L104.808 49.0777Z" fill="black"/>
<path d="M13.0833 41.7394H23.55V46.9568H15.7V65.2178H23.55V70.4352H13.0833C12.3893 70.4352 11.7238 70.1604 11.2331 69.6712C10.7423 69.1819 10.4667 68.5184 10.4667 67.8265V44.3481C10.4667 43.6562 10.7423 42.9927 11.2331 42.5035C11.7238 42.0142 12.3893 41.7394 13.0833 41.7394Z" fill="black"/>
<path d="M49.7167 49.5655H54.95V54.783H60.1833V60.0004H54.95V65.2178H49.7167V60.0004H44.4833V54.783H49.7167V49.5655Z" fill="black"/>
<path d="M88.9667 75.6527H104.667V80.8701H88.9667V75.6527Z" fill="black"/>
<path d="M128.217 93.9136C129.769 93.9136 131.287 94.3726 132.578 95.2326C133.869 96.0925 134.875 97.3148 135.469 98.7448C136.063 100.175 136.219 101.748 135.916 103.267C135.613 104.785 134.865 106.179 133.767 107.274C132.67 108.368 131.271 109.114 129.748 109.416C128.225 109.718 126.647 109.563 125.213 108.97C123.778 108.378 122.552 107.375 121.69 106.088C120.827 104.801 120.367 103.288 120.367 101.74C120.367 99.6642 121.194 97.6736 122.666 96.2059C124.138 94.7382 126.135 93.9136 128.217 93.9136ZM128.217 104.348C128.734 104.348 129.24 104.195 129.67 103.909C130.101 103.622 130.436 103.215 130.634 102.738C130.832 102.261 130.884 101.737 130.783 101.231C130.682 100.725 130.433 100.26 130.067 99.8951C129.701 99.5303 129.235 99.2818 128.727 99.1812C128.22 99.0805 127.693 99.1322 127.215 99.3296C126.737 99.5271 126.329 99.8615 126.041 100.29C125.753 100.719 125.6 101.224 125.6 101.74C125.6 102.432 125.876 103.095 126.366 103.584C126.857 104.074 127.523 104.348 128.217 104.348Z" fill="black"/>
<path d="M28.7833 93.9136C30.3359 93.9136 31.8536 94.3726 33.1446 95.2326C34.4355 96.0925 35.4416 97.3148 36.0358 98.7448C36.6299 100.175 36.7854 101.748 36.4825 103.267C36.1796 104.785 35.432 106.179 34.3341 107.274C33.2363 108.368 31.8375 109.114 30.3148 109.416C28.792 109.718 27.2137 109.563 25.7793 108.97C24.3449 108.378 23.1189 107.375 22.2563 106.088C21.3937 104.801 20.9333 103.288 20.9333 101.74C20.9333 99.6642 21.7604 97.6736 23.2325 96.2059C24.7047 94.7382 26.7014 93.9136 28.7833 93.9136ZM28.7833 104.348C29.3009 104.348 29.8068 104.195 30.2371 103.909C30.6674 103.622 31.0028 103.215 31.2008 102.738C31.3989 102.261 31.4507 101.737 31.3497 101.231C31.2488 100.725 30.9995 100.26 30.6336 99.8951C30.2676 99.5303 29.8014 99.2818 29.2938 99.1812C28.7862 99.0805 28.2601 99.1322 27.782 99.3296C27.3038 99.5271 26.8952 99.8615 26.6076 100.29C26.3201 100.719 26.1667 101.224 26.1667 101.74C26.1667 102.432 26.4423 103.095 26.9331 103.584C27.4238 104.074 28.0893 104.348 28.7833 104.348Z" fill="black"/>
<path d="M52.3333 39.1307C55.956 39.1307 59.4974 40.2017 62.5095 42.2082C65.5217 44.2148 67.8694 47.0667 69.2557 50.4035C70.6421 53.7403 71.0048 57.4119 70.298 60.9542C69.5913 64.4965 67.8468 67.7503 65.2852 70.3041C62.7235 72.858 59.4598 74.5972 55.9067 75.3018C52.3536 76.0064 48.6708 75.6447 45.3238 74.2626C41.9769 72.8805 39.1162 70.5399 37.1036 67.5369C35.0909 64.5339 34.0167 61.0034 34.0167 57.3917C34.0222 52.5502 35.9538 47.9087 39.3876 44.4853C42.8215 41.0619 47.4771 39.1362 52.3333 39.1307ZM52.3333 70.4352C54.921 70.4352 57.4505 69.6702 59.602 68.237C61.7536 66.8037 63.4305 64.7666 64.4208 62.3832C65.411 59.9998 65.6701 57.3772 65.1653 54.847C64.6604 52.3168 63.4144 49.9927 61.5846 48.1685C59.7549 46.3443 57.4237 45.102 54.8858 44.5987C52.3478 44.0954 49.7172 44.3538 47.3266 45.341C44.9359 46.3282 42.8926 48.0001 41.4549 50.1451C40.0173 52.2901 39.25 54.8119 39.25 57.3917C39.2542 60.8498 40.6339 64.165 43.0866 66.6103C45.5393 69.0555 48.8647 70.4311 52.3333 70.4352Z" fill="black"/>
<path d="M75.8833 0H81.1167V7.82614H75.8833V0Z" fill="black"/>
<path d="M64.6509 3.3732L69.8834 8.58985L66.1829 12.2791L60.9504 7.06248L64.6509 3.3732Z" fill="black"/>
<path d="M92.3497 3.37338L96.0503 7.06266L90.8177 12.2793L87.1172 8.59002L92.3497 3.37338Z" fill="black"/>
</svg>
