<svg width="115" height="116" viewBox="0 0 115 116" fill="none" xmlns="http://www.w3.org/2000/svg">
<mask id="path-1-outside-1" maskUnits="userSpaceOnUse" x="0" y="0" width="115" height="116" fill="black">
<rect fill="white" width="115" height="116"/>
<path d="M113.614 112.812C113.614 112.628 109.933 94.7742 90.7375 91.0968C73.1249 87.8423 73.1249 83.5397 73.1249 80.3955V72.5258C75.9504 71.958 78.5761 70.6563 80.7376 68.7518C82.8992 66.8472 84.5201 64.4072 85.4371 61.6774H93.3692C95.2831 61.5599 97.088 60.7473 98.4439 59.3926C99.7998 58.038 100.613 56.2347 100.731 54.3226V41.4516C100.613 39.5394 99.7998 37.7362 98.4439 36.3816C97.088 35.0269 95.2831 34.2143 93.3692 34.0968H86.0077V28.5806C86.0077 8.22613 70.5668 1 57.3344 1C44.102 1 28.9555 8.22613 28.9555 28.5806V34.0968H21.594C19.6801 34.2143 17.8752 35.0269 16.5193 36.3816C15.1634 37.7362 14.35 39.5394 14.2324 41.4516V54.3226C14.35 56.2347 15.1634 58.038 16.5193 59.3926C17.8752 60.7473 19.6801 61.5599 21.594 61.6774H31.7713C33.8875 67.1957 37.3476 72.0998 41.8383 75.9458V80.469C41.8383 83.5948 41.8383 87.8239 23.8761 91.1336C4.73599 94.6087 1.34967 112.665 1.34967 112.849L1 115H114L113.614 112.812ZM93.3692 37.7742C94.3015 37.899 95.1669 38.3266 95.832 38.9911C96.4971 39.6556 96.9251 40.5202 97.05 41.4516V54.3226C96.9251 55.254 96.4971 56.1186 95.832 56.7831C95.1669 57.4476 94.3015 57.8752 93.3692 58H86.0077V37.7742H93.3692ZM57.3344 4.67742C67.2173 4.67742 78.5173 9.31097 81.5355 21.759C79.8081 19.7811 77.6617 18.212 75.252 17.1657C72.8423 16.1194 70.2297 15.622 67.6037 15.7097C60.2422 15.7097 56.1749 19.0929 52.1629 22.3658C47.5803 26.0432 42.8505 29.9597 32.6363 30.3826V28.5806C32.6363 10.9658 45.3902 4.67742 57.3344 4.67742ZM21.594 58C20.6617 57.8752 19.7963 57.4476 19.1312 56.7831C18.4661 56.1186 18.0381 55.254 17.9132 54.3226V41.4516C18.0381 40.5202 18.4661 39.6556 19.1312 38.9911C19.7963 38.3266 20.6617 37.899 21.594 37.7742H28.9555V46.9677C28.9604 50.7 29.4869 54.4133 30.5199 58H21.594ZM45.5191 80.4506V78.2258L47.249 75.3758C38.3783 69.8965 32.6363 58.7723 32.6363 46.9677V34.0968C44.1756 33.6555 49.6415 29.2058 54.5002 25.2526C58.4938 21.9613 61.6409 19.3871 67.6037 19.3871C70.9698 19.3234 74.2581 20.4014 76.932 22.4451C79.6059 24.4888 81.5077 27.3775 82.3269 30.64V58C82.3269 63.7 77.0818 68.0026 72.7936 68.8668C72.3594 67.3348 71.4393 65.985 70.1716 65.0202C68.9039 64.0553 67.357 63.5275 65.7634 63.5161H62.0826C60.1302 63.5161 58.2577 64.291 56.8772 65.6703C55.4966 67.0496 54.721 68.9203 54.721 70.871C54.721 72.8216 55.4966 74.6923 56.8772 76.0716C58.2577 77.4509 60.1302 78.2258 62.0826 78.2258H65.7634C67.0625 78.2148 68.3344 77.8527 69.4441 77.1777V80.3771C69.3096 82.0007 69.5983 83.6315 70.282 85.1105C70.9658 86.5895 72.0213 87.8664 73.3458 88.8168L57.3528 108.399L41.599 88.8352C42.9361 87.9087 44.0033 86.6445 44.6919 85.1716C45.3806 83.6987 45.666 82.0697 45.5191 80.4506V80.4506ZM69.4441 70.871C69.4441 71.8463 69.0563 72.7817 68.3661 73.4713C67.6758 74.1609 66.7396 74.5484 65.7634 74.5484H62.0826C61.1064 74.5484 60.1701 74.1609 59.4799 73.4713C58.7896 72.7817 58.4018 71.8463 58.4018 70.871C58.4018 69.8957 58.7896 68.9603 59.4799 68.2706C60.1701 67.581 61.1064 67.1935 62.0826 67.1935H65.7634C66.7396 67.1935 67.6758 67.581 68.3661 68.2706C69.0563 68.9603 69.4441 69.8957 69.4441 70.871ZM24.5386 94.7742C29.3182 94.0533 33.9832 92.712 38.4151 90.7842L54.9787 111.359H5.56417C6.86817 107.104 9.33517 103.297 12.6874 100.367C16.0397 97.4371 20.1441 95.5 24.5386 94.7742V94.7742ZM59.7085 111.323L76.5296 90.7474C80.8453 92.6857 85.4006 94.0399 90.0749 94.7742C94.4861 95.5295 98.6089 97.4681 102.003 100.383C105.397 103.298 107.934 107.079 109.344 111.323H59.7085Z"/>
</mask>
<path d="M113.614 112.812C113.614 112.628 109.933 94.7742 90.7375 91.0968C73.1249 87.8423 73.1249 83.5397 73.1249 80.3955V72.5258C75.9504 71.958 78.5761 70.6563 80.7376 68.7518C82.8992 66.8472 84.5201 64.4072 85.4371 61.6774H93.3692C95.2831 61.5599 97.088 60.7473 98.4439 59.3926C99.7998 58.038 100.613 56.2347 100.731 54.3226V41.4516C100.613 39.5394 99.7998 37.7362 98.4439 36.3816C97.088 35.0269 95.2831 34.2143 93.3692 34.0968H86.0077V28.5806C86.0077 8.22613 70.5668 1 57.3344 1C44.102 1 28.9555 8.22613 28.9555 28.5806V34.0968H21.594C19.6801 34.2143 17.8752 35.0269 16.5193 36.3816C15.1634 37.7362 14.35 39.5394 14.2324 41.4516V54.3226C14.35 56.2347 15.1634 58.038 16.5193 59.3926C17.8752 60.7473 19.6801 61.5599 21.594 61.6774H31.7713C33.8875 67.1957 37.3476 72.0998 41.8383 75.9458V80.469C41.8383 83.5948 41.8383 87.8239 23.8761 91.1336C4.73599 94.6087 1.34967 112.665 1.34967 112.849L1 115H114L113.614 112.812ZM93.3692 37.7742C94.3015 37.899 95.1669 38.3266 95.832 38.9911C96.4971 39.6556 96.9251 40.5202 97.05 41.4516V54.3226C96.9251 55.254 96.4971 56.1186 95.832 56.7831C95.1669 57.4476 94.3015 57.8752 93.3692 58H86.0077V37.7742H93.3692ZM57.3344 4.67742C67.2173 4.67742 78.5173 9.31097 81.5355 21.759C79.8081 19.7811 77.6617 18.212 75.252 17.1657C72.8423 16.1194 70.2297 15.622 67.6037 15.7097C60.2422 15.7097 56.1749 19.0929 52.1629 22.3658C47.5803 26.0432 42.8505 29.9597 32.6363 30.3826V28.5806C32.6363 10.9658 45.3902 4.67742 57.3344 4.67742ZM21.594 58C20.6617 57.8752 19.7963 57.4476 19.1312 56.7831C18.4661 56.1186 18.0381 55.254 17.9132 54.3226V41.4516C18.0381 40.5202 18.4661 39.6556 19.1312 38.9911C19.7963 38.3266 20.6617 37.899 21.594 37.7742H28.9555V46.9677C28.9604 50.7 29.4869 54.4133 30.5199 58H21.594ZM45.5191 80.4506V78.2258L47.249 75.3758C38.3783 69.8965 32.6363 58.7723 32.6363 46.9677V34.0968C44.1756 33.6555 49.6415 29.2058 54.5002 25.2526C58.4938 21.9613 61.6409 19.3871 67.6037 19.3871C70.9698 19.3234 74.2581 20.4014 76.932 22.4451C79.6059 24.4888 81.5077 27.3775 82.3269 30.64V58C82.3269 63.7 77.0818 68.0026 72.7936 68.8668C72.3594 67.3348 71.4393 65.985 70.1716 65.0202C68.9039 64.0553 67.357 63.5275 65.7634 63.5161H62.0826C60.1302 63.5161 58.2577 64.291 56.8772 65.6703C55.4966 67.0496 54.721 68.9203 54.721 70.871C54.721 72.8216 55.4966 74.6923 56.8772 76.0716C58.2577 77.4509 60.1302 78.2258 62.0826 78.2258H65.7634C67.0625 78.2148 68.3344 77.8527 69.4441 77.1777V80.3771C69.3096 82.0007 69.5983 83.6315 70.282 85.1105C70.9658 86.5895 72.0213 87.8664 73.3458 88.8168L57.3528 108.399L41.599 88.8352C42.9361 87.9087 44.0033 86.6445 44.6919 85.1716C45.3806 83.6987 45.666 82.0697 45.5191 80.4506V80.4506ZM69.4441 70.871C69.4441 71.8463 69.0563 72.7817 68.3661 73.4713C67.6758 74.1609 66.7396 74.5484 65.7634 74.5484H62.0826C61.1064 74.5484 60.1701 74.1609 59.4799 73.4713C58.7896 72.7817 58.4018 71.8463 58.4018 70.871C58.4018 69.8957 58.7896 68.9603 59.4799 68.2706C60.1701 67.581 61.1064 67.1935 62.0826 67.1935H65.7634C66.7396 67.1935 67.6758 67.581 68.3661 68.2706C69.0563 68.9603 69.4441 69.8957 69.4441 70.871ZM24.5386 94.7742C29.3182 94.0533 33.9832 92.712 38.4151 90.7842L54.9787 111.359H5.56417C6.86817 107.104 9.33517 103.297 12.6874 100.367C16.0397 97.4371 20.1441 95.5 24.5386 94.7742V94.7742ZM59.7085 111.323L76.5296 90.7474C80.8453 92.6857 85.4006 94.0399 90.0749 94.7742C94.4861 95.5295 98.6089 97.4681 102.003 100.383C105.397 103.298 107.934 107.079 109.344 111.323H59.7085Z" fill="black"/>
<path d="M113.614 112.812C113.614 112.628 109.933 94.7742 90.7375 91.0968C73.1249 87.8423 73.1249 83.5397 73.1249 80.3955V72.5258C75.9504 71.958 78.5761 70.6563 80.7376 68.7518C82.8992 66.8472 84.5201 64.4072 85.4371 61.6774H93.3692C95.2831 61.5599 97.088 60.7473 98.4439 59.3926C99.7998 58.038 100.613 56.2347 100.731 54.3226V41.4516C100.613 39.5394 99.7998 37.7362 98.4439 36.3816C97.088 35.0269 95.2831 34.2143 93.3692 34.0968H86.0077V28.5806C86.0077 8.22613 70.5668 1 57.3344 1C44.102 1 28.9555 8.22613 28.9555 28.5806V34.0968H21.594C19.6801 34.2143 17.8752 35.0269 16.5193 36.3816C15.1634 37.7362 14.35 39.5394 14.2324 41.4516V54.3226C14.35 56.2347 15.1634 58.038 16.5193 59.3926C17.8752 60.7473 19.6801 61.5599 21.594 61.6774H31.7713C33.8875 67.1957 37.3476 72.0998 41.8383 75.9458V80.469C41.8383 83.5948 41.8383 87.8239 23.8761 91.1336C4.73599 94.6087 1.34967 112.665 1.34967 112.849L1 115H114L113.614 112.812ZM93.3692 37.7742C94.3015 37.899 95.1669 38.3266 95.832 38.9911C96.4971 39.6556 96.9251 40.5202 97.05 41.4516V54.3226C96.9251 55.254 96.4971 56.1186 95.832 56.7831C95.1669 57.4476 94.3015 57.8752 93.3692 58H86.0077V37.7742H93.3692ZM57.3344 4.67742C67.2173 4.67742 78.5173 9.31097 81.5355 21.759C79.8081 19.7811 77.6617 18.212 75.252 17.1657C72.8423 16.1194 70.2297 15.622 67.6037 15.7097C60.2422 15.7097 56.1749 19.0929 52.1629 22.3658C47.5803 26.0432 42.8505 29.9597 32.6363 30.3826V28.5806C32.6363 10.9658 45.3902 4.67742 57.3344 4.67742ZM21.594 58C20.6617 57.8752 19.7963 57.4476 19.1312 56.7831C18.4661 56.1186 18.0381 55.254 17.9132 54.3226V41.4516C18.0381 40.5202 18.4661 39.6556 19.1312 38.9911C19.7963 38.3266 20.6617 37.899 21.594 37.7742H28.9555V46.9677C28.9604 50.7 29.4869 54.4133 30.5199 58H21.594ZM45.5191 80.4506V78.2258L47.249 75.3758C38.3783 69.8965 32.6363 58.7723 32.6363 46.9677V34.0968C44.1756 33.6555 49.6415 29.2058 54.5002 25.2526C58.4938 21.9613 61.6409 19.3871 67.6037 19.3871C70.9698 19.3234 74.2581 20.4014 76.932 22.4451C79.6059 24.4888 81.5077 27.3775 82.3269 30.64V58C82.3269 63.7 77.0818 68.0026 72.7936 68.8668C72.3594 67.3348 71.4393 65.985 70.1716 65.0202C68.9039 64.0553 67.357 63.5275 65.7634 63.5161H62.0826C60.1302 63.5161 58.2577 64.291 56.8772 65.6703C55.4966 67.0496 54.721 68.9203 54.721 70.871C54.721 72.8216 55.4966 74.6923 56.8772 76.0716C58.2577 77.4509 60.1302 78.2258 62.0826 78.2258H65.7634C67.0625 78.2148 68.3344 77.8527 69.4441 77.1777V80.3771C69.3096 82.0007 69.5983 83.6315 70.282 85.1105C70.9658 86.5895 72.0213 87.8664 73.3458 88.8168L57.3528 108.399L41.599 88.8352C42.9361 87.9087 44.0033 86.6445 44.6919 85.1716C45.3806 83.6987 45.666 82.0697 45.5191 80.4506V80.4506ZM69.4441 70.871C69.4441 71.8463 69.0563 72.7817 68.3661 73.4713C67.6758 74.1609 66.7396 74.5484 65.7634 74.5484H62.0826C61.1064 74.5484 60.1701 74.1609 59.4799 73.4713C58.7896 72.7817 58.4018 71.8463 58.4018 70.871C58.4018 69.8957 58.7896 68.9603 59.4799 68.2706C60.1701 67.581 61.1064 67.1935 62.0826 67.1935H65.7634C66.7396 67.1935 67.6758 67.581 68.3661 68.2706C69.0563 68.9603 69.4441 69.8957 69.4441 70.871ZM24.5386 94.7742C29.3182 94.0533 33.9832 92.712 38.4151 90.7842L54.9787 111.359H5.56417C6.86817 107.104 9.33517 103.297 12.6874 100.367C16.0397 97.4371 20.1441 95.5 24.5386 94.7742V94.7742ZM59.7085 111.323L76.5296 90.7474C80.8453 92.6857 85.4006 94.0399 90.0749 94.7742C94.4861 95.5295 98.6089 97.4681 102.003 100.383C105.397 103.298 107.934 107.079 109.344 111.323H59.7085Z" stroke="black" stroke-width="1.4" mask="url(#path-1-outside-1)"/>
</svg>
